<svg width="351" height="347" viewBox="0 0 351 347" fill="none" xmlns="http://www.w3.org/2000/svg">
<path d="M266.946 167.127C252.189 139.147 213.973 131.963 190.135 152.57C190.135 140.47 174.243 141.226 173.108 151.246C172.541 156.54 173.676 170.152 171.216 178.849C169.325 178.849 167.243 178.849 165.73 179.227C165.541 169.585 163.838 155.595 155.325 152.759C146.243 149.734 140.757 147.654 135.271 148.411C127.135 149.356 124.865 164.48 133.379 165.615C140.757 166.56 146.811 167.127 147.189 169.774C147.568 171.665 146.054 182.252 145.298 186.6C140.757 188.869 135.271 192.839 130.541 195.297C127.325 194.352 124.865 193.595 122.595 193.217C122.216 183.386 120.514 175.824 117.865 166.371C115.406 157.674 102.352 161.077 101.027 165.993C99.5138 171.476 106.514 185.088 105.568 193.595C105.189 197.566 93.0813 213.636 96.1083 233.109C97.0543 239.347 100.081 244.074 104.054 247.477C92.8921 263.547 99.8921 271.487 98.757 283.02C98.0002 290.393 111.243 293.985 108.595 279.995C106.703 269.597 110.865 259.955 116.541 254.094C120.135 255.606 124.298 255.417 128.838 254.283C128.838 254.283 128.838 254.283 129.027 254.283L143.406 262.602C147.757 265.059 153.243 265.059 157.784 262.602L186.919 245.586C191.838 242.94 194.108 237.835 193.919 232.73C234.216 261.467 292.487 216.66 266.946 167.127Z" fill="white"/>
<path d="M101.216 233.487C109.73 242.562 150.027 236.89 160.433 229.139C177.838 215.148 176.892 203.427 196.946 213.069C196.946 213.069 172.351 234.81 148.703 245.398C125.054 255.796 129.027 258.821 115.973 253.716C102.73 248.612 96.2974 240.671 95.919 233.109C95.5406 225.547 101.216 233.487 101.216 233.487Z" fill="#CFDCF6"/>
<path d="M196.946 214.581C206.973 215.337 206.973 217.038 211.324 216.471C212.459 216.282 214.162 210.611 219.459 208.909C225.513 206.829 227.594 208.909 227.594 208.909C231.189 206.262 231.378 204.939 234.027 200.401C238.378 203.804 237.054 210.421 235.351 213.257C233.649 216.093 240.838 202.67 247.649 204.561C251.621 205.695 256.919 212.123 248.216 221.198C239.513 230.273 238 232.919 229.108 233.487C218.703 234.243 216.054 228.949 214.54 229.327C208.108 231.218 201.486 226.491 199.405 223.277C198.27 221.198 196.946 214.581 196.946 214.581Z" fill="#CFDCF6"/>
<path d="M155.135 252.203C154.189 252.203 153.811 250.88 154.568 250.502L183.135 234.054C183.514 233.865 184.081 233.865 184.46 234.432C184.649 234.81 184.649 235.377 184.081 235.755L155.514 252.203C155.514 252.203 155.324 252.203 155.135 252.203ZM262.784 196.809C265.054 184.143 260.514 170.909 250.865 162.401C249.919 161.645 248.595 162.968 249.541 163.913C258.811 172.043 263.162 184.521 260.892 196.62C260.703 197.188 261.27 197.755 261.838 197.755C262.216 197.755 262.784 197.377 262.784 196.809ZM195.243 235.377C194.487 240.104 191.649 244.263 187.487 246.721L158.351 263.736C153.433 266.572 147.378 266.572 142.46 263.736L128.46 255.606C124.487 256.363 120.703 256.363 116.73 255.417C102.919 270.731 114.838 283.587 107.27 289.637C102.541 292.851 95.919 287.746 96.8649 282.453C97.2433 279.05 96.8649 276.025 96.2974 272.811C95.3514 265.627 94.4055 258.253 101.595 247.288C85.5136 231.974 98.0001 205.506 103.676 193.028C104.811 185.655 97.6217 172.043 99.1352 165.237C100.081 161.456 105.568 159.187 109.919 159.187C114.46 159.187 118.054 161.645 119.189 165.615C121.838 175.068 123.541 182.441 123.919 191.516C125.811 191.894 128.081 192.65 130.162 193.217C134.892 190.571 140.189 186.978 144.541 184.71C144.73 179.983 146.054 171.287 145.487 169.585C145.297 168.262 138.108 167.316 133.757 166.749C129.216 166.56 126.189 163.157 126.189 158.053C127.135 141.037 143.027 146.142 155.514 150.679C164.027 153.515 166.487 165.804 166.865 176.958C167.811 176.958 168.757 176.769 169.514 176.769C171.405 169.207 170.46 158.053 171.027 150.49C172.541 139.525 188.433 138.012 190.892 148.978C215.108 129.883 253.892 138.391 267.892 165.804C293.243 213.257 240.649 262.98 195.243 235.377ZM113.514 254.661C110.676 253.716 107.27 252.014 104.054 249.557C97.6217 259.388 98.5676 265.816 99.5136 272.622C99.892 275.836 100.46 279.239 100.081 283.02C99.892 285.1 101.027 286.423 102.351 287.179C106.514 289.259 107.838 285.1 106.892 279.995C105 269.975 108.405 260.9 113.514 254.661ZM160.054 236.512C172.73 228.004 179.919 225.924 190.324 218.74C193.73 215.715 192.784 199.456 189 191.516C188.433 193.406 189.568 199.456 186.73 199.456C185.784 199.456 185.216 198.7 185.216 197.755C186.541 183.954 186.919 169.774 188.243 156.351C189.378 151.436 187.676 145.575 182.757 145.197C174.622 144.629 174.054 151.625 174.433 158.998C174.433 163.346 174.433 168.451 173.865 172.988C173.487 175.824 173.108 178.282 172.351 180.55C168.946 189.814 167.243 198.133 167.243 198.133C166.865 200.213 163.649 199.456 164.216 197.566C164.216 197.188 165.919 189.436 169.135 180.361C166.297 180.55 163.46 180.929 160.243 181.874V178.66C161.568 178.282 163.081 177.904 164.216 177.715C163.838 169.585 162.324 156.54 154.946 154.082C144.351 150.679 130.73 144.251 129.784 158.431C129.784 159.943 130.162 163.535 133.757 163.913C141.514 164.859 148.514 165.615 149.081 169.207C149.46 171.476 148.703 179.605 148.324 183.197C148.135 184.143 148.324 184.521 147.946 185.088L147.568 186.978C143.784 188.869 139.054 191.894 134.892 194.541C145.676 196.999 147 210.611 146.811 220.631C146.622 221.576 145.676 222.332 144.73 221.954C143.405 221.576 143.784 220.064 143.784 218.929C143.595 210.422 142.27 199.645 134.514 197.755C126.757 195.864 111.243 188.68 112.378 202.859C113.135 209.476 119 207.019 124.108 208.531C135.46 210.989 131.865 218.929 130.541 226.87C130.541 229.516 127.135 229.516 127.324 226.87C128.27 222.899 129.405 216.471 129.027 214.959C128.838 214.014 127.135 212.501 123.919 211.556C123.541 213.068 124.108 215.904 121.838 215.904C119.568 215.526 120.892 212.501 120.703 210.989C115.405 211.178 109.919 209.665 109.351 203.237C108.216 195.486 113.703 189.814 121.27 191.138C120.703 182.441 119.189 175.446 116.73 166.56C114.649 159.565 104.243 162.59 102.919 166.182C102.162 172.988 108.784 186.222 107.46 193.595C103.108 204.939 95.919 216.85 97.6217 231.029C98.3784 245.208 112.568 253.716 125.243 253.149C136.405 251.636 143.405 247.099 160.054 236.512ZM188.243 223.845C179.351 228.949 172.73 231.785 161.568 239.158C149.081 247.288 140 252.392 132.622 254.661C139.433 258.253 148.324 266.383 156.46 261.089L185.595 244.074C193.162 240.104 194.487 229.516 188.243 223.845ZM191.649 153.326C190.892 161.456 190.324 170.719 189.757 179.605C191.27 180.172 192.595 181.118 193.73 182.063C194.676 182.441 195.433 182.63 196 182.819C198.649 175.257 209.433 155.028 223.054 153.515C225.135 149.356 228.162 146.52 233.081 150.112C237.811 153.704 236.487 160.132 233.27 165.048C232.514 174.312 234.027 183.575 235.162 191.327C235.73 194.352 236.108 196.242 235.162 199.645C237.811 201.347 238.946 203.048 238.757 207.019C241.595 201.914 249.541 201.536 252.757 206.073C254.27 208.153 255.784 213.068 249.351 222.143C241.027 233.865 226.27 240.293 215.108 230.84C206.595 232.541 197.514 227.437 195.243 218.929C193.351 220.253 192.405 221.009 190.703 222.332C193.162 224.979 194.676 228.382 195.054 231.974C221.351 250.313 260.703 236.323 269.027 205.317C282.838 159.187 228.919 123.077 191.649 153.326ZM220.216 180.172C214.541 181.307 206.973 177.526 204.324 173.555C199.973 180.74 199.405 184.899 197.892 186.222C203.757 193.595 204.892 203.805 200.541 213.447C204.135 214.014 207.351 214.959 210.757 215.337C211.135 214.014 211.703 213.068 212.46 212.312C213.973 210.8 216.054 213.257 214.541 214.581C211.324 218.929 214.541 227.059 219.081 229.706C228.919 235.755 239.892 229.895 246.892 220.253C250.865 214.959 252 210.422 250.297 207.964C248.973 206.073 246.324 205.884 244.433 206.451C240.649 208.153 239.324 214.581 234.973 216.85C229.487 220.82 223.433 214.959 226.081 208.72C226.46 207.964 227.216 207.586 227.973 207.775C231.568 203.048 233.46 197.377 232.135 191.894C231 184.521 229.676 175.824 230.054 167.127C222.108 168.262 219.649 165.237 221.919 157.107C215.487 158.809 209.622 164.67 205.838 170.719C207.73 173.744 214.162 177.904 219.46 176.958C221.541 176.769 222.297 179.794 220.216 180.172ZM228.73 211.934C228.541 214.203 231 215.715 232.892 214.392C236.108 209.098 237.243 205.317 234.406 202.859C233.27 206.073 231.189 209.287 228.73 211.934ZM210.189 218.551C206.027 218.173 202.433 216.85 198.27 216.471C199.216 223.467 205.838 228.382 213.027 227.815C211.135 225.168 210.189 221.765 210.189 218.551Z" fill="#273664"/>
<path d="M126.378 46.1301C124.486 105.305 38.5945 105.305 36.7026 46.1301C38.5945 -13.045 124.486 -13.045 126.378 46.1301Z" fill="white"/>
<path d="M51.6484 78.0812C51.6484 78.0812 63.3782 88.2903 70.189 89.4247C76.8106 90.559 88.7295 91.6933 94.5944 89.0465C100.459 86.3997 110.675 80.5389 110.675 80.5389C110.675 80.5389 102.351 76.3797 98.3782 72.7876C88.5403 63.3347 81.3511 58.9863 70.3782 66.3596C70.3782 66.3596 65.2701 72.2204 61.2971 74.6781C57.3241 77.1359 51.6484 78.0812 51.6484 78.0812Z" fill="#CFDCF6"/>
<path d="M100.838 44.8067C100.27 49.7223 105.189 51.8019 105.189 51.8019C105.189 51.8019 114.27 54.0706 118.811 55.0159C123.351 55.9612 125.054 58.4189 125.054 58.4189C128.838 43.6724 124.486 31.9508 118.621 20.7964C118.621 20.7964 120.513 22.4979 117.865 27.0353C115.216 31.5727 111.811 31.7617 108.405 34.0304C104.811 36.2991 101.594 38.5678 100.838 44.8067Z" fill="#CFDCF6"/>
<path d="M39.3514 60.3095C39.3514 60.3095 43.1352 62.011 45.0271 58.608C46.7298 55.5831 44.2703 53.1253 48.2433 46.6973C52.2163 40.2694 56.3784 38.7569 61.2973 37.8116C66.2163 36.8663 82.4865 35.3539 85.3244 30.4384C88.1622 25.5229 88.1622 24.5776 87.4055 22.1198C84.0001 14.5575 79.6487 10.3982 83.0541 1.32344C64.8919 -0.378083 43.8919 14.7466 38.4055 33.4633C37.0811 39.5131 37.0811 56.1502 39.3514 60.3095Z" fill="#CFDCF6"/>
<path d="M127.892 45.9411C128.081 20.7964 107.081 0 81.9189 0C26.6756 1.32341 18.9189 78.4591 72.4594 90.9369C100.081 97.3648 128.459 74.867 127.892 45.9411ZM124.297 56.7174C120.892 53.8815 117.108 53.3143 113.703 53.1253C106.135 53.1253 98.3783 48.3988 103.486 40.0803C107.081 33.4633 120.513 34.5976 119.946 24.5775C125.243 33.6523 127.135 46.1301 124.297 56.7174ZM81.9189 2.45775C82.1081 2.45775 82.1081 2.45775 82.2972 2.45775C76.054 10.5872 88.1621 18.5277 86.4594 26.4681C80.9729 40.8365 47.1081 28.9259 44.8378 52.9362C44.6486 55.583 43.8918 59.3642 40.6756 59.3642L40.2972 58.9861C31.4053 31.5727 52.9729 1.89058 81.9189 2.45775ZM106.513 82.0512C90.8108 93.0165 67.9189 91.6931 53.5405 79.0262C58.2702 78.27 63.3783 74.867 66.5945 71.842C70.1891 68.628 73.9729 64.8469 78.7026 64.0907C91.5675 62.9563 97.4324 77.3247 108.405 80.5387C107.838 81.1059 107.081 81.673 106.513 82.0512ZM110.676 78.8372C98.5675 76.1904 92.7027 60.3095 78.3243 62.011C68.2972 63.7125 61.4864 77.5138 51.081 76.9466C46.7297 72.5983 43.3243 67.4937 41.2432 61.822C53.9189 58.2299 37.081 41.7818 69.054 37.6225C76.2432 36.1101 85.3243 36.1101 88.5405 27.2243C90.8108 19.0949 80.4053 12.6669 83.4324 4.72645L85.1351 2.83587C96.6756 3.78116 107.081 9.07478 114.27 17.2043C118.811 23.8213 119 30.0602 110.297 32.3289C102.54 34.9757 96.6756 42.9162 100.649 50.1004C106.135 58.4189 116.919 52.9362 123.351 59.5533C121.081 66.9265 116.54 73.5435 110.676 78.8372Z" fill="#273664"/>
<path d="M68.1084 141.226C72.649 143.684 72.649 143.495 68.1084 145.952C67.9192 145.952 66.2165 149.166 66.2165 149.356C64.8922 151.057 63.7571 146.331 63.0003 145.952C62.0544 145.196 58.2706 144.062 59.9733 142.928C60.1625 142.739 63.3787 141.226 63.3787 141.037C64.1355 140.092 65.2706 136.311 66.4057 138.012C66.4057 138.012 67.9192 141.226 68.1084 141.226Z" fill="white"/>
<path d="M65.4597 150.679C63.9461 150.868 63.0002 147.654 62.2434 146.709C61.2975 145.952 58.2705 145.196 58.4597 143.684C58.2705 142.171 61.4867 141.226 62.4326 140.47C63.1894 139.525 63.9461 136.5 65.4597 136.689C66.9732 136.5 67.9191 139.714 68.6759 140.659C69.6218 141.415 72.6488 142.171 72.6488 143.873C72.838 145.385 69.6218 146.331 68.6759 147.087C67.9191 147.654 67.1624 150.679 65.4597 150.679ZM60.5407 143.495L63.1894 145.007C63.9461 145.196 64.8921 147.843 65.2705 148.41C65.6488 147.843 66.784 145.196 67.3515 145.007L70.1894 143.495L67.5407 141.982C66.784 141.793 65.838 139.146 65.4597 138.579L63.9461 141.226C63.757 142.171 61.2975 143.117 60.5407 143.495Z" fill="#273664"/>
<path d="M332.973 160.132C337.514 162.59 337.514 162.4 332.973 164.858C332.784 164.858 331.081 168.072 331.081 168.261C329.757 169.963 328.622 165.236 327.865 164.858C326.919 164.102 323.135 162.968 324.838 161.833C325.027 161.644 328.243 160.132 328.243 159.943C329 158.997 330.135 155.216 331.27 156.918C331.081 156.918 332.595 160.132 332.973 160.132Z" fill="white"/>
<path d="M330.324 169.396C328.811 169.585 327.865 166.371 327.108 165.426C326.162 164.669 323.135 163.913 323.324 162.401C323.135 160.888 326.351 159.943 327.297 159.187C328.054 158.241 328.811 155.216 330.324 155.405C331.838 155.216 332.784 158.43 333.541 159.376C334.487 160.132 337.514 160.888 337.514 162.59C337.703 164.102 334.487 165.047 333.541 165.804C332.595 166.56 331.838 169.585 330.324 169.396ZM325.405 162.401C325.973 162.779 328.622 163.913 328.811 164.48L330.324 167.127L331.838 164.48C332.027 163.724 334.676 162.779 335.243 162.401C335.243 162.401 332.595 160.888 332.405 160.888C331.649 160.699 330.703 158.052 330.324 157.485C329.946 158.052 328.811 160.699 328.243 160.888C328.054 160.888 325.405 162.401 325.405 162.401Z" fill="#273664"/>
<path d="M138.297 336.901C142.838 339.359 142.838 339.17 138.297 341.628C138.108 341.628 136.405 344.842 136.405 345.031C135.081 346.732 133.946 342.006 133.189 341.628C132.243 340.872 128.46 339.737 130.162 338.603C130.351 338.414 133.568 336.901 133.568 336.712C134.324 335.767 135.46 331.986 136.595 333.687C136.595 333.876 138.108 336.901 138.297 336.901Z" fill="white"/>
<path d="M135.649 346.354C134.135 346.543 133.189 343.329 132.432 342.384C131.486 341.628 128.459 340.872 128.649 339.359C128.459 337.847 131.676 336.901 132.622 336.145C133.378 335.2 134.135 332.175 135.649 332.364C137.162 332.175 138.108 335.389 138.865 336.334C139.811 337.09 142.838 337.847 142.838 339.548C143.027 341.061 139.811 342.006 138.865 342.762C138.108 343.329 137.351 346.543 135.649 346.354ZM130.73 339.359L133.378 340.872C134.135 341.061 135.081 343.707 135.459 344.275L136.973 341.628C137.162 340.872 139.811 339.926 140.378 339.548L137.73 338.036C136.973 337.847 136.027 335.2 135.649 334.633C135.27 335.2 134.135 337.847 133.568 338.036C133.568 337.847 130.73 339.359 130.73 339.359Z" fill="#273664"/>
<path d="M262.973 326.125H258.243V321.398C258.243 320.831 257.865 320.453 257.297 320.453C256.73 320.453 256.351 320.831 256.351 321.398V326.125H251.622C251.054 326.125 250.676 326.503 250.676 327.07C250.676 327.637 251.054 328.015 251.622 328.015H256.351V332.742C256.351 333.309 256.73 333.687 257.297 333.687C257.865 333.687 258.243 333.309 258.243 332.742V328.015H262.973C264.297 328.015 264.297 326.125 262.973 326.125Z" fill="#273664"/>
<path d="M6.62162 194.352H4.72973C4.72973 193.595 5.10811 191.516 3.78378 191.516C2.45946 191.516 2.83784 193.595 2.83784 194.352C2.08108 194.352 0 193.973 0 195.297C0 196.62 2.08108 196.242 2.83784 196.242C2.83784 196.998 2.45946 199.078 3.78378 199.078C5.10811 199.078 4.72973 196.998 4.72973 196.242H6.62162C7.94595 196.242 7.94595 194.352 6.62162 194.352Z" fill="#273664"/>
<path d="M182.946 97.9315C182.946 103.603 174.433 103.603 174.433 97.9315C174.433 92.2598 182.946 92.2598 182.946 97.9315Z" fill="white"/>
<path d="M178.784 103.225C171.973 103.036 171.973 92.8271 178.784 92.8271C185.595 92.8271 185.595 103.036 178.784 103.225ZM178.784 94.5287C174.433 94.5287 174.433 101.146 178.784 101.146C183.135 101.335 183.135 94.7177 178.784 94.5287Z" fill="#273664"/>
<path d="M52.4051 239.158C52.4051 244.83 43.8916 244.83 43.8916 239.158C43.8916 233.676 52.4051 233.676 52.4051 239.158Z" fill="white"/>
<path d="M48.0539 244.452C41.2431 244.263 41.2431 234.054 48.0539 234.054C55.0539 234.054 55.0539 244.452 48.0539 244.452ZM48.0539 235.944C43.7026 235.944 43.7026 242.561 48.0539 242.561C52.4053 242.561 52.4053 235.944 48.0539 235.944Z" fill="#273664"/>
<path d="M200.162 271.298C200.162 276.97 191.648 276.97 191.648 271.298C191.648 265.815 200.162 265.815 200.162 271.298Z" fill="white"/>
<path d="M195.811 276.592C189 276.402 189 266.193 195.811 266.193C202.811 266.193 202.811 276.402 195.811 276.592ZM195.811 268.084C191.459 268.084 191.459 274.701 195.811 274.701C200.351 274.701 200.351 268.084 195.811 268.084Z" fill="#273664"/>
<path d="M73.2159 298.901L57.8916 269.408C55.6213 265.059 55.2429 262.98 52.0267 260.9C50.1348 259.766 46.5402 259.009 45.0267 259.577C44.4591 259.766 44.0808 259.955 43.5132 260.333L27.2429 277.348C25.7294 279.05 25.351 281.318 26.297 283.398L45.4051 320.264C45.7835 320.831 46.1618 321.399 46.7294 321.588C46.5402 321.966 46.1618 322.155 47.6754 322.722C51.27 324.234 55.2429 324.045 59.2159 319.886L71.8916 306.274C73.9727 304.383 74.351 301.358 73.2159 298.901Z" fill="white"/>
<path d="M73.9728 298.523L58.6485 269.03C56.7566 265.438 56.189 262.413 52.5944 260.144C50.5133 258.821 46.7296 258.064 44.6485 258.631C43.8917 257.686 27.2431 276.214 26.4863 276.592C24.5944 278.483 24.216 281.318 25.5404 283.776L44.6485 320.642C44.8377 321.21 45.216 321.588 45.7836 321.966C45.7836 322.911 46.5404 323.1 47.4863 323.667C52.216 325.558 56.3782 324.613 60.162 320.453L72.8377 306.841C74.9187 304.762 75.4863 301.359 73.9728 298.523ZM27.0539 283.02C26.2971 281.318 26.4863 279.428 27.8106 278.104L44.0809 261.089C44.4593 260.711 45.216 260.333 45.7836 260.522C46.3512 260.522 46.9188 260.9 47.2971 261.467L66.9728 299.09C67.7296 300.413 67.3512 302.115 66.4052 303.249L50.135 320.264C49.189 321.399 47.1079 321.21 46.3512 319.697L27.0539 283.02ZM71.3242 305.518L58.6485 319.13C55.9998 321.966 53.162 323.1 50.3242 322.344C50.7025 322.155 51.0809 321.777 51.4593 321.588L67.7296 304.573C69.4323 302.871 69.8106 300.413 68.6755 298.145L49.189 260.711C53.9187 261.656 55.0539 265.816 57.135 269.786L72.4593 299.279C73.4052 301.548 73.0269 304.005 71.3242 305.518ZM49.9458 278.483L37.2701 291.528C36.5133 292.284 35.189 292.095 34.8106 291.149L29.8917 281.697C29.3242 280.751 29.5133 279.428 30.2701 278.672L43.135 265.438C43.5133 265.059 43.8917 264.87 44.4593 265.059C45.0269 265.059 45.4052 265.438 45.5944 265.816L50.5133 275.269C51.0809 276.403 50.8917 277.537 49.9458 278.483ZM41.9998 298.334C39.162 300.791 37.6485 296.065 39.7296 294.174C42.5674 291.717 44.0809 296.443 41.9998 298.334ZM44.4593 292.473C43.135 290.393 46.162 285.856 48.2431 288.881C49.5674 290.96 46.3512 295.498 44.4593 292.473ZM49.9458 286.99C48.6215 284.911 51.6485 280.373 53.7296 283.398C55.0539 285.289 52.0269 289.826 49.9458 286.99ZM44.8377 303.627C41.9998 306.085 40.4863 301.359 42.5674 299.468C43.5133 298.523 44.8377 298.523 45.5944 299.657C46.162 300.791 45.7836 302.493 44.8377 303.627ZM48.0539 293.796C50.8917 291.338 52.4052 296.065 50.3242 297.956C49.3782 298.901 48.0539 298.901 47.2971 297.766C46.7296 296.632 46.9187 294.931 48.0539 293.796ZM53.5404 288.314C56.3782 285.856 57.8917 290.582 55.8106 292.473C54.8647 293.418 53.5404 293.418 52.7836 292.284C52.216 290.96 52.4052 289.259 53.5404 288.314ZM47.4863 308.732C44.6485 311.19 43.135 306.463 45.216 304.573C46.162 303.627 47.4863 303.627 48.2431 304.762C48.8106 306.085 48.6215 307.787 47.4863 308.732ZM52.9728 303.249C50.135 305.707 48.6215 300.98 50.7025 299.09C51.6485 298.145 52.9728 298.145 53.7296 299.279C54.2971 300.413 54.1079 302.304 52.9728 303.249ZM58.4593 297.577C55.6214 300.035 54.1079 295.309 56.189 293.418C57.135 292.473 58.4593 292.473 59.216 293.607C59.7836 294.931 59.5944 296.632 58.4593 297.577ZM50.8917 310.055C52.216 312.135 49.189 316.672 47.1079 313.647C45.9728 311.568 48.9998 307.03 50.8917 310.055ZM56.3782 304.573C57.7025 306.652 54.6755 311.19 52.5944 308.165C51.4593 306.085 54.4863 301.548 56.3782 304.573ZM62.0539 298.901C60.162 296.065 56.5674 300.413 58.4593 302.493C60.3512 305.518 63.5674 300.98 62.0539 298.901ZM60.5404 301.926C58.4593 303.627 58.4593 299.09 60.3512 298.901C61.6755 299.279 61.4863 301.169 60.5404 301.926ZM60.5404 303.06H60.3512C60.3512 303.249 60.5404 303.249 60.5404 303.06ZM60.162 303.249C60.162 303.249 59.9728 303.249 60.162 303.249C59.9728 303.249 60.162 303.249 60.162 303.249Z" fill="#273664"/>
<path d="M279.054 57.4736C278.108 56.5283 277.351 55.9612 276.595 55.2049C276.405 54.2596 275.46 53.6925 274.514 54.0706L224 68.628C222.676 69.0062 221.541 70.1405 221.162 71.4639L215.297 95.0962C215.108 95.6633 215.297 96.2305 215.676 96.6086C216.622 97.1758 218.514 100.768 220.595 100.39L271.108 85.8323C272.432 85.4542 273.378 84.3199 273.757 83.1855L279.811 59.1751C279.811 58.4189 279.432 57.8517 279.054 57.4736Z" fill="white"/>
<path d="M279.811 56.7174C278.108 55.394 276.594 52.5581 274.135 53.1253L223.621 67.6828C221.919 68.2499 220.594 69.5734 220.216 71.2749L214.351 94.9071C214.162 95.4743 214.351 95.8524 214.351 96.4196C214.162 97.3649 215.108 97.743 215.675 98.4992C216.811 99.6336 218.703 102.28 220.784 101.524L271.297 86.9667C273 86.3995 274.324 85.0761 274.703 83.3746L280.757 59.3642C280.946 58.4189 280.567 57.4736 279.811 56.7174ZM216.243 95.2852L222.108 71.653C222.297 70.5186 223.243 69.7624 224.189 69.3843L274.703 54.8268C275.081 54.8268 275.459 54.8268 275.648 55.2049V55.5831L269.594 79.4044C269.405 80.3497 268.648 81.1059 267.513 81.484C267.135 81.484 217.189 96.0415 216.811 96.0415H216.621C216.243 96.0415 216.054 95.8524 216.243 95.2852ZM272.432 82.8074C272.243 83.7527 271.486 84.5089 270.54 84.698L220.027 99.2555C219.648 99.4445 218.703 98.3102 218.324 97.932L268.081 83.7527C269.784 83.3746 270.919 82.0512 271.297 80.3497L276.973 57.4736C277.351 57.8518 278.297 58.4189 278.297 58.9861C278.486 58.797 272.432 82.8074 272.432 82.8074ZM220.973 92.2603L226.27 71.2749L268.459 59.1752L263.162 80.1606L220.973 92.2603Z" fill="#273664"/>
<path d="M338.459 318.752C339.973 312.891 348.865 268.462 348.865 268.462C349.243 266.572 348.675 264.681 347.162 263.358L295.135 216.093C292.108 213.824 286.243 214.959 285.108 219.118C283.973 223.277 273.946 272.81 273.946 272.81C273.567 274.512 274.135 276.403 275.459 277.726C275.459 277.726 322.378 319.319 325.216 322.344C329.756 327.07 336.946 324.423 338.459 318.752Z" fill="white"/>
<path d="M330.702 325.747C328.432 325.747 326.351 324.801 324.648 323.1C321.811 320.075 275.27 278.86 274.892 278.482C273.378 276.97 272.621 274.89 273 272.81C273.378 270.731 283.027 223.088 284.351 218.929C285.486 214.391 292.297 212.501 295.892 215.337L348.108 262.412C349.811 263.925 350.567 266.193 350 268.462C349.621 270.353 341.108 313.08 339.594 318.94C338.459 322.911 334.675 325.747 330.702 325.747ZM291.54 215.904C289.27 215.904 286.621 217.227 286.243 219.496C285.108 223.655 275.081 272.621 275.081 273.188C274.702 274.701 275.27 276.213 276.405 277.159C278.297 278.86 323.324 318.751 326.351 321.776C329.946 325.747 336.756 323.478 337.892 318.373C339.405 312.702 348.297 268.462 348.297 268.084C348.675 266.571 348.108 264.87 346.973 263.925L294.946 216.849C293.811 216.282 292.675 215.904 291.54 215.904ZM288.135 272.432L329.189 309.677C329.567 310.055 330.324 309.866 330.513 309.299L339.784 265.815C339.784 265.437 339.783 265.248 339.594 264.87L297.973 227.247C297.594 226.869 297.027 227.058 296.838 227.626L287.567 270.731C287.378 271.487 287.567 272.054 288.135 272.432ZM330.513 319.697C330.702 319.319 330.702 318.941 330.513 318.751C311.216 302.114 282.081 276.402 280.946 274.323C280.567 272.054 287.378 239.914 292.108 218.74C292.297 217.795 290.973 217.416 290.784 218.362C288.702 227.247 278.675 272.243 279.621 274.701C280.378 277.159 321.432 312.702 329.567 319.697C329.756 319.886 330.324 319.886 330.513 319.697Z" fill="#273664"/>
</svg>
