<svg width="500" height="446" viewBox="0 0 500 446" fill="none" xmlns="http://www.w3.org/2000/svg">
<path d="M497.964 318.789L475.289 306C475.58 306.872 475.87 307.744 476.161 308.616H476.452C476.452 312.685 476.161 311.813 476.161 319.661C476.161 322.277 475.289 325.184 472.672 326.637L290.396 431.856C285.744 434.472 279.93 434.472 274.697 431.856L131.958 350.471C129.632 349.018 128.76 346.692 128.76 344.076C128.76 343.495 128.76 343.204 128.76 342.623L122.073 346.692C119.748 348.146 119.748 351.343 122.073 352.506L190.1 392.617L206.671 402.499L274.116 442.319C281.093 446.098 289.814 446.098 296.791 442.029L497.964 325.184C500.581 323.73 500.581 319.952 497.964 318.789Z" fill="#CFDCF6"/>
<path d="M476.161 308.325C475.871 306.291 474.998 304.256 472.673 302.803L330.805 221.999C325.863 219.093 319.758 219.093 314.816 221.999L132.249 327.218C130.214 328.381 129.051 330.415 129.051 332.45H128.76C128.76 338.844 128.76 337.682 128.76 343.786C128.76 346.402 129.632 348.727 131.958 350.18L274.698 431.565C279.64 434.181 285.454 434.181 290.396 431.565L472.673 326.346C475.289 324.893 476.161 321.986 476.161 319.37C476.161 311.813 476.452 312.685 476.161 308.325Z" fill="white"/>
<path d="M477.615 307.454C477.033 305.128 475.871 302.803 473.545 301.35L331.677 220.546C326.154 217.349 319.467 217.349 313.944 220.546L131.377 325.765C129.051 326.928 127.888 329.253 127.307 331.578C127.016 331.869 127.016 332.16 127.016 332.45V343.786C127.016 347.274 128.469 350.181 131.086 351.634L273.826 433.019C276.442 434.472 279.64 435.344 282.547 435.344C285.454 435.344 288.361 434.472 290.978 433.019L473.254 327.8C476.161 326.347 477.615 323.44 477.615 319.371C477.615 314.72 477.615 313.267 477.615 311.814C477.615 310.942 477.615 310.07 477.615 308.035C477.906 308.035 477.906 307.744 477.615 307.454ZM133.412 328.672L315.979 223.453C318.305 222.29 320.63 221.418 323.247 221.418C325.863 221.418 328.189 222 330.514 223.453L472.382 304.256C472.673 304.256 472.673 304.547 472.964 304.547C474.417 305.71 475.289 307.163 475.289 308.907C475.289 308.907 475.289 308.907 475.289 309.198C475.289 310.942 474.126 312.686 472.673 313.557L290.396 418.776C286.035 421.102 280.803 421.102 276.733 418.776L133.993 337.392C132.539 336.52 131.667 335.066 131.667 333.613C131.667 333.322 131.667 333.322 131.667 333.032C130.795 331.288 131.667 329.834 133.412 328.672C133.121 328.672 133.121 328.672 133.412 328.672ZM474.708 319.661C474.708 321.696 474.126 324.312 472.091 325.475L289.815 430.693C285.454 433.019 280.221 433.019 275.861 430.693L133.121 349.309C131.086 348.146 130.795 345.53 130.795 344.367V339.717C131.086 340.008 131.667 340.298 131.958 340.589L274.698 421.974C277.314 423.427 280.221 424.299 283.128 424.299C286.035 424.299 288.943 423.427 291.559 421.974L473.836 316.755C474.126 316.464 474.417 316.173 474.999 315.883C474.708 316.755 474.708 317.917 474.708 319.661ZM291.268 403.953C289.815 403.953 288.361 403.662 287.198 402.79L161.901 330.416C160.739 329.834 159.866 328.381 159.866 327.218C159.866 325.765 160.448 324.603 161.611 324.021L321.793 231.591C323.247 230.719 324.991 230.719 326.445 231.591L453.195 304.547C454.649 305.419 455.23 306.872 455.23 308.326C455.23 309.779 454.358 310.942 453.195 311.814L295.048 402.79C293.885 403.662 292.431 403.953 291.268 403.953ZM324.119 234.207C323.828 234.207 323.828 234.207 323.537 234.498L163.355 326.637C163.064 326.928 163.064 326.928 163.064 327.218C163.064 327.218 163.064 327.509 163.355 327.8L288.943 400.174C290.396 401.046 292.14 401.046 293.303 400.174L451.451 309.198C451.742 308.907 451.742 308.616 451.742 308.616C451.742 308.616 451.741 308.035 451.16 307.744L324.991 234.498C324.7 234.207 324.41 234.207 324.119 234.207ZM304.06 275.19C302.025 276.353 299.118 276.353 297.083 275.19C295.048 274.028 295.048 272.284 297.083 271.121C299.118 269.959 302.025 269.959 304.06 271.121C306.095 272.284 306.095 274.028 304.06 275.19ZM313.362 276.644C311.327 275.481 308.42 275.481 306.385 276.644C304.35 277.806 304.35 279.55 306.385 280.713C308.42 281.876 311.327 281.876 313.362 280.713C315.397 279.55 315.397 277.806 313.362 276.644ZM322.956 282.166C320.921 281.004 318.014 281.004 315.979 282.166C313.944 283.329 313.944 285.073 315.979 286.235C318.014 287.398 320.921 287.398 322.956 286.235C324.991 285.073 324.7 283.038 322.956 282.166ZM337.201 290.305C335.166 289.142 332.259 289.142 330.224 290.305C328.189 291.467 328.189 293.211 330.224 294.374C332.259 295.537 335.166 295.537 337.201 294.374C338.945 293.211 338.945 291.467 337.201 290.305ZM346.504 295.827C344.469 294.665 341.562 294.665 339.527 295.827C337.492 296.99 337.492 298.734 339.527 299.896C341.562 301.059 344.469 301.059 346.504 299.896C348.248 298.443 348.248 296.699 346.504 295.827ZM355.806 301.059C353.771 299.896 350.864 299.896 348.829 301.059C346.794 302.222 346.794 303.966 348.829 305.128C350.864 306.291 353.771 306.291 355.806 305.128C357.841 303.966 357.841 302.222 355.806 301.059ZM370.051 309.198C368.016 308.035 365.109 308.035 363.074 309.198C361.039 310.36 361.039 312.104 363.074 313.267C365.109 314.429 368.016 314.429 370.051 313.267C372.086 312.104 372.086 310.36 370.051 309.198ZM379.354 314.72C377.319 313.557 374.412 313.557 372.377 314.72C370.342 315.883 370.342 317.627 372.377 318.789C374.412 319.952 377.319 319.952 379.354 318.789C381.389 317.627 381.389 315.883 379.354 314.72ZM388.657 320.243C386.622 319.08 383.715 319.08 381.68 320.243C379.645 321.405 379.645 323.149 381.68 324.312C383.715 325.475 386.622 325.475 388.657 324.312C390.692 323.149 390.692 321.115 388.657 320.243ZM358.132 359.482C358.132 359.772 357.841 359.772 357.551 359.772H357.26L316.56 336.229L295.629 348.146L335.457 371.108C335.747 371.399 336.038 371.689 335.747 371.98C335.747 372.271 335.457 372.271 335.166 372.271H334.875L294.175 348.727L273.244 360.644L313.072 383.606C313.362 383.897 313.653 384.188 313.362 384.478C313.362 384.769 313.072 384.769 312.781 384.769H312.49L271.791 361.226L250.278 373.724H249.987C249.696 373.724 249.406 373.724 249.406 373.433C249.115 373.143 249.406 372.561 249.696 372.561L270.628 360.644L237.777 342.333C237.487 342.042 237.196 341.751 237.487 341.461C237.777 341.17 238.068 340.879 238.359 341.17L271.791 360.354L292.722 348.437L255.22 326.637C254.929 326.347 254.639 326.056 254.929 325.765C255.22 325.475 255.511 325.184 255.801 325.475L293.885 347.565L314.816 335.648L277.314 313.848C277.023 313.558 276.733 313.267 277.023 312.976C277.314 312.686 277.605 312.395 277.896 312.686L357.551 358.61C358.132 358.61 358.423 358.9 358.132 359.482ZM249.987 326.637C249.696 326.347 249.406 326.056 249.115 326.347L234.87 334.485C234.579 334.776 234.289 335.066 234.579 335.357C234.579 335.648 234.87 335.648 235.161 335.648H235.452L249.696 327.509C249.987 327.218 249.987 326.928 249.987 326.637ZM215.392 370.236L218.009 371.689L214.811 373.143H214.52L211.904 371.689L215.392 370.236ZM223.823 371.98C223.823 374.887 220.044 376.921 215.102 376.921C210.45 376.921 206.38 374.596 206.38 371.98C206.38 369.074 210.16 367.039 215.102 367.039C220.044 367.039 223.823 369.074 223.823 371.98ZM220.044 371.399C220.044 371.108 219.753 371.108 219.753 371.108L216.265 369.074C215.974 368.783 215.392 368.783 214.811 369.074L210.741 370.817C210.741 370.817 210.45 370.817 210.45 371.108C210.16 371.399 210.16 371.98 210.16 372.271C210.16 372.561 210.45 372.561 210.45 372.561L213.939 374.596H214.23H215.102H215.392L219.462 372.852C219.462 372.852 219.753 372.852 219.753 372.561C220.044 372.271 220.335 371.98 220.044 371.399Z" fill="#273664"/>
<path d="M279.059 295.827C278.477 292.92 275.57 290.304 271.5 288.27C266.267 285.654 262.197 285.072 253.767 289.432C249.406 291.467 247.08 296.117 230.219 292.339C219.172 289.723 211.613 285.654 203.473 284.491C185.158 269.958 176.146 265.017 165.39 262.11C147.657 257.46 132.54 267.052 126.435 270.83C90.3862 292.048 76.1413 297.861 38.9301 317.336L40.093 317.045L38.6394 317.917C47.0701 351.633 62.1871 382.734 82.8277 409.475L82.2463 409.765L82.8277 409.475C83.1184 409.765 83.1184 409.765 83.1184 410.056L137.772 379.537H138.063L146.784 378.084L152.599 377.212C153.471 377.212 154.634 376.921 155.797 376.921C156.959 376.921 158.122 376.921 159.285 376.921C168.588 376.921 175.856 376.34 182.251 374.596C190.101 372.561 196.206 369.073 201.729 364.132C205.218 360.935 213.067 358.609 217.137 358.319C225.568 357.447 231.672 350.18 230.8 341.751C229.928 333.322 221.788 328.671 213.358 329.543C211.613 329.543 209.869 329.834 207.834 330.125L208.997 322.568L209.869 319.661C216.846 320.242 223.823 321.405 227.893 321.696C248.825 324.311 260.744 318.789 268.302 314.138C274.407 310.941 280.221 302.221 279.059 295.827Z" fill="white"/>
<path d="M176.437 326.056C179.635 321.115 193.299 315.592 205.799 319.371C208.125 320.243 209.869 328.672 205.218 330.125C198.241 332.45 186.322 337.973 186.322 337.973C186.322 337.973 177.6 341.751 175.274 337.101C173.821 334.194 174.984 328.672 176.437 326.056Z" fill="#CFDCF6"/>
<path d="M280.512 295.536C279.931 292.339 277.024 289.142 272.372 287.107C266.849 284.491 262.197 283.91 253.185 288.27C252.313 288.56 251.732 289.142 250.86 289.723C247.662 291.758 243.883 294.083 230.8 291.176C225.858 290.014 221.498 288.56 217.428 287.107C212.776 285.363 208.416 283.91 204.055 283.328C186.612 269.377 177.309 264.145 165.681 260.948C148.238 256.297 132.83 265.308 126.144 269.377L125.272 269.958C101.724 283.91 87.77 290.886 70.0365 299.896C61.0245 304.547 50.5588 309.778 37.7675 316.464C36.8953 316.754 36.6046 317.917 37.186 318.498C37.4767 319.08 38.0582 319.37 38.6396 319.37C38.9303 319.37 39.221 319.37 39.5117 319.08C52.3031 312.394 62.7687 307.163 71.7808 302.512C89.5143 293.502 103.468 286.526 127.016 272.574L127.888 271.993C133.993 268.214 148.529 259.785 164.809 264.145C165.972 264.436 167.134 264.726 168.297 265.017C164.518 265.308 159.867 266.761 154.052 269.377C153.471 269.377 153.18 270.249 153.471 270.83C153.762 271.411 154.052 271.702 154.634 271.702C154.925 271.702 154.925 271.702 155.215 271.702C165.099 267.052 171.786 267.052 176.147 268.214C178.472 269.377 181.089 270.83 183.996 272.574C180.217 272.574 174.984 273.737 167.716 276.934C167.134 277.225 166.844 278.097 167.134 278.678C167.425 279.259 167.716 279.55 168.297 279.55C168.588 279.55 168.588 279.55 168.879 279.55C180.798 274.027 186.612 274.899 190.391 276.934C192.717 278.678 195.624 280.713 198.531 283.038C194.171 283.328 189.229 284.2 183.414 287.107C182.542 287.398 182.252 288.56 182.542 289.142C182.833 290.014 183.996 290.304 184.577 290.014C191.845 286.526 197.369 285.944 202.601 286.526C204.055 286.816 205.509 287.107 207.253 287.398C210.16 287.979 213.067 289.142 216.265 290.304C220.335 291.758 224.696 293.211 229.928 294.374C240.103 296.699 245.336 296.117 248.825 294.664C253.767 298.733 259 301.059 263.651 301.059C264.814 301.059 265.977 301.059 267.14 300.768C270.047 300.187 274.698 298.443 277.314 295.827C277.605 296.117 277.605 296.408 277.605 296.989C278.768 302.512 273.244 310.36 267.721 313.848C259.872 318.498 248.534 323.44 228.184 321.114C226.73 320.824 224.696 320.824 222.37 320.533C210.741 319.08 193.299 316.754 185.74 319.661C184.868 319.952 184.577 320.824 184.868 321.696C185.159 322.568 186.031 322.858 186.903 322.568C190.973 321.114 199.113 321.114 207.253 321.986L207.543 322.277C207.834 323.439 208.125 326.637 206.381 329.834C199.404 330.997 191.264 333.613 182.833 339.135C182.252 339.716 181.961 339.716 178.182 337.101C177.6 336.519 176.728 335.938 175.565 335.357C174.693 334.775 173.821 335.066 173.239 335.938C172.658 336.81 172.949 337.682 173.821 338.263C174.693 338.844 175.565 339.426 176.147 340.007C179.926 342.623 181.961 343.786 184.577 342.042C195.334 334.775 205.799 333.031 213.648 332.45C220.626 331.869 228.475 335.647 229.347 343.204C229.638 346.692 228.475 350.471 226.149 353.087C223.823 355.993 220.626 357.447 217.137 358.028C215.102 358.028 212.486 358.9 209.578 359.772C206.09 360.935 202.892 362.388 200.857 364.423C195.624 369.073 189.519 372.561 181.961 374.305C176.147 375.758 168.879 376.63 159.285 376.63C158.704 376.63 157.832 376.63 157.25 376.63C156.669 376.63 156.378 376.63 155.797 376.63C155.215 376.63 154.634 376.63 154.052 376.63C145.622 377.212 138.063 378.084 134.284 380.409L81.665 409.475C80.7929 409.765 80.5022 410.928 81.0836 411.509C81.3743 412.091 81.9557 412.381 82.5372 412.381C82.8279 412.381 83.1186 412.381 83.4093 412.091L136.028 383.025C139.517 380.99 147.657 380.118 156.087 379.537C156.378 379.537 156.96 379.537 157.25 379.537C158.122 379.537 158.704 379.537 159.576 379.537C169.46 379.537 176.728 378.956 182.833 377.212C190.682 375.177 197.369 371.689 202.892 366.457C206.09 363.551 213.648 361.225 217.428 360.935C221.788 360.644 225.858 358.319 228.765 354.831C231.673 351.343 232.835 346.983 232.545 342.623C231.382 333.031 222.079 328.09 213.358 328.962C212.195 328.962 211.032 329.253 209.869 329.253C210.741 326.637 210.741 324.311 210.451 322.277C214.521 322.568 218.591 323.149 221.788 323.73C224.114 324.021 225.858 324.311 227.603 324.311C231.382 324.893 234.87 324.893 238.068 324.893C252.895 324.893 262.197 320.533 269.175 316.464C275.861 311.813 281.966 302.803 280.512 295.536ZM266.267 298.152C261.616 299.315 256.092 297.571 250.86 293.211C251.441 292.92 252.022 292.63 252.313 292.339C252.895 292.048 253.767 291.467 254.348 291.176C262.197 287.398 265.977 287.688 270.628 290.014C272.663 290.886 274.407 292.048 275.57 293.502C274.407 295.246 270.919 296.989 266.267 298.152ZM210.741 356.284C210.451 356.284 210.16 355.993 209.869 355.703C206.381 350.762 206.09 345.239 208.997 341.17C213.648 334.485 224.114 335.357 224.405 335.647C224.986 335.647 225.568 336.229 225.277 336.81C225.277 337.391 224.696 337.972 224.114 337.682C224.114 337.682 214.811 336.81 210.741 342.332C208.416 345.53 208.706 350.18 211.613 354.249C211.904 354.831 211.904 355.412 211.323 355.703C211.032 356.284 211.032 356.284 210.741 356.284Z" fill="#273664"/>
<path d="M120.621 303.966V312.104C120.621 322.859 106.376 331.578 88.933 331.578C71.4903 331.578 57.2454 322.859 57.2454 312.104V303.966C59.2803 316.173 72.9438 323.44 88.933 323.44C104.631 323.731 119.749 315.592 120.621 303.966Z" fill="#CFDCF6"/>
<path d="M89.2235 323.731C106.724 323.731 120.911 315.012 120.911 304.256C120.911 293.501 106.724 284.782 89.2235 284.782C71.7229 284.782 57.5359 293.501 57.5359 304.256C57.5359 315.012 71.7229 323.731 89.2235 323.731Z" fill="white"/>
<path d="M133.993 342.042C130.795 333.032 125.853 325.765 120.039 320.534C121.783 317.918 122.655 315.302 122.655 312.395V304.257C122.655 292.63 107.829 283.329 89.2235 283.329C70.6179 283.329 56.0823 292.63 56.0823 304.257V312.395C56.0823 324.021 70.9086 333.323 89.5142 333.323C89.8049 333.323 89.8049 333.323 90.0956 333.323C102.596 342.042 107.829 358.901 109.283 364.714C112.771 378.956 111.899 390.873 108.701 393.198C108.12 393.489 108.12 394.361 108.41 394.942C108.701 395.233 108.992 395.524 109.573 395.524C109.864 395.524 110.155 395.524 110.445 395.233C115.097 391.745 115.678 378.375 111.899 363.842C108.411 350.181 102.015 339.426 94.1656 332.741C104.631 331.869 113.643 327.8 118.585 322.277C125.853 328.963 129.923 337.682 131.667 342.624C137.191 357.447 136.9 373.724 131.377 379.537C130.795 380.119 130.795 380.991 131.377 381.281C131.667 381.572 131.958 381.572 132.249 381.572C132.54 381.572 132.83 381.572 133.121 381.281C139.226 375.468 139.807 358.029 133.993 342.042ZM89.2235 286.526C105.794 286.526 119.458 294.665 119.458 304.257C119.458 308.616 116.841 312.395 112.48 315.592C111.608 316.174 110.736 316.755 109.864 317.336C104.341 320.243 97.0727 322.277 89.2235 322.277C72.6529 322.277 58.9894 314.139 58.9894 304.547C58.9894 294.955 72.6529 286.526 89.2235 286.526ZM89.8049 330.125C89.5142 330.125 89.5142 330.125 89.2235 330.125C86.8978 330.125 84.8628 329.835 82.8278 329.544C70.0365 327.8 59.8615 321.115 59.2801 312.976C64.5129 319.952 76.1414 324.893 89.2235 324.893C98.5263 324.893 106.957 322.277 113.062 318.499C113.934 317.918 114.515 317.336 115.388 316.755C116.841 315.592 118.295 314.139 119.458 312.686C119.167 314.43 118.585 316.464 117.423 317.918C116.841 318.499 116.55 319.371 115.678 319.952C110.736 326.347 100.852 330.125 89.8049 330.125ZM102.306 299.897C102.306 300.478 102.015 300.769 101.724 301.059L89.8049 303.966C89.8049 303.966 89.8049 303.966 89.5142 303.966H89.2235L76.4321 297.571C75.8507 297.281 75.8507 296.699 76.1414 296.409C76.4321 295.827 77.0136 295.827 77.3043 296.118L89.8049 302.513L101.433 299.897C101.724 299.025 102.306 299.315 102.306 299.897Z" fill="#273664"/>
<path d="M170.259 7.27173C192.643 7.56239 213.284 13.3756 230.436 23.5487C233.343 25.2926 236.25 27.0366 238.867 28.7805C241.483 30.5245 243.809 32.8498 246.134 34.8844L246.425 35.1751C265.903 52.0333 277.822 75.2861 277.531 101.155C277.241 126.442 265.031 149.114 245.844 165.681C245.844 166.263 245.553 167.135 245.553 167.716C245.553 182.54 256.6 194.747 271.136 195.038C264.159 197.944 256.019 199.688 248.169 199.398C234.215 199.398 221.715 193.875 211.54 185.737C198.167 190.678 183.631 193.294 168.224 193.294C108.337 192.713 60.3693 150.567 60.66 99.4108C61.8229 47.6734 110.663 6.69041 170.259 7.27173Z" fill="#CFDCF6"/>
<path d="M249.332 200.56C249.041 200.56 249.041 200.56 248.751 200.56C235.669 200.56 222.877 195.909 211.83 187.19C197.876 192.131 183.34 194.456 168.805 194.456C139.443 194.165 112.116 184.283 91.4753 166.262C70.8348 148.241 59.497 124.407 59.7877 99.1198C60.0784 73.8324 71.7069 50.2889 92.6382 32.5587C112.988 15.1191 140.315 5.52734 169.096 5.52734C169.386 5.52734 169.968 5.52734 170.258 5.52734C192.062 5.818 213.284 11.3405 231.308 22.0949C234.215 23.8389 237.122 25.5829 240.029 27.6175C242.646 29.3614 244.972 31.3961 247.297 33.7213C247.297 33.7213 247.588 33.7213 247.588 34.012C268.229 52.0329 279.566 75.867 279.276 101.154C278.985 125.57 267.938 148.823 247.588 166.553C247.588 166.843 247.588 167.425 247.588 167.715C247.588 181.667 258.054 193.003 271.717 193.293C272.589 193.293 273.171 193.875 273.171 194.456C273.171 195.037 272.88 195.909 272.298 196.2C265.031 199.107 256.891 200.56 249.332 200.56ZM212.121 183.702C212.412 183.702 212.702 183.702 212.993 183.992C223.459 192.712 235.959 197.072 248.46 197.363C253.984 197.363 259.507 196.781 264.74 195.037C252.821 191.84 244.099 180.504 244.39 167.134C244.39 166.553 244.39 165.681 244.681 165.1C244.681 164.809 244.972 164.228 245.262 164.228C265.031 147.079 276.078 124.698 276.368 100.864C276.659 76.739 265.612 53.7768 245.844 36.3373C245.844 36.3373 245.553 36.3373 245.553 36.0466C242.937 34.012 240.902 31.9774 238.285 30.2334C235.669 28.1988 232.762 26.4548 229.854 25.0015C212.412 14.5378 191.771 9.01526 170.549 9.01526C142.059 8.7246 115.023 18.0257 94.6732 35.1746C74.3233 52.3236 63.2762 74.995 62.9855 99.4104C62.6948 123.826 73.7419 146.788 93.5103 164.228C113.569 181.667 140.315 191.55 168.805 191.84C183.34 191.84 197.876 189.515 211.54 184.574C211.83 183.702 211.83 183.702 212.121 183.702Z" fill="#273664"/>
<path d="M215.319 60.1719C222.005 60.1719 227.238 65.4038 227.238 72.0889V120.92C227.238 127.605 222.005 132.837 215.319 132.837H127.814C121.128 132.837 115.895 127.605 115.895 120.92V72.0889C115.895 65.4038 121.128 60.1719 127.814 60.1719H148.746H215.319Z" fill="white"/>
<path d="M207.179 103.189C204.853 103.189 202.527 104.061 201.074 105.515C199.33 104.061 197.295 103.189 194.969 103.189C189.736 103.189 185.375 107.549 185.375 112.781C185.375 118.013 189.736 122.373 194.969 122.373C197.295 122.373 199.62 121.501 201.074 120.048C202.818 121.501 204.853 122.373 207.179 122.373C212.412 122.373 216.772 118.013 216.772 112.781C216.772 107.549 212.412 103.189 207.179 103.189ZM194.678 119.176C191.19 119.176 188.283 116.269 188.283 112.781C188.283 109.293 191.19 106.387 194.678 106.387C196.422 106.387 197.876 106.968 198.748 108.131C197.876 109.584 197.295 111.328 197.295 113.072C197.295 114.816 197.876 116.56 198.748 118.013C197.585 118.594 196.132 119.176 194.678 119.176ZM207.179 119.176C205.435 119.176 203.981 118.594 203.109 117.432C202.237 116.56 201.365 115.397 201.074 113.944C201.074 113.362 200.783 113.072 200.783 112.49C200.783 111.909 200.783 111.618 201.074 111.037C201.365 109.584 202.237 108.421 203.109 107.549C204.272 106.677 205.725 105.805 207.179 105.805C210.667 105.805 213.575 108.712 213.575 112.2C213.575 116.269 210.667 119.176 207.179 119.176ZM174.91 119.466H128.105C127.233 119.466 126.361 118.594 126.361 117.722C126.361 116.85 126.942 115.978 128.105 115.978H174.91C175.782 115.978 176.654 116.85 176.654 117.722C176.654 118.594 175.782 119.466 174.91 119.466ZM154.56 111.909H128.105C127.233 111.909 126.361 111.037 126.361 110.165C126.361 109.293 127.233 108.421 128.105 108.421H154.851C155.723 108.421 156.595 109.293 156.595 110.165C156.595 111.037 155.723 111.909 154.56 111.909ZM143.222 94.7602H128.105C127.233 94.7602 126.652 94.1789 126.652 93.3069V81.3898C126.652 80.5179 127.233 79.9365 128.105 79.9365H143.222C144.094 79.9365 144.676 80.5179 144.676 81.3898V93.3069C144.676 94.1789 144.094 94.7602 143.222 94.7602ZM129.559 91.5629H141.478V82.8431H129.559V91.5629ZM215.319 134.581H127.814C120.256 134.581 114.151 128.477 114.151 120.92V72.0887C114.151 64.5316 120.256 58.4277 127.814 58.4277H215.319C222.877 58.4277 228.982 64.5316 228.982 72.0887V120.92C228.982 128.477 222.877 134.581 215.319 134.581ZM127.814 61.9156C122 61.9156 117.349 66.5662 117.349 72.3794V121.21C117.349 127.023 122 131.674 127.814 131.674H215.319C221.133 131.674 225.784 127.023 225.784 121.21V72.0887C225.784 66.2755 221.133 61.625 215.319 61.625H127.814V61.9156Z" fill="#273664"/>
<path d="M293.52 47.3831C293.23 47.3831 292.648 47.0925 292.358 46.8018C291.776 46.2205 291.776 45.3485 292.358 44.7672L310.963 27.3276C311.545 26.7463 312.417 26.7463 312.998 27.3276C313.58 27.9089 313.58 28.7809 312.998 29.3622L294.393 46.8018C294.102 47.3831 293.811 47.3831 293.52 47.3831Z" fill="#273664"/>
<path d="M30.4261 83.7156H30.7169C31.2983 83.7156 31.8797 83.4249 32.1704 82.8436C32.4611 82.2623 32.1704 81.3903 31.2983 81.0997L6.87843 73.8332C6.29701 73.5425 5.42488 73.8332 5.13416 74.7051C4.84345 75.2865 5.13416 76.1584 6.0063 76.4491L30.4261 83.7156Z" fill="#273664"/>
<path d="M10.6576 133.418C10.9483 134.29 11.5297 134.581 12.1112 134.581C12.1112 134.581 12.4019 134.581 12.4019 134.29L36.8217 127.024C37.4031 126.733 37.9845 125.861 37.6938 125.28C37.4031 124.699 36.8217 124.117 35.9496 124.408L11.5297 131.674C10.9483 131.965 10.3669 132.546 10.6576 133.418Z" fill="#273664"/>
<path d="M37.6941 179.052C37.4034 179.052 36.8219 178.761 36.5312 178.471C35.9498 177.889 36.2405 177.017 36.8219 176.436L56.8811 160.74C57.4625 160.159 58.3347 160.45 58.9161 161.031C59.4975 161.612 59.2068 162.484 58.6254 163.066L38.5662 178.761C38.4209 178.761 38.2755 178.834 38.1301 178.907C37.9848 178.979 37.8394 179.052 37.6941 179.052Z" fill="#273664"/>
<path d="M306.312 87.4941C306.312 88.0754 307.184 88.6568 307.765 88.6568L333.057 84.5875C333.93 84.2969 334.22 83.7156 334.22 82.8436C333.93 81.9716 333.348 81.6809 332.476 81.6809L307.475 85.7502C306.603 86.0408 306.312 86.6222 306.312 87.4941Z" fill="#273664"/>
<path d="M329.278 135.744H329.569C330.15 135.744 330.732 135.453 331.022 134.581C331.022 133.709 330.732 133.128 329.86 132.837L305.149 127.605C304.277 127.605 303.695 127.896 303.405 128.768C303.405 129.64 303.695 130.221 304.568 130.512L329.278 135.744Z" fill="#273664"/>
</svg>
