<svg width="221" height="270" viewBox="0 0 221 270" fill="none" xmlns="http://www.w3.org/2000/svg">
<path d="M166.252 183.138L173.636 176.944C170.076 169.959 172.888 161.437 179.832 157.923C182.073 156.781 184.447 156.298 186.776 156.386C185.633 149.752 188.666 142.812 194.862 139.209C202.817 134.641 213.847 139.122 218.462 147.029L166.252 183.138ZM218.286 172.156C214.814 167.192 208.002 166.006 203.08 169.432C198.114 172.903 197.367 178.965 199.696 182.699" fill="white"/>
<path d="M166.253 184.676C165.813 184.676 165.374 184.5 165.066 184.148C164.539 183.49 164.583 182.523 165.242 181.996L171.746 176.549C170.296 173.078 170.164 169.301 171.35 165.698C172.669 161.701 175.438 158.494 179.173 156.561C181.019 155.639 183.04 155.068 185.106 154.892C184.623 148.039 188.094 141.362 194.159 137.892C198.29 135.52 203.388 135.168 208.486 137.013C213.276 138.726 217.407 142.109 219.824 146.326C220.264 147.073 220 147.995 219.253 148.435C218.506 148.874 217.583 148.61 217.143 147.863C213.1 140.879 203.08 136.31 195.653 140.571C190.204 143.69 187.259 149.972 188.314 156.166C188.402 156.605 188.27 157.088 187.963 157.44C187.655 157.791 187.215 157.967 186.732 157.967C184.579 157.879 182.469 158.362 180.535 159.329C174.339 162.492 171.834 170.091 174.998 176.285C175.306 176.944 175.174 177.691 174.603 178.174L167.219 184.368C166.956 184.544 166.604 184.676 166.253 184.676ZM219.561 171.277C217.671 168.554 214.814 166.709 211.518 166.138C208.222 165.567 204.926 166.27 202.201 168.202C199.609 170.047 197.807 172.683 197.147 175.67C196.752 177.515 196.84 179.36 197.323 181.073L187.699 189.596C187.084 190.167 186.996 191.133 187.567 191.748C187.875 192.1 188.314 192.275 188.71 192.275C189.061 192.275 189.457 192.143 189.72 191.88L198.73 183.929C198.993 184.148 199.345 184.28 199.696 184.28C199.96 184.28 200.268 184.192 200.531 184.061C201.235 183.621 201.454 182.655 201.015 181.952C199.081 178.921 199.696 173.781 203.959 170.794C206.025 169.345 208.53 168.817 210.991 169.257C213.452 169.696 215.605 171.058 217.056 173.122C217.539 173.825 218.506 174.001 219.209 173.518C219.868 172.947 220.044 171.98 219.561 171.277ZM196.796 192.1L200.136 189.332C200.619 188.937 200.663 188.234 200.268 187.795C199.872 187.311 199.169 187.267 198.73 187.663L195.39 190.43C194.906 190.826 194.862 191.528 195.258 191.968C195.477 192.231 195.785 192.363 196.093 192.363C196.356 192.363 196.62 192.275 196.796 192.1Z" fill="#273664"/>
<path d="M160.759 202.73C159.397 200.05 153.156 203.257 145.334 207.299C142.873 208.573 140.631 209.934 138.742 211.296C129.908 211.779 114.087 219.95 95.4974 229.57C75.1059 240.113 59.7244 250.085 56.736 256.059C54.3628 256.85 51.682 257.948 48.9573 259.398C41.1347 263.439 38.8055 266.426 39.8602 268.447C40.9149 270.468 44.9141 270.775 52.7807 266.734C56.1646 264.977 59.1091 263.088 61.2625 261.287C62.9325 261.243 65.2178 260.804 68.2941 260.013C77.3033 257.641 92.4211 249.25 106.44 241.739C122.701 232.997 136.149 223.772 144.411 217.666C145.026 217.226 145.378 216.787 145.597 216.348C146.74 215.865 147.927 215.294 149.113 214.679C156.98 210.593 162.297 205.849 160.759 202.73Z" fill="#CFDCF6"/>
<path d="M27.2473 152.476L32.6528 163.063L26.1925 167.148L20.6552 156.693L27.2473 152.476ZM153.332 183.665C148.498 181.117 141.422 185.071 137.599 192.407C136.852 193.813 136.324 195.218 135.885 196.668L133.248 195.218C128.809 192.758 121.602 192.846 117.207 195.438L109.561 199.963L109.209 192.978C111.274 191.616 112.637 189.859 112.637 187.97L110.132 149.796C114.702 147.424 118.57 145.14 120.415 143.998C121.822 143.163 123.008 141.713 123.712 139.912C125.909 139.034 127.887 138.067 129.205 137.233C131.49 135.739 133.16 133.016 131.974 129.194C130.699 124.933 127.095 124.318 124.459 124.977C124.239 125.021 121.734 126.031 118.833 127.173C117.075 126.602 115.318 126.734 114.043 126.91C113.692 126.953 111.187 128.535 108.813 129.853L108.242 121.111C108.242 121.111 115.362 109.909 109.165 99.2785L108.374 86.7149L107.231 72.8335L106.352 67.5182C106.352 66.9471 106.264 66.376 106.089 65.8489L104.946 59.04L97.3432 54.4275C97.2992 53.9443 97.2113 53.6368 97.2113 53.6368L96.3324 50.7814C98.7055 49.4196 100.727 47.4428 102.265 45.0707C105.649 45.0268 108.374 42.5668 108.374 39.5796C108.374 38.3057 107.891 37.1636 107.099 36.2411C108.901 33.4736 109.912 30.1789 109.912 26.6646C109.912 16.9125 102.002 9.00537 92.2453 9.00537C87.499 9.00537 83.1482 10.8943 79.984 13.9693C73.2601 17.5714 68.8653 25.5664 68.6896 32.5511C68.4698 42.2593 74.5345 50.43 83.1922 52.5385L83.8514 55.306C79.9401 55.7893 74.7982 57.6343 70.1398 60.27C62.1414 64.7507 37.9265 77.5339 27.1594 82.1464C25.9728 81.6632 22.0615 80.1257 18.4139 84.0353C18.282 84.1671 18.1502 84.2989 18.0623 84.4746C17.9744 84.5185 17.8865 84.5624 17.7986 84.6064C17.8426 84.211 17.7986 83.8157 17.5789 83.5082C17.0955 82.6735 15.9968 82.41 15.1618 82.9371C13.7994 83.8157 13.0523 84.6064 12.5249 85.441C12.1294 84.2549 11.4702 82.8053 10.3276 80.2135C9.93206 79.335 9.27285 78.676 8.34996 78.8517C7.42707 79.0275 6.63602 79.95 6.98759 80.8285C8.5697 85.0896 9.49259 86.671 10.3276 88.3842L11.2065 89.0432C11.0747 89.8778 11.6021 90.7564 12.4371 90.9321H12.481C12.7007 90.976 12.9644 90.976 13.1842 90.976C13.2721 91.1078 13.3599 91.2396 13.4478 91.3714C13.4478 92.1181 13.9313 92.821 14.7223 92.9967H14.7663C14.8102 92.9967 14.8542 92.9967 14.8981 92.9967C17.8426 95.9399 20.8749 96.5549 22.6768 96.6867C25.3136 96.8185 26.5441 96.2474 27.467 95.6324C30.1039 95.1053 32.0375 93.8314 32.0375 93.8314C32.0375 93.8314 65.3056 79.0275 72.8645 74.9421C73.5238 74.5907 74.139 74.3271 74.7103 74.0635V105.209C71.4582 110.436 68.6017 114.478 66.8438 116.455C64.7343 117.421 61.5261 117.421 58.318 120.628C55.1098 123.835 55.6812 128.315 59.2409 130.512C68.0743 136.003 66.7119 128.755 72.1614 127.173C72.9524 126.382 73.7435 125.548 74.5345 124.669C75.7651 136.442 78.3579 152.871 83.0164 156.957C84.3787 158.143 86.62 158.362 89.4327 157.923L92.3771 189.639C93.1242 192.056 94.6624 193.593 96.5082 194.516L97.2113 203.609C97.475 204.795 97.9145 205.761 98.5737 206.552L59.4606 229.571C56.9996 231.02 55.9448 232.953 56.2525 234.842C51.9456 235.062 47.1114 238.664 44.123 244.374C40.2557 251.754 41.0907 259.749 45.9249 262.297C50.7591 264.845 57.8346 260.892 61.658 253.556C63.8993 249.251 64.5585 244.726 63.7675 241.212C68.2061 243.057 74.4466 242.837 78.4019 240.509L136.105 206.816C136.808 208.441 137.906 209.759 139.401 210.549C144.235 213.097 151.31 209.144 155.134 201.808C158.957 194.472 158.166 186.169 153.332 183.665Z" fill="white"/>
<path d="M84.6865 39.6235C84.247 39.6235 83.8955 39.2721 83.8955 38.8328V37.2953C83.8955 36.856 84.247 36.5046 84.6865 36.5046C85.126 36.5046 85.4776 36.856 85.4776 37.2953V38.8328C85.4336 39.2721 85.082 39.6235 84.6865 39.6235ZM75.7213 35.7139V34.0885C75.7213 33.6493 75.3697 33.2978 74.9302 33.2978C74.4907 33.2978 74.1392 33.6493 74.1392 34.0885V35.7139C74.1392 36.1532 74.4907 36.5046 74.9302 36.5046C75.3697 36.5046 75.7213 36.1532 75.7213 35.7139ZM86.752 44.8071C86.9718 44.5435 86.9278 44.1042 86.6641 43.8846C86.4004 43.665 85.961 43.7089 85.7412 43.9725C84.6865 45.2903 83.0605 45.3782 82.2255 45.2903C80.7313 45.1585 79.5007 44.4117 79.1492 43.7967C78.9734 43.4892 78.5778 43.3575 78.2702 43.5332C77.9626 43.7089 77.8307 44.1042 78.0065 44.4117C78.6218 45.51 80.2918 46.4325 82.0936 46.6082C82.3134 46.6082 82.5331 46.6521 82.7089 46.6521C84.3349 46.6082 85.7852 45.9932 86.752 44.8071ZM80.4676 41.9078C80.8191 41.8639 81.0828 41.5564 81.0389 41.205C80.9949 40.8535 80.6873 40.59 80.3357 40.6339C79.9841 40.6778 79.5007 40.546 79.1931 40.2385C79.0173 40.0628 78.9734 39.8432 79.0173 39.5357C79.1052 39.1842 78.8415 38.8328 78.4899 38.745C78.1384 38.6571 77.7868 38.9207 77.6989 39.2721C77.567 39.975 77.7428 40.6339 78.1823 41.1171C78.6657 41.6442 79.4128 41.9517 80.1599 41.9517C80.2918 41.9078 80.3797 41.9078 80.4676 41.9078ZM87.631 34.4839C87.8068 34.1764 87.6749 33.781 87.3673 33.6053L84.3349 32.0239C84.0273 31.8482 83.6318 31.98 83.456 32.2875C83.2802 32.595 83.412 32.9903 83.7197 33.166L86.752 34.7475C86.8399 34.7914 86.9718 34.8353 87.0597 34.8353C87.2794 34.8353 87.5431 34.7035 87.631 34.4839ZM72.9965 30.6621L75.897 30.4425C76.2486 30.3985 76.5563 30.091 76.5123 29.7396C76.4684 29.3882 76.1607 29.0807 75.8092 29.1246L72.9086 29.3443C72.5571 29.3882 72.2494 29.6957 72.2934 30.0471C72.3373 30.3985 72.601 30.6621 72.9526 30.6621C72.9965 30.6621 72.9965 30.6621 72.9965 30.6621ZM158.342 204.136C153.332 213.141 143.927 217.446 137.379 213.8C135.753 212.878 134.435 211.56 133.468 209.978L79.1931 241.607C76.776 243.013 73.5678 243.715 70.3597 243.715C68.5579 243.715 66.8 243.496 65.13 243.057C65.5694 247.142 64.6026 251.842 62.1416 256.235C57.1316 265.24 47.7269 269.545 41.1787 265.899C34.6306 262.253 33.3561 251.974 38.41 242.969C40.6953 238.883 43.8595 235.764 47.2874 233.919V220.477C47.2874 219.116 47.9905 217.886 49.0453 217.183V181.732C46.1008 182.874 43.464 183.402 41.1348 183.402C37.2235 183.402 34.235 181.82 32.3453 178.657C31.0708 176.549 30.9829 174.352 30.8951 172.2C30.8072 170.223 30.4995 167.983 29.5327 166.269C29.4887 166.226 29.4887 166.138 29.4448 166.094L26.6761 167.851C26.5443 167.939 26.3685 167.983 26.1927 167.983C26.1048 167.983 26.0609 167.983 25.973 167.939C25.7532 167.895 25.5335 167.719 25.4016 167.499L19.9082 157.044C19.6885 156.649 19.8203 156.122 20.2159 155.902L26.808 151.685C27.0277 151.553 27.2914 151.51 27.5111 151.597C27.7308 151.641 27.9506 151.817 28.0824 152.037L33.4 162.623C33.6198 163.019 33.4879 163.502 33.0924 163.766L30.8072 165.215C30.895 165.303 30.939 165.391 30.9829 165.435C32.1256 167.543 32.4771 170.091 32.565 172.156C32.6529 174.177 32.7408 176.066 33.7956 177.779C37.0916 183.182 43.8155 181.908 48.9134 179.887C48.9574 179.887 49.0013 179.887 49.0013 179.843V146.985C48.0784 146.326 47.4632 145.228 47.4632 143.954V119.398L39.8603 115.137C39.4208 115.312 38.9374 115.444 38.41 115.444C37.7508 115.444 37.1356 115.268 36.5203 114.917L28.2582 110.085C26.4564 109.031 25.8851 106.746 26.9398 104.989C27.9945 103.188 30.2798 102.617 32.0377 103.671L40.2998 108.503C41.2227 109.031 41.8379 109.909 42.0577 110.876L50.2318 115.444C50.5395 115.356 50.8471 115.312 51.1987 115.312C52.8687 115.312 54.3189 116.411 54.7584 117.948L57.615 119.53C60.076 117.157 62.4931 116.455 64.4268 115.883C65.086 115.708 65.6573 115.532 66.1408 115.312C67.8987 113.292 70.5794 109.47 73.6118 104.594C72.8207 102.485 72.645 100.86 72.645 100.86C72.645 100.86 73.2163 91.4592 72.9965 76.0403C72.7768 76.0842 72.5571 76.1721 72.2934 76.216C63.3721 80.7846 34.5866 93.6117 32.5211 94.5342C32.0377 94.8417 29.6206 96.2035 26.5882 96.5549C25.8411 96.8624 24.8303 97.0821 23.424 97.0821C23.1603 97.0821 22.8966 97.0821 22.633 97.0381C20.7432 96.9503 17.579 96.2474 14.5467 93.3481H14.5027C13.8875 93.1724 13.3161 92.7771 13.0085 92.206C12.8767 91.9424 12.7888 91.6788 12.7448 91.3713C12.569 91.3713 12.2175 91.2835 12.2175 91.2835C11.6022 91.1078 11.0309 90.7124 10.7233 90.1413C10.5475 89.7899 10.4596 89.4385 10.4156 89.0431L9.84431 88.6038C9.75641 88.5599 9.71247 88.4721 9.62457 88.3842C9.49273 88.0767 9.31694 87.8131 9.1851 87.5056C8.48194 86.0999 7.55905 84.2989 6.24063 80.7846C6.10879 80.4331 6.10879 80.0378 6.19668 79.6424L0.307751 71.4278C-0.0877744 70.9007 -0.0877744 70.1978 0.263804 69.6707L1.05485 68.4846L1.0988 68.4407C1.0988 68.3967 1.14275 68.3967 1.14275 68.3528C1.14275 68.3089 1.1867 68.3089 1.1867 68.2649C1.23064 68.221 1.23064 68.221 1.27459 68.1771C1.31854 68.1331 1.36249 68.0892 1.40643 68.0453C1.45038 68.0453 1.45038 68.0014 1.49433 68.0014C1.58222 67.9574 1.67012 67.9135 1.75801 67.8696C1.84591 67.8257 1.9338 67.8257 2.02169 67.7817C2.02169 67.7817 2.02169 67.7817 2.06564 67.7817H2.10959C2.15354 67.7817 2.24143 67.7817 2.28538 67.7817C2.32933 67.7817 2.37327 67.7817 2.37327 67.7817C2.41722 67.7817 2.50511 67.7817 2.54906 67.7817C2.59301 67.7817 2.63696 67.7817 2.63696 67.7817C2.6809 67.7817 2.7688 67.8256 2.81275 67.8256C2.85669 67.8256 2.85669 67.8257 2.90064 67.8696L14.1072 72.7896C14.3269 72.8774 14.5027 73.0092 14.6785 73.2289L20.919 80.6967C22.589 80.0378 24.6545 79.8181 27.1156 80.7406C38.0585 75.9964 61.8779 63.4328 69.5686 59.1278C71.6781 57.9417 73.8755 56.9314 76.0289 56.0967C76.2047 56.0089 76.3805 55.921 76.6002 55.8332C78.5339 54.9107 80.2478 54.076 81.6981 53.5489C78.5339 52.5825 75.6773 50.8253 73.3042 48.4092C69.2171 44.1921 67.0197 38.4814 67.1516 32.3314C67.2394 28.5975 68.47 24.6439 70.4915 21.1296C69.6126 19.9875 69.0413 18.7575 68.8655 17.3518C68.5579 14.6282 69.3489 12.3439 71.1947 10.9382C72.8647 9.62035 76.1168 8.52213 81.9618 10.3232C83.4999 9.35678 85.1699 8.56606 86.9718 8.08285C90.136 3.25071 95.6294 0 101.826 0C111.626 0 119.537 7.90714 119.537 17.6593C119.537 24.3803 115.801 30.1789 110.308 33.21C109.912 34.3082 109.385 35.3185 108.814 36.3289C109.033 37.0317 109.165 37.8225 109.165 38.6132C109.165 42.2592 106.792 45.466 103.76 45.9053C103.716 45.9053 103.628 45.9053 103.584 45.9053C102.002 48.3214 99.9802 50.2982 97.607 51.7478L97.7388 52.1871C107.935 55.965 109.692 65.146 109.165 74.1953C108.286 88.4281 112.681 89.2628 111.143 99.4981C116.153 109.338 111.143 119.178 109.868 121.418L110.264 127.217C110.571 127.041 110.879 126.866 111.099 126.734C112.989 125.636 113.428 125.372 113.911 125.284C116.153 124.977 117.999 125.152 119.537 125.636C119.888 125.504 120.196 125.372 120.46 125.284C120.504 125.284 120.504 125.24 120.547 125.24C121.514 122.736 123.975 120.891 128.194 120.188C135.358 118.958 138.654 123.835 140.368 130.248C141.335 133.894 142.301 142.109 138.39 146.941C134.655 151.466 127.359 153.179 124.459 146.809C123.975 145.711 123.58 144.657 123.228 143.646C122.657 144.261 122.042 144.788 121.295 145.228C119.888 146.106 116.285 148.215 111.802 150.587L114.263 187.751C114.263 187.794 114.263 187.838 114.263 187.838C114.263 190.211 112.725 192.363 110.44 193.944L110.615 197.503L116.504 194.032C120.328 191.792 126.085 191.265 130.743 192.495C132.062 189.42 134.391 185.247 138.961 181.952C143.356 178.833 148.454 177.998 153.025 179.712C153.464 179.887 153.816 180.107 154.079 180.458C154.607 180.634 155.09 180.854 155.617 181.161C162.122 184.851 163.352 195.131 158.342 204.136ZM11.8219 85.1335C11.4264 83.9914 10.7672 82.5856 9.75641 80.2574C9.58063 79.8181 9.14115 79.1592 8.48194 79.2471C8.17431 79.291 7.82273 79.5106 7.69089 79.8181C7.603 79.9939 7.55905 80.1696 7.603 80.3453C7.91063 81.2239 8.21826 81.9706 8.48194 82.6735C9.27299 84.6503 9.88826 85.8803 10.4596 86.9785C10.5914 87.2421 10.7233 87.4617 10.8551 87.7253C10.899 87.6374 10.899 87.5496 10.943 87.4617C11.0309 87.1103 11.1627 86.8028 11.2506 86.4513C11.3825 86.0121 11.6022 85.5728 11.8219 85.1335ZM13.4919 88.6478C13.7996 87.7692 14.1951 86.8906 14.9422 85.9681C15.2938 85.5728 15.6893 85.1335 16.1727 84.7381C16.2606 84.6503 16.3925 84.5624 16.5243 84.4746C16.744 84.2989 16.9198 84.1671 17.1835 83.9913C17.1835 83.9035 17.1396 83.7717 17.0956 83.6839C17.0956 83.6399 17.0517 83.596 17.0517 83.596C16.9198 83.3324 16.6561 83.1567 16.3925 83.1128C16.1288 83.0688 15.8211 83.1128 15.6014 83.2446C14.7225 83.8156 14.1511 84.3428 13.6677 84.8699C13.5359 85.0017 13.404 85.1774 13.3161 85.3092C12.9646 85.7924 12.7448 86.2756 12.569 86.8028C12.4372 87.1103 12.3493 87.4178 12.2614 87.7692V87.8131C12.1735 88.0328 12.1296 88.2963 12.0417 88.5599C11.9977 88.6478 11.9977 88.6917 11.9977 88.7796C11.9098 89.0431 11.9098 89.3506 12.0856 89.6142C12.2175 89.8778 12.4372 90.0535 12.7448 90.0974H12.7888C12.9206 90.1413 13.0085 90.1413 13.1404 90.1413C13.1843 90.0096 13.2282 89.8338 13.2722 89.7021C13.2722 89.6581 13.2722 89.6581 13.3161 89.6142C13.3161 89.5703 13.3161 89.5703 13.3601 89.5263C13.3161 89.2188 13.404 88.9553 13.4919 88.6478ZM16.1727 90.361C16.3925 89.6581 16.744 88.9113 17.4472 88.1206C17.6669 87.8571 17.9306 87.6374 18.1943 87.3738C18.3701 87.1981 18.5898 87.0664 18.8096 86.8906C18.9414 86.8028 19.1172 86.7149 19.293 86.6271C19.3369 86.6271 19.3809 86.5831 19.4248 86.5831C19.6885 86.2756 19.7764 85.7924 19.6006 85.441C19.4688 85.1774 19.249 85.0017 18.9853 84.9138H18.9414C18.8535 84.8699 18.7656 84.8699 18.6777 84.8699C18.5898 84.8699 18.458 84.8699 18.3701 84.9138C18.2822 84.9578 18.1943 85.0017 18.1064 85.0456C17.9746 85.1335 17.8867 85.2214 17.7548 85.3092C17.3153 85.6167 16.9198 85.9242 16.6122 86.2756C16.0409 86.8467 15.6453 87.3738 15.3377 87.9449C15.074 88.4281 14.8982 88.9553 14.7225 89.4385C14.6346 89.6581 14.5906 89.8778 14.5027 90.1413C14.4148 90.4049 14.3269 90.6246 14.283 90.8881C14.283 90.9321 14.283 90.976 14.239 91.0199C14.283 91.0638 14.283 91.0638 14.3269 91.1078C14.6346 91.5031 14.9861 91.8985 15.3377 92.2499C15.5135 92.2499 15.6453 92.206 15.7772 92.1181C15.7772 92.0742 15.7772 92.0742 15.7772 92.0303C15.8651 91.7667 15.953 91.5031 15.9969 91.2396C15.9969 91.1956 16.0409 91.1517 16.0409 91.1078C16.0409 90.8442 16.1288 90.6246 16.1727 90.361ZM28.0385 94.2267C28.0385 94.2267 27.9945 94.1828 27.9506 94.1828C26.5882 93.4799 22.633 92.1181 21.3585 91.8985C21.2267 91.8985 21.0948 91.8546 21.0069 91.8106C21.0509 92.0742 21.0509 92.3817 20.963 92.821C20.919 92.9528 20.8311 93.0406 20.7432 93.1285L20.6993 93.1724C20.5674 93.2603 20.3477 93.3042 20.1719 93.2603C19.8643 93.1724 19.6445 92.8649 19.6885 92.5135C19.6885 92.4696 19.6885 92.4696 19.6885 92.4256C19.6885 92.4256 19.6885 92.4256 19.6885 92.3817C19.7324 92.1621 19.7324 91.9863 19.6885 91.8106C19.6006 91.4153 19.6006 91.0638 19.7764 90.7124C19.9082 90.4049 20.2159 90.0535 20.6993 89.6581C20.7432 89.6142 20.7432 89.6142 20.7872 89.5703C21.2267 89.2188 21.4903 88.5599 21.0948 88.0328C20.963 87.8131 20.6993 87.6814 20.4356 87.6374C20.3038 87.6374 20.1719 87.6374 20.084 87.6374C20.0401 87.6814 19.9961 87.7253 19.9522 87.7253L19.9082 87.7692C19.4688 88.0328 19.1611 88.3403 18.8974 88.6038C18.3701 89.131 18.1064 89.6142 17.9306 90.1853C17.8427 90.4049 17.7988 90.6685 17.7109 90.9321C17.6669 91.0199 17.6669 91.1078 17.623 91.1956C17.579 91.4153 17.4911 91.6349 17.4472 91.8546C17.3593 92.1621 17.1835 92.4696 16.9638 92.6892L16.9198 92.7331C16.9198 92.9088 16.9638 93.0406 17.0517 93.2163C17.1835 93.4799 17.4032 93.6556 17.6669 93.7435L18.1064 93.8753L19.2051 94.2706C19.5127 94.4024 19.6885 94.7099 19.6006 95.0613V95.1053C19.6885 95.1492 19.7764 95.1931 19.8643 95.1931C21.0069 95.5885 22.0177 95.7642 22.8088 95.8081C25.4895 95.9399 26.5443 95.3249 27.4672 94.666C27.5111 94.6221 27.599 94.5781 27.643 94.5342C27.7308 94.4463 27.8627 94.3585 28.0385 94.2267ZM61.8339 78.8517C65.6134 73.8878 62.3613 69.0117 59.0652 67.3424C48.6058 72.8774 34.9382 79.8181 27.5551 82.981C27.2914 83.1128 26.9837 83.1128 26.7201 82.981C26.1927 82.7614 25.1819 82.366 23.9074 82.366C23.468 82.366 22.9406 82.4099 22.4572 82.5417L30.4116 92.0742C30.5874 92.2499 30.6753 92.4696 30.7193 92.7331C30.8072 92.821 30.8511 92.9528 30.8951 93.0406C31.2466 92.8649 31.4664 92.7331 31.4664 92.7331C31.5103 92.6892 31.5543 92.6892 31.6422 92.6453C31.9058 92.5574 49.6605 84.6063 62.0537 78.8078C61.9658 78.8078 61.9218 78.8517 61.8339 78.8517ZM31.4664 162.711L26.8958 153.706L21.798 156.957L26.5003 165.83L31.4664 162.711ZM122.042 126.997C124.019 128.535 125.074 130.819 125.601 132.972C125.997 134.465 126.085 136.135 125.865 137.76C126.964 137.233 127.887 136.75 128.678 136.266C130.04 135.388 132.15 133.323 131.007 129.457C129.732 125.152 125.953 125.723 124.81 125.987C124.591 126.031 123.404 126.47 122.042 126.997ZM110.44 130.6L110.484 131.39L111.187 142.328L111.319 144.525L111.494 147.292C114.087 145.887 116.812 144.305 119.625 142.636C119.712 142.592 119.844 142.504 119.932 142.416C120.811 141.801 121.602 140.835 122.13 139.649C122.174 139.517 122.261 139.385 122.305 139.253C122.921 137.716 123.096 135.783 122.569 133.762C122.042 131.786 121.251 130.38 120.108 129.457C119.537 129.018 118.921 128.711 118.218 128.491C117.164 128.183 115.889 128.14 114.439 128.315C114.131 128.491 113.252 128.974 112.593 129.37C111.802 129.809 111.099 130.248 110.44 130.6ZM84.6426 113.863C81.9618 117.553 79.0613 121.199 76.0728 124.537C76.2926 126.514 76.5123 128.579 76.8199 130.687C76.8639 130.863 76.8639 131.039 76.9078 131.215C78.3141 141.494 80.5994 152.652 84.0712 155.683C84.8184 156.342 86.0928 156.561 87.7628 156.473L84.5547 121.902C85.4336 121.858 86.4444 121.858 87.631 121.814L90.7952 155.946L91.1028 159.021L93.9154 189.156C94.1352 189.771 94.5307 190.606 95.1899 191.397C95.7612 192.056 96.5083 192.671 97.5191 193.11C98.8375 193.681 100.639 193.944 103.013 193.593C104.902 193.286 106.704 192.627 108.11 191.748C108.989 191.221 109.693 190.606 110.22 189.991C110.791 189.288 111.143 188.585 111.143 187.882L108.77 152.124L108.55 148.83L108.242 144.481L108.066 142.065L107.407 132.137V132.049L107.275 129.853L107.188 128.842L106.66 121.111C106.66 120.803 106.704 120.452 106.88 120.188C106.924 120.101 111.846 112.15 109.385 103.715C108.022 105.385 105.561 108.108 101.826 110.348C100.947 110.876 100.024 111.359 99.0133 111.798C95.3657 113.467 90.6194 114.478 84.6426 113.863ZM108.55 201.193C108.55 201.149 108.55 201.105 108.55 201.061L108.462 198.821V198.381L108.33 195.218C106.836 195.921 105.166 196.448 103.54 196.712C102.705 196.844 101.87 196.888 101.079 196.888C99.9362 196.888 98.8375 196.756 97.8267 196.492L98.2223 201.412L98.3541 203.345C98.442 203.784 98.5738 204.18 98.7496 204.575C99.233 205.673 99.9801 206.42 101.035 206.816C101.914 207.123 102.969 207.167 104.199 206.991C105.474 206.772 106.88 205.849 107.759 204.575C108.154 204.048 108.55 203.257 108.638 202.335C108.638 201.939 108.638 201.544 108.55 201.193ZM90.5315 10.5428C99.5407 11.8168 106.089 19.1528 107.188 29.3003C107.363 30.091 107.495 30.8378 107.583 31.5846C108.11 30.0032 108.374 28.3339 108.374 26.5768C108.374 17.6593 101.123 10.455 92.2454 10.455C91.6741 10.455 91.1028 10.455 90.5315 10.5428ZM81.8299 50.386C82.4452 50.6057 83.1044 50.8253 83.7636 50.9571C85.0381 51.2646 86.3565 51.3964 87.7189 51.3964C90.4436 51.3964 92.9046 50.7814 95.102 49.5953C95.6294 49.3317 96.1567 48.9803 96.6402 48.6728C98.0465 47.7064 99.3209 46.4764 100.376 45.0707C100.288 44.9828 100.2 44.9389 100.112 44.851C99.4528 44.3239 99.3649 43.3575 99.8923 42.6985C100.42 42.0396 101.386 41.9517 102.002 42.435C102.002 42.435 102.046 42.435 102.046 42.4789C102.441 42.7864 102.837 42.9182 103.32 42.8303C104.814 42.6107 106.089 40.6339 106.089 38.5693C106.089 37.5589 105.781 36.6364 105.21 36.0653C104.726 36.3289 104.243 36.8121 103.804 37.2953C103.496 37.6028 103.232 37.9543 102.969 38.2617C101.87 39.5357 100.771 40.7657 99.4088 40.7657C99.233 40.7657 99.0573 40.7657 98.8815 40.7217C97.3873 40.4142 96.772 38.7889 96.4204 37.6028C95.3217 33.8689 89.301 31.321 83.412 28.8171C79.5447 27.1918 75.5894 25.5225 72.7768 23.326C71.2386 26.1814 70.3158 29.3443 70.2279 32.4193C70.096 37.7346 71.9857 42.6546 75.5015 46.2567C77.3034 48.1457 79.4568 49.5075 81.8299 50.386ZM96.3765 53.7685L96.0249 52.6264C93.5199 53.8125 90.7073 54.5153 87.6749 54.5153C87.2354 54.5153 86.752 54.5153 86.3126 54.4714C86.1807 54.4714 86.0489 54.4275 85.917 54.4275C85.4336 54.3835 84.9941 54.3396 84.5107 54.2517L84.9062 55.8771C84.9062 55.921 84.9062 55.9649 84.9062 56.0089C84.9502 56.4042 85.0381 56.7557 85.126 57.1071C85.4336 58.0296 86.0049 58.8203 86.7081 59.3914C87.6749 60.1821 88.9054 60.5774 90.092 60.5774C92.597 60.5335 94.3988 59.8307 95.4536 58.5128C96.9038 56.6239 96.4644 54.076 96.3765 53.7685ZM57.3513 125.723C57.4392 126.382 57.615 126.953 57.9226 127.525V124.801C57.9226 124.45 58.2303 124.142 58.5818 124.142C58.9334 124.142 59.241 124.45 59.241 124.801V129.018V129.062C59.4168 129.194 59.5926 129.326 59.8124 129.457C59.9002 129.545 60.0321 129.589 60.12 129.633V126.558C60.12 126.207 60.4276 125.899 60.7792 125.899C61.1308 125.899 61.4384 126.207 61.4384 126.558V130.38C61.9218 130.643 62.3613 130.819 62.7568 130.951V127.437C62.7568 127.085 63.0644 126.778 63.416 126.778C63.7676 126.778 64.0752 127.085 64.0752 127.437V131.302C64.9542 131.39 65.5694 131.127 66.0968 130.643C66.4923 130.292 66.8879 129.853 67.2834 129.37C68.2502 128.227 69.4368 126.778 71.5023 126.119C71.5463 126.075 71.5902 125.987 71.6781 125.943C72.1176 125.504 72.5131 125.065 72.9526 124.625C73.8755 123.615 74.7984 122.605 75.7213 121.55C77.9626 118.958 80.116 116.235 82.1815 113.423C82.7528 112.633 83.3241 111.842 83.8955 111.051C84.7304 109.909 85.5215 108.723 86.3126 107.537C90.8831 100.684 94.7944 93.8753 97.6509 88.3842C96.9038 87.1103 95.7612 85.8803 94.0912 85.0017C91.6302 83.6839 89.3889 83.7278 87.587 84.211C83.4999 92.4696 78.7536 100.772 74.7105 107.142C71.81 111.71 69.305 115.268 67.635 117.113C67.5471 117.245 67.4152 117.333 67.2834 117.377C66.5802 117.685 65.8331 117.904 65.0421 118.124C63.3721 118.607 61.5263 119.134 59.6366 120.76C59.4608 120.935 59.241 121.111 59.0652 121.287C57.9666 122.385 57.3952 123.659 57.3074 124.977C57.3074 125.196 57.3074 125.46 57.3513 125.723ZM53.396 198.908C53.5279 199.04 53.6597 199.172 53.7476 199.348L67.8547 222.674L85.6094 212.219C87.5431 209.1 91.0589 206.376 93.2123 204.575C93.9594 203.96 94.9262 203.257 96.0249 202.598L95.4975 195.614C93.3441 194.472 91.7181 192.539 90.927 189.991C90.8831 189.903 90.8831 189.771 90.8831 189.683L88.0704 159.505C87.7189 159.548 87.3673 159.548 87.0597 159.548C84.8623 159.548 83.2362 159.021 82.0497 158.011C78.2702 154.716 75.8531 144.788 74.3589 134.992C73.9634 135.124 73.6118 135.168 73.2163 135.168C72.4692 135.168 71.766 134.948 71.1068 134.509L67.7229 132.181C66.8439 132.972 65.8331 133.499 64.5147 133.499C63.0644 133.499 61.2187 132.884 58.7137 131.302C56.736 130.072 55.4616 128.14 55.1979 125.987C55.11 125.24 55.1539 124.493 55.2858 123.791L54.9782 123.615V143.998C54.9782 145.228 54.3629 146.326 53.44 147.029V198.908H53.396ZM53.396 217.183C54.4508 217.886 55.1539 219.116 55.1539 220.477V231.679C55.7692 230.317 56.9558 229.087 58.6258 228.077L64.0313 224.87L53.3521 207.211V217.183H53.396ZM56.8239 248.723C56.6042 247.054 55.8571 245.78 54.7145 245.121C54.1432 244.814 53.5279 244.638 52.8247 244.638C52.0776 244.638 51.3305 244.814 50.4955 245.165C48.8695 245.912 47.3753 247.362 46.3645 249.207C44.299 252.897 44.6945 257.026 47.2434 258.432C49.7924 259.837 53.5279 257.992 55.5934 254.346C56.6042 252.501 57.0437 250.524 56.8239 248.723ZM138.522 201.632C138.522 200.49 137.555 199.348 135.973 198.425L134.435 197.591C134.391 197.678 134.391 197.766 134.347 197.81C133.951 198.821 132.941 199.479 131.886 199.479C131.578 199.479 131.227 199.436 130.919 199.304C129.557 198.777 128.897 197.239 129.469 195.877C129.513 195.746 129.557 195.614 129.645 195.438C128.37 195.131 126.964 194.955 125.557 194.955C122.833 194.955 120.108 195.57 118.086 196.712L111.934 200.314C114.131 202.598 114.966 206.244 113.999 209.539C112.989 212.922 112.066 214.767 103.891 219.774C97.7828 223.508 88.1144 223.728 85.7852 220.697C84.7305 219.335 84.291 217.929 84.247 216.612L69.5247 225.266L72.645 230.449C73.2602 231.503 72.9526 232.821 71.8979 233.48C71.5463 233.7 71.1507 233.788 70.7552 233.788C70.0081 233.788 69.305 233.392 68.8655 232.733L65.7013 227.506L60.2518 230.713C59.241 231.284 58.5379 231.987 58.1424 232.689C58.5818 232.865 58.9774 233.041 59.4168 233.26C61.79 234.578 63.5039 236.819 64.4268 239.542C68.3821 241.212 74.1392 240.992 77.6989 238.927L132.281 207.079L136.061 204.883C137.599 203.96 138.522 202.774 138.522 201.632ZM153.025 196.58C152.805 194.911 152.058 193.637 150.915 192.978C150.344 192.671 149.728 192.495 149.025 192.495C148.278 192.495 147.531 192.671 146.696 193.022C145.07 193.769 143.576 195.218 142.565 197.063C141.994 198.118 141.598 199.172 141.422 200.27C141.554 200.709 141.598 201.149 141.598 201.588C141.598 202.115 141.554 202.598 141.378 203.082C141.642 204.575 142.345 205.673 143.444 206.288C144.631 206.947 146.081 206.903 147.619 206.201C149.245 205.454 150.739 204.004 151.75 202.159C152.805 200.402 153.244 198.381 153.025 196.58Z" fill="#273664"/>
</svg>
