<svg width="300" height="336" viewBox="0 0 300 336" fill="none" xmlns="http://www.w3.org/2000/svg">
<path d="M298.185 150.251C298.237 150.251 217.857 101.274 217.909 101.274L1.97095 227.089C1.76352 241.409 1.86724 271.033 1.86724 285.457C1.6598 285.405 81.2104 334.797 82.0401 335.316L297.304 212.925C297.304 212.925 298.237 150.199 298.185 150.251Z" fill="white"/>
<path d="M299.326 148.798C299.378 148.591 218.842 99.8735 218.842 99.6659C215.264 99.4065 1.81504 224.287 0 227.089L0.0518583 286.131C0.0518583 287.117 0.88159 287.947 1.8669 287.947C2.8522 287.947 3.68194 287.117 3.68194 286.131L3.63008 230.254L80.8989 277.415C80.847 277.415 80.8989 333.811 80.8989 333.863C80.8989 334.589 81.4693 335.16 82.1953 335.16C82.9213 335.16 83.4918 334.589 83.4918 333.863C83.4918 333.707 83.5436 277.57 83.4918 277.467L296.37 153.416V213.184C296.37 214.17 297.2 215 298.185 215C299.17 215 300 214.17 300 213.184V150.251C300 149.681 299.741 149.162 299.326 148.798ZM82.1953 273.991C80.7952 273.109 6.79343 227.971 5.39326 227.141L14.2092 222.004L217.805 103.35C219.257 104.232 293.207 149.369 294.607 150.199L285.843 155.284L82.1953 273.991Z" fill="#273664"/>
<path d="M118.6 184.649L149.611 166.283L184.823 188.436L154.33 206.855L118.6 184.649Z" fill="white"/>
<path d="M192.602 188.281L149.3 161.562L110.925 184.701L111.184 187.347C111.288 188.54 112.74 189.578 114.14 190.512L153.189 214.378C155.264 215.467 157.494 214.43 158.634 213.755L190.268 194.922C191.772 194.04 192.757 192.535 192.757 190.823L192.602 188.281ZM183.06 188.437L154.278 205.765L120.311 184.649L149.559 167.32L183.06 188.437ZM148.263 191.031H148.211C147.485 190.979 146.966 190.356 146.966 189.682L147.381 181.796C147.433 181.121 148.003 180.55 148.678 180.55L154.278 180.654C155.004 180.654 155.575 181.277 155.575 181.951C155.575 182.626 154.952 183.248 154.278 183.248L149.922 183.196L149.559 189.837C149.559 190.46 148.989 191.031 148.263 191.031Z" fill="#273664"/>
<path d="M162.679 141.12C161.072 138.215 159.153 136.243 157.701 135.413H157.753C154.952 133.597 149.922 133.805 145.929 134.79L131.253 121.872C132.861 110.509 137.943 97.7464 131.357 84.8277C123.371 76.4228 119.274 79.7952 115.488 73.9843C114.555 73.6212 113.362 73.3617 112.169 73.258C139.654 62.8815 136.594 17.225 106.724 13.1782C76.9575 8.09375 60.4147 50.9486 83.699 68.9517C80.3801 79.432 71.6161 84.9315 63.0076 91.4168C48.7466 101.274 44.3905 132.3 44.3905 132.3C35.6783 158.76 42.1087 160.213 58.3403 178.268C55.6437 185.998 57.1995 194.559 57.1995 194.559C62.0741 191.861 66.5858 189.371 70.7863 187.036C70.7863 187.036 73.5348 188.696 73.846 188.489C77.9946 191.083 79.3948 193.417 82.2989 194.196C83.9065 194.248 85.2548 192.535 84.8399 190.979C86.7068 193.469 90.5962 193.833 90.648 190.097C92.9298 192.017 96.1969 188.8 94.33 186.517C99.2046 185.635 96.5599 181.536 93.3965 179.617C97.4415 180.551 97.8563 174.792 93.8114 174.221C114.71 162.599 121.089 158.812 125.082 155.492C124.771 151.756 122.074 144.077 121.556 138.37L131.875 146.36C133.535 149.473 138.617 150.822 139.239 151.341C142.247 154.61 147.277 152.69 145.047 148.591C147.796 149.629 148.781 152.845 151.478 153.987C152.982 154.298 154.537 153.105 154.641 151.6C156.456 153.468 159.775 151.6 159.205 149.058C161.123 149.11 162.42 146.983 161.694 145.219C163.301 144.544 163.509 142.573 162.679 141.12Z" fill="white"/>
<path d="M163.457 140.705C159.879 133.597 153.967 132.04 146.448 133.753C143.388 130.121 134.468 124.206 133.431 121.093C132.913 119.692 133.276 115.749 133.535 112.377C135.609 110.509 137.061 108.33 137.528 106.099C138.202 102.831 137.009 86.4358 128.556 78.1866C125.134 74.8661 121.244 73.2577 117.718 72.3239C128.556 65.8386 135.246 50.9483 132.809 37.874C139.602 -1.2453 77.4242 -18.6778 64.9782 28.172C62.6446 41.5057 64.9264 45.2413 63.2669 50.4814C59.3257 62.6737 47.139 77.2527 54.9177 94.9964C48.7984 103.401 43.82 115.801 42.9903 128.461C35.8339 153.623 37.7008 162.028 56.4216 178.319C54.7103 181.64 54.8659 194.247 55.4363 194.87C55.6437 196.063 57.0439 196.738 58.0811 196.115C60.6221 194.714 69.801 189.63 72.1347 188.333C74.209 189.941 78.5132 192.847 79.8097 194.092C81.4691 195.908 84.7362 195.181 85.5659 192.898C87.2773 194.714 90.6481 193.936 91.3741 191.549C93.8633 192.328 96.4043 189.682 95.6783 187.243C98.8417 185.998 98.4268 181.951 95.7302 180.395C97.8564 179.409 98.3231 176.4 96.7155 174.791C116.473 163.792 122.333 160.264 126.327 156.944C128.349 155.024 124.304 145.53 124.045 142.002C125.652 143.403 131.564 151.341 133.846 149.629C135.609 150.822 137.32 151.393 138.824 152.067C141.314 154.557 146.136 154.921 146.655 150.718C148.263 151.704 149.196 154.557 151.426 154.921C152.93 155.232 154.589 154.454 155.263 153.053C157.441 154.039 160.19 152.326 160.242 149.888C162.057 149.473 163.198 147.501 162.835 145.685C164.183 144.544 164.494 142.521 163.457 140.705ZM129.282 48.2505C127.779 53.1274 120.622 57.5374 117.251 54.5801C114.555 52.5048 114.866 47.6279 117.874 43.7367C123.785 36.6807 131.772 38.5485 129.282 48.2505ZM125.082 27.6013C125.134 27.6013 125.134 27.6013 125.186 27.6013C127.104 30.7142 128.453 34.2422 129.127 38.0296C122.541 33.7753 112.169 42.8028 112.843 50.5852L112.377 50.7408C113.206 38.4966 98.3231 39.8974 94.0188 49.7032C93.2928 49.3919 92.1001 48.873 90.6999 48.3023C98.3231 39.5342 115.073 40.3643 125.082 27.6013ZM107.45 56.1884C100.709 64.9047 90.4406 58.6788 97.7526 48.6136C104.65 39.7417 114.658 46.3308 107.45 56.1884ZM85.0474 62.8813C85.4622 58.4713 86.655 54.0613 89.0923 50.3776C91.1666 51.2596 92.3594 51.7785 93.0854 52.0897C90.1813 68.1733 109.421 64.6453 112.066 52.5048L112.999 52.1416C114.244 59.0939 122.645 59.5608 127.364 55.2027C121.141 72.272 98.7379 79.5874 84.8399 67.5507C84.8399 65.9942 84.8918 64.4377 85.0474 62.8813ZM103.198 77.1489C102.524 84.153 94.9004 86.384 87.7958 84.2568C86.7587 79.8987 85.6178 76.7857 85.1511 72.272C90.3888 75.7481 96.9229 77.564 103.198 77.1489ZM58.7552 191.653C58.5478 189.111 58.4959 185.012 59.4812 180.965C61.8667 183.041 64.7189 185.324 66.8451 187.191L58.7552 191.653ZM95.4709 178.268C94.33 179.772 92.9817 178.164 91.9964 177.386C91.1666 176.555 89.7146 175.725 88.9367 175.051C87.5884 174.273 86.8624 176.192 88.2107 176.763C90.2332 178.319 93.8114 181.017 95.6264 182.729C96.6118 183.663 96.0413 185.427 94.7449 185.583C93.0854 183.975 88.5737 180.654 86.1364 178.786C85.2548 178.06 84.1139 179.461 84.9955 180.187C87.2254 182.055 92.2557 185.272 93.8114 187.399C94.5374 188.8 92.878 190.356 91.4778 189.63C90.4925 186.776 86.0845 184.338 83.5953 182.003C82.7137 181.329 82.1433 180.55 81.3136 181.381C80.5876 182.626 82.1952 183.041 83.0249 183.871C85.0474 185.842 89.7665 188.488 89.7146 190.564C89.0923 193.054 86.9143 191.965 85.6178 190.512C84.3213 187.918 80.7431 185.531 78.6688 183.56C77.7353 182.833 76.6463 184.286 77.5798 185.012C79.343 186.465 81.9359 188.903 83.4916 190.46C83.8028 190.771 83.9583 191.134 83.9583 191.549C84.1139 193.054 82.0914 193.988 81.0543 192.898C79.6022 191.498 74.935 188.385 72.7051 186.621C72.0828 186.257 72.0309 186.517 70.527 185.998C61.763 177.437 44.9091 166.179 42.8347 154.454C42.005 149.213 42.9903 143.766 45.1684 134.635C49.3689 138.681 57.4069 141.742 63.6299 142.054C62.6964 145.582 61.5037 150.199 60.7258 153.105C63.1113 158.137 67.986 161.198 72.5495 165.089C74.572 167.684 77.4761 170.848 79.6022 172.872C78.6169 172.872 73.8978 174.999 76.8019 176.037C77.4761 175.985 78.0465 175.258 78.5651 175.103C79.4467 174.636 80.7431 174.532 82.1433 174.325C83.2842 174.117 86.5513 173.443 88.9886 173.961C91.3222 174.688 97.2859 174.947 95.4709 178.268ZM114.762 160.264C109.991 163.118 103.094 167.009 92.5668 172.872C89.922 171.99 86.3438 171.575 83.5435 172.145C82.7656 169.915 80.6913 169.136 78.5132 166.335C95.3153 147.709 90.9073 130.225 85.5141 106.359C87.5884 105.165 88.6774 102.779 89.0923 99.8734C91.9445 103.401 94.693 106.67 98.3231 108.538C103.094 111.132 110.717 108.175 113.103 102.986C116.318 96.7604 113.206 82.5966 110.147 75.9037C110.925 75.6443 111.703 75.3849 112.429 75.1255C113.051 75.2293 113.725 75.333 114.347 75.5406C124.304 93.7513 123.785 110.924 120.518 128.824C118.34 137.696 121.4 146.204 123.215 154.817C121.348 156.166 118.859 157.826 114.762 160.264ZM162.005 143.87C159.36 140.29 156.352 138.111 154.849 136.969C153.915 136.243 152.774 137.696 153.76 138.422C154.123 138.889 164.287 145.685 159.931 148.072C158.427 145.167 152.774 140.082 151.685 139.252C150.752 138.526 149.611 139.978 150.596 140.705C150.959 141.224 158.531 146.827 158.427 150.044C158.219 151.289 156.715 151.859 155.73 151.185C155.16 147.138 148.989 142.936 148.055 142.054C147.122 141.327 146.033 142.78 146.966 143.506C148.003 144.337 151.685 147.034 153.811 150.562C154.693 152.534 151.841 154.194 150.648 152.326C149.144 150.147 147.848 149.11 145.877 147.916C144.944 146.516 143.284 145.011 141.21 144.907C140.017 144.803 139.965 146.671 141.106 146.723C143.336 146.827 146.292 150.251 144.114 151.859C142.973 152.43 142.04 152.171 139.965 150.614C138.513 149.784 136.491 149.265 134.728 147.916C134.624 146.723 133.379 146.204 132.653 145.426C132.55 144.959 132.238 144.596 131.72 144.596C128.245 141.327 124.978 137.488 123.474 135.361C123.941 129.187 125.186 124.31 125.86 116.683C127.26 116.216 128.608 115.646 129.801 114.971C128.349 124.933 133.639 126.8 142.714 134.842C142.04 135.101 141.469 135.413 141.002 135.724C140.225 136.191 140.639 137.436 141.469 137.384C143.44 136.502 146.085 135.361 149.403 135.05C155.938 134.635 158.116 135.257 161.953 141.535C162.264 142.313 162.368 143.247 162.005 143.87ZM100.346 54.632C99.7751 54.632 99.3602 53.9056 99.6714 53.4387C101.383 50.7927 104.702 51.2077 104.857 51.2077C105.843 51.3115 105.635 52.9199 104.65 52.7642C104.546 52.7642 102.161 52.5048 100.968 54.2688C100.864 54.5282 100.605 54.632 100.346 54.632ZM119.481 50.3776C118.859 50.3776 118.444 49.5475 118.911 49.0806C121.037 46.6421 123.785 47.1609 123.889 47.2128C124.875 47.4203 124.563 48.9768 123.578 48.7174C123.526 48.7174 121.607 48.3542 120.104 50.1182C119.896 50.2739 119.689 50.3776 119.481 50.3776ZM108.487 66.8762C106.932 66.8762 103.301 66.1499 104.131 64.3859C104.39 64.0746 104.909 64.0227 105.22 64.2821C106.88 65.7867 111.08 65.6829 112.688 63.6595C113.258 62.8294 114.555 63.7633 113.932 64.5415C112.688 66.2017 110.354 66.8762 108.487 66.8762ZM111.806 60.339C110.665 60.5466 110.51 58.7826 111.651 58.7826C112.947 58.8344 113.362 58.3156 113.673 57.9006C114.192 57.0186 115.54 57.9006 114.97 58.7307C114.295 59.8202 113.258 60.339 111.806 60.339Z" fill="#273664"/>
<path d="M105.272 237.829V234.301H105.221C104.183 225.118 96.975 223.457 89.4556 227.141L64.7711 216.868C63.8895 214.897 63.8376 212.043 61.6596 210.694C57.1998 208.152 52.014 208.723 47.1911 209.916L47.0874 213.081L53.6734 215.675L50.6656 217.439L42.5239 214.119C40.8644 220.5 46.6207 229.009 53.7771 227.193L58.5481 225.74L83.1289 234.56C85.2551 244.574 93.1894 246.234 101.02 240.786L101.176 237.518C100.501 237.725 95.8342 235.805 95.1082 235.598L96.8713 234.612L105.272 237.829Z" fill="white"/>
<path d="M105.947 233.938L105.532 231.81C104.909 228.697 102.731 226.103 99.7754 224.962C97.7011 224.184 95.4712 224.132 93.3969 224.858L89.9742 225.792L80.0693 221.953L65.186 215.519L64.3044 212.251C63.7858 211.317 63.2672 210.694 62.3338 210.175C58.9111 208.204 54.555 207.581 50.4064 208.411L47.0356 209.086C46.7244 209.138 46.4651 209.449 46.4133 209.76L46.517 213.029C46.517 213.34 46.7244 213.6 46.9837 213.755L51.7028 215.779L50.4582 216.505L43.1981 213.548L42.8351 213.392C42.7832 213.392 42.7314 213.34 42.6795 213.34C42.5239 213.288 42.3683 213.34 42.2128 213.392C42.0053 213.496 41.8498 213.652 41.7979 213.859C41.7979 213.911 41.5386 214.637 41.4868 215.779C41.4868 215.986 41.4868 216.194 41.4868 216.401C41.4349 217.491 41.4868 218.788 41.8498 219.981C42.7314 222.887 45.065 225.533 47.8135 226.778C50.0434 227.764 52.5844 227.66 53.8809 227.452C55.3329 227.245 57.7184 226.674 58.4963 226.467L82.5066 235.494L83.2326 237.777C83.8549 239.748 85.4107 242.291 87.7962 243.38C89.7668 244.314 91.6855 244.729 93.7599 244.729C94.6415 244.729 95.5231 244.625 96.4565 244.47C100.035 243.847 101.59 241.149 101.694 241.045C101.746 240.942 101.798 240.838 101.798 240.682L101.953 237.414C101.953 237.362 101.953 237.31 101.953 237.258L104.961 238.451C105.221 238.555 105.48 238.503 105.687 238.348C105.895 238.192 106.05 237.984 106.05 237.725V234.197C106.05 234.145 105.998 234.041 105.947 233.938ZM50.6657 210.02C54.5032 209.242 58.4444 209.812 61.504 211.576C62.0745 211.888 62.4375 212.251 62.8524 212.977L63.7858 216.349C63.8377 216.557 63.9932 216.765 64.2525 216.868L79.4989 223.457L89.6631 227.4C89.8186 227.452 89.9742 227.452 90.1298 227.4L93.8117 226.363H93.8636C95.5749 225.74 97.4937 225.792 99.205 226.415C101.694 227.349 103.457 229.476 103.976 232.122V232.225L104.132 233.004L100.709 231.551L97.0788 230.046C96.8195 229.943 96.5602 229.995 96.3528 230.098L91.0632 233.574C90.804 233.73 90.7002 234.041 90.7002 234.301C90.7002 234.56 90.9077 234.82 91.2188 234.923L93.1376 235.598L99.1013 237.777C98.9976 237.829 98.8938 237.881 98.7901 237.933C97.7011 238.503 96.3528 239.022 95.4193 239.126C93.8117 239.281 91.4263 239.23 89.7149 238.503L89.0926 238.244C86.9146 237.362 85.2033 235.442 84.581 233.107L84.1142 231.395C84.0624 231.136 83.8549 230.98 83.6475 230.877L58.4444 221.019C58.3407 220.967 58.237 220.967 58.1851 220.967C58.1333 220.967 58.0814 220.967 58.0295 220.967L53.3104 221.849H53.2586C51.4435 222.368 49.5248 222.16 47.8653 221.382C44.8057 219.929 43.1462 218.217 42.9906 216.298C42.9906 215.831 43.0425 215.416 43.0944 215.052L50.0952 217.958C50.2508 218.01 50.4064 218.01 50.562 218.01C50.7175 218.01 50.8731 218.01 50.9768 217.906L56.7331 214.534C56.9924 214.378 57.1479 214.119 57.0961 213.807C57.0961 213.496 56.8887 213.236 56.6294 213.133L49.6285 210.02H50.6657ZM48.0209 212.562L47.969 211.161L54.6588 214.119L53.466 214.845L48.0209 212.562ZM58.8074 225.014C58.6518 224.962 58.4963 224.962 58.3407 225.014C58.2888 225.014 55.2811 225.844 53.6734 226.051C51.7547 226.311 49.8359 226.103 48.4358 225.481C46.4133 224.599 44.6501 222.835 43.7167 220.759C44.6501 221.59 45.791 222.316 47.243 222.99C49.2655 223.924 51.5473 224.132 53.6734 223.561L58.1333 222.731L82.7659 232.329L83.1289 233.678C83.1808 233.834 83.2327 234.041 83.2845 234.197L58.8074 225.014ZM100.294 240.475C99.931 240.994 98.6864 242.602 96.2491 243.017C93.4487 243.484 91.0114 243.173 88.5222 242.031C86.9146 241.305 85.4625 239.437 84.7365 237.362L84.4254 236.324C85.4626 237.881 86.9146 239.126 88.6778 239.852L89.3001 240.112C90.9077 240.786 92.7227 240.942 94.071 240.942C94.8489 240.942 95.4193 240.89 95.7823 240.838C97.2344 240.682 99.205 239.748 100.45 239.074L100.294 240.475ZM104.495 236.687L97.1825 233.886C96.9751 233.782 96.7158 233.834 96.5084 233.938L95.0563 234.716L93.2931 234.093L96.9232 231.707L104.443 234.871V236.687H104.495Z" fill="#273664"/>
<path d="M199.343 141.639C199.706 154.869 253.742 154.817 254.105 141.639C253.742 128.461 199.706 128.461 199.343 141.639Z" fill="#CFDCF6"/>
<path d="M204.477 118.966C203.284 122.338 204.218 126.852 208.159 129.809C206.915 133.752 207.485 136.347 207.692 138.007C209.456 151.548 241.297 151.496 243.319 138.007C243.578 136.243 243.578 132.819 243.06 129.135C246.379 126.489 246.897 121.197 245.393 117.928C240.259 106.203 208.263 105.84 204.477 118.966ZM258.099 59.6126C248.764 67.6025 241.089 81.04 230.51 76.3706C227.865 74.866 223.872 70.5079 226.154 62.8812C229.991 50.17 239.533 39.3266 252.394 35.1242C260.743 32.4263 268.522 34.0865 270.856 40.1049C272.619 47.3165 264.996 53.2311 258.099 59.6126ZM204.114 82.389C198.773 79.5354 194.365 73.2577 183.215 65.2678C164.598 52.6604 174.866 40.7275 193.12 45.6563C199.862 47.109 210.389 53.283 215.108 58.575C219.827 63.867 225.584 73.4652 221.902 79.5354C218.168 85.6576 211.271 86.2283 204.114 82.389ZM177.459 94.3219C182.023 90.327 189.335 86.4877 197.061 85.917C205.151 85.3463 210.596 87.0584 214.693 91.1571C218.842 95.3077 219.205 100.081 210.545 102.26C205.774 103.453 199.291 101.585 187.312 107.604C180.571 111.028 175.333 114.764 171.806 110.924C168.073 106.877 171.755 99.3545 177.459 94.3219ZM230.458 92.7135C230.769 91.624 230.873 90.8458 233.103 88.5111C241.971 78.2384 253.328 76.215 261.262 76.9413C271.686 77.3045 288.176 85.8132 283.613 95.8784C280.813 100.963 269.767 101.015 262.351 94.7888C258.928 91.8834 255.298 89.3931 251.772 87.6291C248.038 87.681 244.823 89.7563 242.023 92.4023C236.577 97.3311 229.11 97.6424 230.458 92.7135Z" fill="white"/>
<path d="M225.48 149.94C218.012 149.94 211.53 147.294 208.159 142.884C205.566 139.512 204.944 135.361 206.24 130.484L206.292 130.328L206.188 130.225C202.351 126.852 201.78 121.872 202.921 118.655C204.996 111.495 213.345 108.745 220.035 107.708L220.346 107.656L220.242 107.345C219.36 105.166 218.323 103.142 217.027 101.378L216.871 101.171L216.664 101.326C214.33 103.142 210.13 104.387 205.929 104.439C201.625 104.699 196.232 104.958 188.09 109.109C186.949 109.627 185.756 110.302 184.564 110.924C181.556 112.533 178.444 114.245 175.592 114.245C173.725 114.245 172.118 113.519 170.665 112.066C169.317 110.561 168.643 108.642 168.747 106.411C170.458 93.3364 186.586 84.257 199.965 84.257C201.106 84.257 202.247 84.3088 203.388 84.4645L203.544 83.9976C199.551 81.5591 196.439 78.7056 193.224 75.6964C190.06 72.791 186.793 69.7299 182.282 66.6689C176.37 62.4664 169.006 55.9811 172.792 48.7176C175.073 43.9963 180.311 42.9586 184.304 42.9586C194.831 42.9586 209.818 49.8071 216.301 57.5895C219.568 61.2212 222.005 65.1643 223.457 69.0036L223.976 68.8998C224.183 52.4531 238.289 38.0817 251.876 33.6717C254.572 32.7897 257.269 32.3228 259.758 32.3228C265.981 32.3228 270.7 35.1244 272.36 39.8457C274.33 47.213 267.329 53.4907 261.158 59.094C260.484 59.7166 259.81 60.3392 259.136 60.9099C257.01 62.6739 254.935 64.853 252.705 67.1877C247.208 72.9985 241.504 79.0169 234.555 79.0169C233.414 79.0169 232.221 78.8612 231.029 78.498L230.769 78.4461L230.717 78.7056C228.643 86.6954 227.295 95.1523 226.828 103.09L227.347 103.194C228.176 101.015 229.11 99.0953 230.251 97.3313L230.354 97.1238L230.199 96.9681C229.213 96.1899 228.695 95.1523 228.643 93.959C228.539 91.9874 229.732 89.6008 231.91 87.4218C241.141 77.2529 251.461 75.0738 258.462 75.0738C265.929 75.0738 273.345 77.4604 279.36 81.7147C284.235 85.2427 286.776 90.2753 285.843 94.5297C285.117 97.8501 282.42 100.133 278.22 100.963C277.079 101.171 275.886 101.222 274.797 101.222C268.263 101.222 263.907 97.9539 259.291 94.4778C256.854 92.6619 254.365 90.7941 251.461 89.2896L251.409 89.2377H251.357C248.194 89.3933 245.756 91.3648 243.215 93.3883C240.519 95.5154 237.718 97.7464 233.984 97.8501H233.829L233.777 97.9539C231.962 100.6 230.51 103.661 229.421 107.345L229.317 107.604L229.628 107.656C235.488 108.538 245.549 111.236 247.519 119.226C248.349 122.39 247.675 126.956 244.875 129.654L244.771 129.706V129.81C245.134 132.974 245.186 136.295 244.875 138.215C243.111 146.308 233.881 149.94 225.48 149.94ZM209.092 132.871C208.885 134.635 209.041 136.036 209.196 137.073C209.611 143.351 217.701 146.62 225.532 146.62C231.858 146.62 237.303 144.596 240.052 141.172C241.971 138.837 242.541 135.932 241.815 132.559L241.711 132.196L241.4 132.404C237.407 135.05 231.495 136.554 225.117 136.554C219.049 136.554 213.345 135.154 209.455 132.663L209.092 132.456V132.871ZM221.124 110.821C213.967 111.651 208.055 114.712 206.396 118.396C205.359 120.73 205.307 122.961 206.292 125.036C207.796 128.201 211.582 130.847 216.716 132.248C219.205 132.974 222.109 133.39 225.065 133.39C228.747 133.39 232.429 132.767 235.488 131.626C243.111 128.876 245.964 124.518 243.941 118.707C241.815 114.608 236.577 111.858 228.695 110.769L228.436 110.717L228.384 110.976C228.28 111.547 228.176 112.118 228.073 112.688L228.021 112.948L228.28 113C234.762 113.622 240.415 116.995 242.697 121.664C239.896 127.942 231.34 130.173 224.806 130.173C218.064 130.173 212.1 128.046 209.196 124.673C208.263 123.636 207.485 122.442 206.811 121.042C206.603 120.575 206.603 120.056 206.914 119.537C207.226 119.07 207.744 118.759 208.263 118.759C208.418 118.759 208.522 118.759 208.678 118.811L208.833 118.862L208.937 118.759C211.893 115.646 216.249 113.674 221.487 113.052L221.746 113L221.694 112.74C221.59 112.17 221.435 111.599 221.279 111.028L221.227 110.821H221.124ZM200.38 87.4218C192.394 87.4218 183.215 90.846 178.548 95.5154C169.628 103.765 172.066 108.538 172.999 109.783C173.466 110.509 174.192 110.873 175.281 110.873C177.718 110.873 181.452 108.901 184.719 107.137C185.393 106.774 186.016 106.463 186.638 106.151C193.639 102.26 199.81 101.689 204.736 101.274C209.352 100.859 212.93 100.6 215.523 97.8501L215.73 97.5907L215.419 97.4351C211.219 95.1523 206.707 94.0108 202.04 94.0108C193.483 94.0108 185.964 97.9539 182.126 101.378C181.971 101.534 181.763 101.586 181.608 101.586C181.4 101.586 181.141 101.482 180.985 101.326C180.83 101.171 180.778 100.963 180.778 100.756C180.778 100.548 180.882 100.34 181.037 100.185C186.534 95.3079 194.365 92.4544 201.936 92.4544C206.603 92.4544 211.115 93.492 215.315 95.6192L216.041 95.9824L215.678 95.256C213.034 90.2234 207.589 87.4218 200.38 87.4218ZM211.737 86.903C217.13 89.7046 220.035 95.1523 218.997 97.9539C218.946 98.0577 218.946 98.1614 218.894 98.2133L218.842 98.4208L218.946 98.5246C220.086 100.029 221.124 101.638 222.005 103.402L222.472 103.246C221.487 96.7087 220.086 90.7423 218.375 85.4503L218.271 85.1908L218.012 85.2946C216.456 86.021 214.641 86.436 212.774 86.436C212.463 86.436 212.204 86.436 211.893 86.3841L211.737 86.903ZM251.046 79.38C250.838 79.38 250.631 79.38 250.424 79.38H250.372H250.32C247.416 80.1064 244.667 81.2478 242.178 82.8043L241.4 83.2712L242.282 83.3231C245.238 83.4269 248.401 84.3088 251.927 85.9691C256.18 87.9925 260.069 90.846 262.506 92.9213C266.5 96.6568 271.841 98.0058 275.264 98.0058C276.093 98.0058 276.871 97.9539 277.545 97.7983C281.175 97.0719 282.316 95.256 282.627 93.8033C283.25 90.9498 281.175 87.2143 277.286 84.3088C272.36 80.5733 266.448 78.7056 258.721 78.4461L258.617 78.965C265.099 80.8327 271.167 84.9314 274.019 89.3414C274.278 89.7046 274.175 90.2234 273.76 90.4828C273.604 90.5866 273.5 90.6385 273.293 90.6385C273.034 90.6385 272.774 90.4828 272.619 90.2753C269.404 84.9833 260.121 79.38 251.046 79.38ZM242.022 86.4879C237.874 86.4879 234.555 88.5632 232.169 92.7138V92.7657C231.962 93.3364 231.806 94.1146 232.221 94.3221C232.481 94.5297 232.895 94.6334 233.518 94.6334C234.659 94.6334 236.162 94.2184 237.666 93.492C239.118 92.7657 240.363 91.728 241.659 90.6385C242.956 89.4971 244.356 88.3557 246.016 87.5774L246.638 87.2661L245.964 87.0586C244.512 86.6436 243.215 86.4879 242.022 86.4879ZM224.443 72.6353C225.169 76.7859 224.079 80.3139 221.072 83.1156L220.968 83.2193L221.02 83.375C222.161 86.5917 223.198 90.1197 224.028 93.8033H224.546C225.324 88.0444 226.465 82.2854 227.969 76.734L228.021 76.5784L227.917 76.4746C226.672 75.3851 225.687 73.9843 224.961 72.4797L224.443 72.6353ZM184.201 46.1753C179.844 46.1753 176.992 47.4724 175.592 50.1703C174.347 52.5569 173.829 56.6556 184.097 64.0229C189.905 68.1734 193.898 71.8571 197.113 74.8663C202.195 80.1583 208.003 83.3231 212.619 83.3231C214.434 83.3231 216.041 82.8561 217.442 81.9223L217.649 81.7666L217.545 81.5591C204.322 58.4714 182.697 51.8305 182.489 51.7786C182.074 51.6749 181.815 51.2079 181.919 50.7929V50.741V50.6891C181.919 50.4816 182.437 50.4297 182.593 50.4297C186.897 50.4297 206.603 59.7685 218.738 80.3658L218.894 80.6771L219.153 80.4177C221.175 78.3943 224.702 72.2721 213.812 59.6647C206.707 52.0899 194.002 46.1235 184.823 46.1235C184.667 46.1235 184.408 46.1235 184.201 46.1753ZM257.632 43.1143C257.839 43.1143 257.839 43.1662 257.839 43.218V43.2699V43.3218C258.099 43.685 257.995 44.2038 257.632 44.4632C257.476 44.567 241.141 55.7217 231.029 74.6069L230.925 74.8144L231.184 74.9181C232.273 75.4888 233.414 75.7483 234.607 75.7483C240.207 75.7483 245.964 69.6262 251.046 64.2304C253.172 61.9476 255.194 59.8204 256.958 58.4196C257.58 57.8489 258.254 57.2782 258.876 56.6556C264.425 51.6749 270.752 45.9678 269.248 40.572C267.952 37.3035 264.477 35.4357 259.758 35.4357C257.58 35.4357 255.246 35.8508 252.861 36.629C240.985 40.5202 231.547 50.4816 227.71 63.2965C226.309 68.381 227.398 71.027 229.473 73.4136L229.732 73.673L229.888 73.3617C239.844 55.6698 255.039 43.1143 257.632 43.1143Z" fill="#273664"/>
</svg>
