<svg width="251" height="225" viewBox="0 0 251 225" fill="none" xmlns="http://www.w3.org/2000/svg">
<path d="M243.448 142.808L235.635 137.996V143.068C235.635 149.701 232.641 152.563 229.125 154.774L123.786 215.122C118.708 217.984 112.458 217.984 107.51 215.122L56.2083 185.598C52.302 183.387 49.9583 180.136 49.9583 173.372L46.5728 175.323C43.4478 176.884 42.276 182.867 45.9218 185.338L109.984 221.365C115.453 224.487 122.875 223.576 124.047 223.836L247.745 152.302C253.995 147.88 250.349 145.799 243.448 142.808Z" fill="#CFDCF6"/>
<path d="M235.505 135.264C235.635 133.183 234.594 131.232 232.641 130.062L176.391 97.5464C171.573 94.6851 165.583 94.6851 160.766 97.5464L53.3438 159.196C50.4792 160.886 49.3073 164.138 49.9583 166.999C49.9583 168.43 49.8281 170.641 49.8281 173.633C49.8281 180.396 52.1719 183.647 56.0781 185.858L107.38 215.382C112.458 218.244 118.708 218.244 123.656 215.382L228.995 155.034C232.51 152.823 235.505 149.831 235.505 143.328V135.264Z" fill="white"/>
<path d="M236.677 135.134C236.807 132.533 235.505 130.192 233.161 128.891L176.911 96.5058C171.703 93.5144 165.192 93.5144 159.984 96.5058L52.5622 158.155C49.4372 159.976 47.7445 163.618 48.5258 167.129C48.2654 174.673 47.7445 182.867 55.2966 186.899L106.599 216.423C109.333 217.983 112.328 218.764 115.453 218.764C118.448 218.764 121.573 217.983 124.177 216.423L229.515 155.944C237.849 151.002 236.937 144.759 236.677 135.134ZM53.9945 160.236L161.416 98.5868C165.843 95.9855 171.442 95.9855 175.869 98.5868L232.119 130.972C235.114 132.533 235.114 137.215 232.119 138.776L123.005 201.336C118.317 204.067 112.588 203.937 107.901 201.336L53.9945 170.381C52.5622 169.6 51.6508 168.3 51.2602 166.739C50.9997 165.048 51.1299 164.918 51.2602 163.748C51.6508 162.317 52.5622 161.016 53.9945 160.236ZM228.474 153.733L123.135 214.082C118.448 216.813 112.718 216.683 108.031 214.082L56.7289 184.688C52.8227 182.737 50.6091 178.445 51.1299 171.421C51.6508 171.942 52.1716 172.332 52.8227 172.722L106.468 203.547C109.203 205.107 112.198 205.888 115.323 205.888C118.317 205.888 121.442 205.107 124.047 203.547L233.161 140.987C233.552 140.727 233.942 140.467 234.203 140.207C234.724 146.97 233.422 150.742 228.474 153.733ZM105.557 208.749C104.515 208.749 56.9893 180.786 56.0779 180.396C54.6456 179.615 55.9477 177.404 57.2497 178.315L106.078 206.408C107.25 206.928 106.729 208.749 105.557 208.749ZM136.937 136.695C136.547 143.978 118.057 143.978 117.666 136.695C117.927 129.281 136.547 129.281 136.937 136.695ZM154.646 146.71C154.255 153.993 135.765 153.993 135.375 146.71C135.765 139.426 154.385 139.426 154.646 146.71ZM173.396 157.375C173.005 164.658 154.515 164.658 154.125 157.375C154.515 149.961 173.135 149.961 173.396 157.375ZM120.401 146.189C120.01 153.473 101.521 153.473 101.13 146.189C101.521 138.776 120.01 138.776 120.401 146.189ZM138.239 156.334C137.849 163.618 119.359 163.618 118.968 156.334C119.229 148.921 137.849 148.921 138.239 156.334ZM156.859 166.869C156.468 174.153 137.979 174.153 137.588 166.869C137.979 159.456 156.599 159.586 156.859 166.869ZM103.995 155.814C103.604 163.097 85.1143 163.097 84.7237 155.814C84.9841 148.53 103.604 148.53 103.995 155.814ZM121.703 165.959C121.312 173.242 102.823 173.242 102.432 165.959C102.823 158.675 121.442 158.675 121.703 165.959ZM140.453 176.494C140.062 183.777 121.573 183.777 121.182 176.494C121.442 169.21 140.062 169.21 140.453 176.494ZM77.8226 159.846C65.0622 160.106 65.0622 170.641 77.8226 170.901C90.5831 170.641 90.5831 160.106 77.8226 159.846ZM81.8591 165.699H78.2133C78.0831 166.609 78.6039 168.17 77.432 168.17C76.2601 168.17 76.781 166.609 76.6508 165.699H73.0049C72.6143 165.699 72.2237 165.308 72.2237 164.918C72.2237 164.528 72.6143 164.138 73.0049 164.138H76.6508C76.781 163.227 76.2601 161.667 77.432 161.667C78.6039 161.667 78.0831 163.227 78.2133 164.138H81.8591C82.9008 164.138 82.9008 165.699 81.8591 165.699ZM105.166 175.453C104.776 182.737 86.2862 182.737 85.8956 175.453C86.2862 168.17 104.906 168.17 105.166 175.453ZM114.281 192.882C99.8279 192.621 99.8279 179.485 114.281 179.355C128.604 179.485 128.604 192.621 114.281 192.882ZM114.281 181.696C103.213 182.086 103.213 190.02 114.281 190.28C125.349 190.02 125.349 182.086 114.281 181.696ZM110.896 187.679C110.375 187.679 109.984 187.159 110.114 186.769L110.896 183.127C111.156 182.086 112.588 182.477 112.458 183.387L111.937 185.988L120.14 185.208C121.182 185.078 121.312 186.639 120.271 186.769C120.14 186.769 110.896 187.679 110.896 187.679ZM208.682 138.516C208.682 139.036 208.422 139.686 207.901 139.946L196.573 146.189C195.922 146.58 195.01 146.58 194.359 146.189C184.854 140.467 158.682 126.03 149.177 119.917C148.656 119.137 148.916 118.096 149.698 117.576L161.416 111.203C161.937 110.943 162.588 110.943 163.109 111.203L208.031 137.085C208.291 137.345 208.682 137.865 208.682 138.516Z" fill="#273664"/>
<path d="M201.651 13.5266C200.088 3.90198 193.317 -3.12135 176.13 6.37316C159.854 15.9977 131.729 -6.89314 112.979 4.42223C72.0935 24.7119 50.9998 38.8886 7.11958 62.2997C7.11958 62.2997 -1.34396 81.0286 1.52062 112.504C4.90604 148.661 16.6248 165.699 16.6248 165.699C41.4946 151.262 90.3227 123.949 113.76 110.553C118.578 107.041 124.047 110.032 129.385 110.293C138.37 111.203 147.614 110.292 156.338 108.212C158.682 113.674 159.984 119.267 162.067 124.989L184.463 137.866C196.312 133.574 199.958 120.307 194.88 108.732C200.479 102.359 195.531 92.9943 195.922 84.9305C194.88 60.3488 199.047 45.9119 183.812 30.3045C192.797 28.0935 201.521 22.891 201.651 13.5266ZM168.057 73.8752C168.448 74.3955 167.536 80.3783 167.536 82.7194C164.802 82.1992 161.547 81.5489 158.812 81.0286C158.942 80.8985 167.536 76.7366 168.057 73.8752Z" fill="white"/>
<path d="M185.244 136.955C188.109 133.574 193.838 124.729 188.63 111.463C187.328 108.212 185.765 105.61 184.073 103.659C184.073 103.659 184.463 101.708 183.942 98.8471C183.422 95.9858 182.38 93.9048 182.38 93.9048C182.901 94.1649 183.552 94.425 184.073 94.8152C192.666 100.018 198.396 113.024 196.703 123.819C195.791 129.672 191.755 133.704 189.281 135.004C188.109 135.655 186.677 136.565 185.635 137.215L185.244 136.955Z" fill="#CFDCF6"/>
<path d="M182.381 115.105C181.209 122.908 175.349 126.16 169.099 122.388C167.407 121.348 165.844 119.917 164.542 118.226C164.542 118.226 167.797 121.998 174.308 118.746C181.339 115.235 182.511 111.073 182.511 111.073C182.641 112.503 182.641 113.804 182.381 115.105Z" fill="#CFDCF6"/>
<path d="M150.87 61.9095C155.036 57.3574 160.245 52.1549 167.406 58.1377C170.01 60.3488 168.578 66.5918 168.187 70.8838C167.276 79.0777 157.25 81.4188 157.25 81.4188C157.25 81.4188 147.484 79.0777 144.489 75.436C141.104 71.274 146.703 66.4617 150.87 61.9095Z" fill="#CFDCF6"/>
<path d="M198.655 100.278C196.963 89.6128 196.442 70.7538 196.963 61.6495C197.744 50.074 192.926 38.3684 186.155 30.8249C194.749 28.4837 202.822 22.2408 202.952 13.5266C202.952 9.75485 201.78 6.63337 197.874 3.64195C194.619 1.17078 189.801 -2.73107 175.608 5.20269C171.702 7.28368 170.01 8.71436 157.77 6.37325C141.754 3.64195 129.905 -4.42188 112.718 3.25177C88.7595 13.9168 63.8897 30.5647 43.7074 40.7095C33.421 46.3022 21.8324 52.6752 6.59805 61.1292C5.55639 61.6495 5.94701 63.4703 7.24909 63.4703C22.6137 55.4065 34.5928 48.3832 44.8793 42.9206C64.8012 32.9058 89.8012 16.1279 113.499 5.59288C129.645 -1.9507 141.885 6.24319 157.379 8.97448C171.312 11.4457 172.483 9.75485 177.692 7.02356C184.072 12.4861 193.187 15.0874 198.916 8.32417C204.385 18.469 194.358 26.4028 184.202 28.8739C174.567 20.9402 163.499 15.8678 153.473 9.88491C143.838 4.42232 137.197 5.20269 125.739 10.5352C124.567 11.0555 125.348 12.8763 126.52 12.3561C142.015 5.46281 144.619 7.67386 155.036 13.2665C151.129 13.2665 145.921 14.5671 138.629 17.9487C137.978 18.2089 137.718 18.9892 137.978 19.6395C138.239 20.2899 139.02 20.55 139.671 20.2899C159.072 12.096 159.072 16.1279 169.358 21.8506C164.801 20.8101 149.306 24.712 150.739 27.8334C150.999 28.4837 151.78 28.6138 152.431 28.3537C174.957 14.9573 193.707 36.5476 194.489 59.0483C194.358 66.2016 194.098 74.9158 194.619 85.3207C194.879 90.0029 195.53 94.8152 195.921 98.4569C196.312 101.318 196.572 104.18 195.14 106.651C192.405 100.798 188.499 95.9858 183.291 93.3846C180.687 87.6618 174.697 84.0201 168.838 82.3293C169.228 76.6066 169.879 70.3636 169.619 65.0311C170.14 57.2274 163.76 53.9758 158.291 55.7967C151.65 57.6176 151.52 62.5599 146.442 65.4213C145.791 65.6814 145.53 66.4618 145.921 67.1121C147.874 69.4532 151.911 63.9906 152.822 62.9501C156.858 56.5771 168.056 54.7562 167.275 66.0716C167.275 67.8924 167.145 69.9734 167.145 71.9244C165.322 75.6962 162.588 78.5575 158.812 80.2483C152.562 79.0778 146.702 77.6471 143.577 72.9649C142.796 71.6642 140.582 72.9649 141.494 74.2655C149.306 85.5808 168.056 80.3784 177.822 90.0029C184.593 96.506 184.983 109.642 177.952 115.885C178.213 111.983 177.041 106.391 171.051 104.83C166.103 104.44 161.025 106.521 155.036 107.821C150.348 108.992 138.89 111.073 127.041 109.382C123.916 108.992 120.791 108.212 117.796 107.301C117.015 107.041 116.103 107.691 116.233 108.472C114.541 108.862 113.239 109.382 112.197 110.032L15.9731 165.179C15.322 165.569 15.1918 166.219 15.4522 166.869C15.8428 167.52 16.4939 167.65 17.1449 167.39L113.369 112.243C114.671 111.463 116.885 110.813 119.358 110.423C133.812 114.455 149.176 111.723 155.296 110.423C155.817 112.374 156.728 114.064 157.9 115.625C158.421 118.877 158.942 122.648 160.895 125.51L184.202 138.776L186.025 139.296C197.483 134.094 200.999 122.648 196.181 109.772C198.265 106.521 199.046 103.529 198.655 100.278ZM190.062 10.4052C185.895 10.145 183.551 8.84442 179.515 5.98306C191.364 0.52047 193.447 3.51189 197.614 6.76343C197.093 7.93399 193.447 10.6653 190.062 10.4052ZM166.494 79.8581C166.494 80.2483 166.494 80.7686 166.364 81.1587C164.801 80.7686 163.369 80.5084 161.806 80.1182C163.76 79.0778 165.322 77.9072 166.754 76.2164C166.624 77.517 166.624 78.6876 166.494 79.8581ZM160.374 113.934C159.202 112.504 158.291 110.943 157.77 109.122C162.327 108.342 167.015 106.391 170.53 106.651C177.041 108.732 175.088 116.536 175.088 117.056C170.4 119.527 163.89 118.096 160.374 113.934ZM189.28 126.42C188.499 131.363 186.286 135.134 183.03 136.695L163.76 125.64C162.457 123.169 161.546 120.437 160.895 117.706C170.4 124.859 183.942 118.356 184.983 106.781C188.499 112.504 190.322 119.917 189.28 126.42ZM195.53 123.689C194.749 128.501 191.754 131.883 189.541 133.444C194.489 123.949 191.494 111.203 185.374 102.879C185.374 100.928 185.244 98.7171 184.723 96.6361C192.405 102.229 196.963 114.064 195.53 123.689Z" fill="#273664"/>
<path d="M57.1196 32.646C41.104 32.646 28.2134 40.5798 28.2134 50.3344V57.7479C28.2134 67.5025 41.104 75.4363 57.1196 75.4363C73.1352 75.4363 86.0259 67.5025 86.0259 57.7479V50.3344C86.0259 40.5798 73.1352 32.646 57.1196 32.646Z" fill="white"/>
<path d="M85.6353 50.0742V57.4877C85.6353 67.2424 72.7446 75.1761 56.729 75.1761C40.7134 75.1761 27.8228 67.2424 27.8228 57.4877V50.0742C27.8228 50.0742 29.5155 67.8927 58.2915 68.1528C84.854 68.4129 85.8957 50.0742 85.6353 50.0742Z" fill="#CFDCF6"/>
<path d="M97.3538 84.9308C94.359 76.6068 89.9319 69.9737 84.7236 65.4215C86.4163 63.0804 87.3278 60.4792 87.3278 57.7479V50.3344C85.8955 25.3625 28.4736 25.3625 27.0413 50.3344V55.6669C25.4788 54.6264 24.1767 54.2362 23.135 53.846C22.3538 53.5859 21.4423 53.0657 20.9215 53.9761C20.6611 54.4963 20.9215 55.0166 21.4423 55.2767C23.3955 56.0571 24.5673 56.3172 27.0413 58.008C27.1715 68.4129 41.6246 76.8669 57.9007 76.4768C74.5673 87.6621 82.1194 121.868 74.8278 130.712C73.7861 131.493 74.958 133.054 75.9996 132.273C80.1663 129.152 80.6871 117.056 77.3017 104.18C74.0465 91.824 68.3173 82.1995 60.8955 76.3467C70.6611 75.5663 78.8642 71.9246 83.4215 66.8522C97.7444 79.7283 103.994 108.992 95.2705 119.657C94.6194 120.177 95.1403 121.348 95.9215 121.348C102.823 116.276 102.562 99.4977 97.3538 84.9308ZM57.1194 33.9466C78.9944 33.4263 95.6611 50.5945 76.26 62.17C71.3121 65.0313 64.5413 66.7221 57.1194 66.7221C20.4007 65.8117 20.4007 34.857 57.1194 33.9466ZM57.51 74.1357C44.4892 74.6559 29.1246 67.3724 29.5152 57.8779C39.1507 72.3148 73.9163 73.4853 84.8538 57.8779C83.9423 68.8031 70.01 73.8755 57.51 74.1357ZM44.8798 42.7908C45.1403 42.4006 45.5309 42.2705 45.9215 42.4006L57.2496 48.2534L67.9267 45.6521C68.3173 45.5221 68.708 45.7822 68.8382 46.1724C68.9684 46.5626 68.708 46.9528 68.3173 47.0828L57.3798 49.684H57.2496C57.1194 49.684 56.9892 49.684 56.859 49.554L45.2705 43.5711C44.8798 43.7012 44.7496 43.181 44.8798 42.7908Z" fill="#273664"/>
</svg>
