<svg width="301" height="394" viewBox="0 0 301 394" fill="none" xmlns="http://www.w3.org/2000/svg">
<path d="M126.785 378.428C129.449 365.182 105.482 349.187 73.2555 342.702C41.0286 336.217 12.7446 341.698 10.0814 354.944C7.41821 368.189 31.3844 384.184 63.6113 390.669C95.8382 397.154 124.122 391.673 126.785 378.428Z" fill="#CFDCF6"/>
<path d="M121.116 342.865C117.779 336.735 107.002 337.064 101.039 343.905C100.273 338.815 97.3741 332.959 96.0612 326.83C97.8664 327.158 99.5623 327.76 101.094 328.581C97.3741 318.128 85.175 275.934 77.6804 249.884C82.6586 236.257 84.9562 217.923 82.2209 200.848C81.5645 190.724 77.4069 183.007 80.1422 174.579C89.0043 187.933 108.917 178.793 104.759 166.534C104.759 166.534 106.619 162.594 104.978 161.281C99.0152 159.42 100.985 169.216 93.326 167.738C90.0437 167.465 86.5973 166.808 83.9715 167.465C81.6739 162.594 86.2691 138.952 76.6958 143.549C64.3872 128.499 50.1093 137.967 50.3828 130.25C73.4682 115.419 53.6104 73.8269 27.4069 84.225C13.4025 89.1504 8.1509 106.444 14.8249 120.181C17.9977 126.036 23.5229 130.852 29.5404 132.987C33.9168 145.683 9.08088 153.017 8.1509 170.037C6.72858 179.943 15.9737 215.953 31.4551 216.336C38.4572 239.102 37.199 261.978 30.6345 284.526C28.0634 294.924 16.1925 307.894 18.0524 321.521C7.22092 325.681 6.18153 343.795 13.0743 352.223C16.5207 361.8 43.4354 373.457 45.9518 356.711C46.7723 352.169 42.1225 344.561 37.3632 341.825C37.2537 335.203 34.1356 330.387 35.8861 326.502C43.4901 322.233 47.9758 310.521 55.5251 297.879C68.3807 327.104 72.21 361.308 74.7811 336.954C81.3456 351.348 80.4704 376.467 93.5448 383.308C109.737 386.209 126.696 357.258 121.116 342.865Z" fill="white"/>
<path d="M48.4684 99.8768C47.9214 99.8768 47.5384 99.3843 47.6478 98.837C48.0855 96.7027 51.1489 95.1703 53.173 95.827C54.2124 96.1007 53.7201 97.6877 52.7354 97.4141C51.5866 97.031 49.5078 97.9614 49.2343 99.2201C49.1796 99.6579 48.8513 99.8768 48.4684 99.8768ZM36.1052 105.897C36.2146 104.255 38.5669 102.613 40.1533 103.215C40.591 103.379 41.0286 103.106 41.1927 102.668C41.3568 100.643 37.9104 101.409 36.7616 102.23C35.5034 102.996 33.3152 105.897 35.2299 106.608C35.6128 106.663 36.0505 106.335 36.1052 105.897ZM48.5231 108.578C52.7901 106.444 49.7813 103.379 47.0461 101.3C46.7179 100.971 46.2255 100.971 45.8973 101.3C45.1314 102.23 46.3896 102.887 47.0461 103.434C48.0855 104.255 49.1796 105.24 49.0155 106.061C48.9608 106.28 48.359 106.827 47.812 107.101C46.8273 107.539 47.5931 109.071 48.5231 108.578ZM52.1883 111.096C53.0089 110.439 51.9695 109.126 51.1489 109.837C48.6325 111.917 44.9126 112.738 41.9039 111.917C41.4662 111.807 41.0286 112.081 40.9192 112.519C40.8098 114.106 43.2168 113.723 44.3109 113.887C47.1008 113.832 50.0548 112.847 52.1883 111.096ZM118.928 367.273C112.692 379.806 105.033 385.169 93.4903 385.169C87.0351 385.114 82.6588 372.253 81.8382 369.572C81.8382 369.517 80.7441 364.591 78.4465 358.298C77.4071 355.562 77.5166 352.88 78.3371 350.472C71.882 350.472 71.7726 347.954 69.8032 342.536C65.208 330.278 60.2846 316.432 55.3065 302.203C48.0855 314.188 44.5297 323.327 37.3634 327.87C37.1993 328.198 37.0352 328.581 36.871 328.909C37.6369 330.442 38.2387 336.407 38.9498 340.84C56.4553 353.92 45.1861 373.403 25.7113 364.865C17.9433 360.979 14.3875 357.422 11.1599 352.333C6.07236 343.959 5.19709 334.437 10.6128 326.118C11.9258 323.327 13.8951 320.974 16.4662 320.153L16.7398 319.387C16.0833 317.362 15.8645 314.68 16.1927 311.725C18.2715 305.869 20.8973 300.999 23.1402 296.785C32.3306 280.64 32.6041 262.854 35.777 243.152C33.1511 234.505 31.3459 224.271 30.0877 217.759C19.1468 216.993 15.8645 204.898 12.0352 195.704C-0.492189 171.131 8.26054 156.41 29.0483 139.171C28.7201 137.693 28.3918 136.051 28.0636 134.3C20.022 131.181 13.8404 124.23 11.3787 115.748C8.26054 115.255 5.58002 112.792 4.97827 109.509C-0.218667 107.703 -1.7504 100.315 2.35245 96.5932C-0.765712 91.9414 2.57127 84.9911 8.20584 84.6627C7.22116 79.19 13.0745 74.2646 18.3262 76.1253C16.5756 66.8217 29.8142 62.9908 33.3152 71.7471C40.591 66.1103 50.0001 75.7422 44.2015 82.9115C63.9498 89.6976 68.8185 119.195 52.243 131.126C52.2977 131.509 52.4071 131.892 52.4619 132.33C55.58 131.947 69.5297 132.111 68.0527 136.434C67.6697 137.255 66.685 137.584 65.8645 137.201C63.3481 135.997 59.7376 135.34 56.0177 135.449C66.4115 144.479 57.1117 156.793 45.1861 156.191C37.7463 156.519 29.0483 151.813 23.7966 148.365C6.78352 164.947 5.90825 175.893 16.1927 197.236C19.5297 192.037 27.243 186.893 33.2058 185.962C31.0177 179.286 28.5012 176.987 30.8535 175.674C33.4794 174.689 33.8623 179.231 37.1446 187.221C43.9826 181.748 60.2299 168.231 61.4881 166.863C64.3875 163.087 66.6303 158.271 72.429 158.544C72.9214 158.435 74.6719 152.907 74.0702 149.624C73.359 145.3 75.3284 140.265 80.1971 141.798C85.777 143.932 84.464 156.629 83.6435 160.46C83.8076 160.733 83.9717 161.007 84.1358 161.335C87.4181 158.599 91.5209 153.892 96.2802 154.659L109.847 155.753C111.05 155.863 111.543 157.34 110.613 158.106L106.674 161.499C107.385 163.251 106.619 165.604 106.127 166.699C107.713 170.694 103.884 183.336 93.8732 182.515C88.8404 182.405 84.6282 181.475 80.9082 178.027C80.7441 178.465 80.58 178.903 80.4159 179.34C81.9476 187.55 83.7529 198.604 84.7376 208.784C86.2693 225.366 83.8076 238.719 79.5953 250.759C87.1993 277.357 99.0702 317.855 102.681 328.526C103.228 330.934 101.532 334.656 99.7813 337.392C100.383 337.666 100.93 338.104 101.313 338.596L102.134 340.293C105.799 337.447 110.339 336.133 114.552 336.735C129.103 339.362 124.453 355.999 118.928 367.273ZM30.9082 131.673C62.0352 139.39 69.7485 93.5832 40.6457 85.2647C39.0045 85.8667 37.1993 85.8667 35.5581 85.3194C34.0811 88.22 30.6894 89.8618 27.4619 89.3145C26.0942 92.4887 23.3043 95.5534 19.6391 95.6629C19.5297 97.7972 18.3809 99.9316 16.6303 101.245C19.8579 103.051 21.3349 107.374 19.9673 110.768C20.8426 110.877 21.7179 111.151 22.5384 111.643L21.1708 113.996C17.5056 111.807 14.5516 116.404 16.0286 119.688C17.1774 123.683 22.9761 124.723 23.7966 120.071L26.4772 120.618C25.9301 123.409 23.9061 125.489 21.2255 125.872C23.9608 128.554 27.3524 130.579 30.9082 131.673ZM26.3131 145.902C29.65 147.927 34.0811 150.773 39.0045 151.977C50.4378 155.698 64.0592 146.833 53.4465 137.42C53.5559 139.116 54.9783 141.852 52.626 142.4C51.7507 142.564 50.8754 141.907 50.766 141.032C50.3831 138.569 49.836 135.559 49.289 132.932C43.9826 135.887 37.5822 136.763 31.7288 135.34C32.2759 137.857 32.7682 140.539 33.4247 143.002C33.6982 144.042 32.8776 145.081 31.8382 145.081C30.3065 145.081 30.1424 143.33 29.8142 142.181C29.8689 142.345 29.9236 142.564 29.9236 142.728C28.7748 143.658 27.5713 144.753 26.3131 145.902ZM77.8448 183.171C65.591 193.57 51.1489 211.958 37.4728 216.938C47.0461 222.137 76.9148 219.948 81.4006 208.236C80.58 199.261 79.103 190.341 77.8448 183.171ZM82.1664 170.037C79.7047 172.773 82.1117 175.947 84.847 177.48C88.8404 180.107 97.2649 180.435 99.4531 178.191C105.963 171.843 103.009 167.738 103.556 165.932C105.525 161.664 103.447 160.897 101.094 164.783C97.9214 173.539 87.254 165.44 82.1664 170.037ZM81.1271 161.39C80.1971 160.624 78.9936 160.295 77.1883 160.733C78.5559 162.32 78.9389 164.072 78.7201 165.987L82.0023 163.141C81.8382 162.485 81.51 161.828 81.1271 161.39ZM75.6019 158.435C77.7354 157.559 79.8141 157.723 81.3459 158.38C81.6741 156.3 82.8229 141.415 77.4619 144.753C76.3678 145.793 76.9695 149.405 76.9695 151.375C76.9695 154.549 76.2036 156.957 75.6019 158.435ZM33.8623 214.475C45.022 212.067 57.1117 198.331 66.8492 188.754C70.8426 184.321 75.219 182.624 77.626 177.589L70.1314 177.699C68.4356 177.699 67.615 175.619 68.9279 174.47L72.6479 171.241C79.8689 165.659 74.3984 156.683 67.5603 163.907C64.1686 170.748 45.1861 184.375 37.5275 191.052C35.9411 192.201 34.7376 190.395 34.5187 188.972C28.9936 189.848 19.8579 195.211 18.0527 200.958L17.8886 200.903C20.2409 209.057 25.766 216.117 33.8623 214.475ZM19.3656 332.686C22.1555 336.243 28.9389 336.243 31.2365 331.919C31.6741 330.989 32.057 330.168 32.3853 329.347C27.1336 329.73 23.0308 328.581 19.0921 324.148C17.8338 326.775 17.3962 330.332 19.3656 332.686ZM28.0089 345.93C27.4619 346.039 27.1883 346.148 26.7507 346.203C25.4925 346.258 25.2737 344.288 26.5319 344.014C29.103 343.412 32.3853 342.591 35.777 342.153C35.5034 340.347 35.0658 336.845 34.5735 333.944C28.7201 343.795 11.7069 338.541 14.3875 326.009C11.9805 330.497 9.79227 333.725 10.1205 339.691C11.8163 350.144 16.5209 356.656 27.1336 361.965C42.0133 368.477 51.1489 355.343 37.801 344.124C34.9564 344.288 30.1971 345.437 28.0089 345.93ZM53.5559 297.277C49.2343 284.854 42.9432 266.521 38.4028 252.182C36.8163 263.784 34.7923 275.879 32.44 284.964C29.65 295.143 23.4684 302.148 19.9126 312.71C18.4903 321.467 26.5866 327.651 34.3546 324.914C41.0286 322.342 47.6478 307.238 53.5559 297.277ZM75.4378 332.795C80.6894 325.954 90.2627 323.327 98.4137 325.79C92.9432 309.098 76.3678 251.361 70.0767 229.197C69.8032 228.321 70.3503 227.391 71.2255 227.172C72.1008 226.898 73.0308 227.446 73.2496 228.321C73.3043 228.54 75.0548 234.724 77.6807 243.918C80.3612 234.779 82.0023 224.819 81.6741 213.545C73.359 223.834 44.3656 226.023 33.4794 218.525C39.4422 252.839 60.5581 306.307 71.9914 339.089C72.7573 336.79 73.9061 334.711 75.4378 332.795ZM79.9783 347.134C83.6435 341.661 90.7004 337.228 96.9367 336.845C96.1708 334.109 95.2955 331.263 94.475 328.307C87.5275 327.377 80.1971 330.661 76.696 336.735C77.7901 340.238 78.8842 343.74 79.9783 347.134ZM120.186 351.238C111.598 339.143 93.7638 368.368 92.8885 375.865C92.1774 379.094 93.6544 381.338 96.2802 381.228C108.862 381.502 118.983 362.676 120.186 351.238ZM120.296 347.079C119.694 338.377 108.206 339.034 103.282 344.397C100.492 347.079 96.3349 351.019 93.7638 354.741C93.1621 355.616 91.9586 355.835 91.0833 355.233C90.208 354.631 89.9892 353.427 90.591 352.552C92.8885 349.213 96.6085 345.546 99.1796 343.029L98.0855 340.84C93.7091 339.91 78.7201 347.407 82.0023 357.039C86.1052 368.477 85.2846 371.159 90.0439 378.437C89.661 367.93 107.878 338.87 120.296 347.079Z" fill="#273664"/>
<path d="M251.594 349.436C253.59 339.509 235.662 327.529 211.551 322.677C187.44 317.826 166.276 321.94 164.28 331.867C162.284 341.793 180.212 353.774 204.323 358.626C228.434 363.477 249.598 359.363 251.594 349.436Z" fill="#CFDCF6"/>
<path d="M272.374 282.063C272.374 272.759 267.779 264.496 260.831 259.461L258.698 250.376C257.932 247.53 254.212 246.819 252.462 249.172L248.523 254.535C240.372 253.386 231.893 256.287 226.258 261.705C222.319 259.899 220.295 263.675 221.171 267.177C212.308 263.346 203.063 260.829 195.295 261.321C206.893 250.704 202.243 232.863 187.418 233.794C168.599 233.082 157.932 258.311 169.311 271.774C165.536 279.491 166.028 289.67 168.982 297.277C168.982 297.277 171.171 302.64 170.624 304.939C167.615 310.247 160.23 316.65 163.293 324.476C169.037 341.278 189.551 335.148 178.446 322.342C177.079 320.372 178.009 319.058 178.009 319.058C177.954 319.004 182.057 313.148 185.175 311.725C192.505 315.282 202.571 317.964 211.543 320.208L211.214 346.039C211.105 350.636 215.098 353.482 219.256 353.92C228.556 354.522 228.227 347.681 226.039 340.949C225.93 339.691 226.039 329.621 226.149 322.725C230.963 322.889 235.284 321.466 239.004 318.675C241.63 318.675 247.976 320.262 248.851 323.874C246.444 328.69 246.499 338.651 255.525 338.158C263.621 335.695 263.95 329.84 264.278 319.168C264.059 311.506 256.893 307.949 256.893 307.949C256.893 307.949 272.374 299.685 272.374 282.063ZM181.893 250.102C185.448 245.451 189.004 248.351 180.744 252.127C181.182 251.252 181.4 251.033 181.893 250.102Z" fill="white"/>
<path d="M259.245 307.62C277.188 298.536 278.994 269.859 262.309 258.53L260.285 249.993C259.355 245.888 253.501 244.739 251.149 248.242L247.812 252.839C239.77 252.018 231.674 254.809 225.985 259.844C222.867 258.804 219.311 261.431 219.42 264.714C213.02 262.142 205.853 260.008 199.015 259.734C208.425 247.092 202.517 231.769 187.418 232.261C167.451 231.605 156.291 257.381 167.396 272.157C163.786 279.929 164.661 291.148 167.451 298.043C168.381 300.396 169.256 303.571 168.983 304.665C164.606 310.685 158.753 317.417 161.652 325.024C164.606 333.069 172.265 339.581 179.924 335.148C186.762 329.402 181.783 324.203 179.759 321.466C177.954 320.043 183.315 314.954 185.23 313.64C191.466 316.65 201.258 319.441 209.792 321.521L209.464 346.039C209.409 349.651 211.488 352.88 214.77 354.357C218.436 356.163 224.18 356.163 227.024 353.099C230.142 350.91 228.556 344.233 227.571 340.785C227.462 339.8 227.517 332.029 227.626 324.367C236.105 324.312 243.49 318.073 248.359 311.834C250.657 310.521 253.337 310.302 255.744 309.208C256.291 309.591 262.035 312.272 262.473 319.168C262.145 328.362 262.309 333.999 255.197 336.462C247.648 336.899 248.523 328.198 250.055 324.75C250.766 322.725 247.648 321.631 246.937 323.655C246.882 323.82 245.405 328.088 245.624 331.536C247.976 344.123 262.637 341.223 264.88 329.675C266.302 323.601 267.177 312.272 259.245 307.62ZM235.394 319.004C233.096 320.372 230.471 320.974 227.626 321.138C227.298 319.004 228.939 315.227 226.094 314.735C225.164 314.735 224.453 315.446 224.398 316.322C224.344 317.471 224.289 322.123 224.289 324.367C224.18 331.208 224.125 339.964 224.234 341.168C224.453 344.233 227.079 348.228 224.617 350.855C222.812 352.825 218.6 352.715 216.083 351.402C214.004 350.472 212.692 348.392 212.692 346.094L213.02 322.342C213.02 320.427 213.129 316.322 213.129 314.352C213.184 312.218 209.847 312.163 209.847 314.297L209.792 318.073C202.298 316.267 193.928 313.859 188.293 311.397C195.514 306.471 195.897 294.158 193.271 290.108C192.341 288.192 189.387 289.725 190.317 291.585C192.724 295.799 191.466 306.198 184.847 309.864C181.838 311.123 176.86 317.143 176.477 318.128C175.492 319.004 175.766 322.397 177.626 324.203C182.932 329.347 177.899 335.367 171.444 332.412C165.974 328.964 161.324 321.193 166.138 313.914C167.943 310.302 171.116 308.715 172.046 305.158C172.538 302.312 170.733 297.66 170.241 296.566C168.983 295.143 166.685 279.983 169.748 274.565C171.335 275.167 172.648 273.033 171.444 271.829C170.514 270.844 169.639 269.804 168.983 268.764C167.068 265.7 166.302 262.088 166.302 256.888C165.099 241.127 187.473 227.555 198.468 240.525C205.033 250.048 191.959 268.983 180.306 263.784C176.532 261.923 177.134 255.356 180.799 253.879C185.941 251.142 187.473 249.774 187.473 248.187C186.543 243.426 180.361 247.366 179.541 250.759C167.943 257.491 177.462 272.322 189.223 266.958C191.357 265.973 193.654 264.714 195.733 262.908C201.696 262.635 209.136 264.222 217.177 267.341C198.906 285.839 216.357 319.058 242.123 313.695C240.263 315.775 237.965 317.526 235.394 319.004ZM180.197 249.829C180.252 249.774 180.306 249.665 180.361 249.61C180.306 249.719 180.252 249.774 180.197 249.829ZM247.101 308.058C229.541 309.919 215.044 292.078 220.022 275.113C219.858 277.411 223.468 277.521 223.304 275.167C223.14 272.814 222.867 268.436 222.703 266.137C222.101 263.346 224.234 261.814 226.422 263.839L231.948 267.779C233.643 269.038 235.613 266.302 233.862 265.098L228.939 261.595C233.589 257.874 239.333 255.849 245.514 255.958C243.6 257.655 246.061 260.446 247.757 258.421L249.289 256.286L251.422 253.386C252.626 251.799 255.252 246.873 257.112 250.704L258.37 255.958L259.409 260.391C259.464 261.814 260.613 263.62 262.199 262.58C278.939 276.973 269.147 306.8 247.101 308.058ZM259.902 294.377C259.409 294.377 258.37 294.267 257.495 293.939C256.565 295.69 254.869 297.058 252.243 296.894C245.624 297.003 243.545 288.247 247.484 291.367C248.14 292.954 249.398 294.158 251.039 294.541C255.635 295.745 256.674 291.038 256.072 288.74C251.641 289.615 250.164 284.416 255.033 282.774C259.792 281.078 261.871 285.839 258.151 287.973C258.534 288.959 258.589 290.381 258.261 291.859C261.98 293.556 264.114 288.357 263.02 286.277C262.692 285.784 262.746 285.128 263.239 284.745C267.67 283.705 265.099 295.197 259.902 294.377ZM257.823 274.128C258.206 273.635 262.309 272.65 262.145 274.839C262.035 275.332 261.488 275.66 260.996 275.55C257.659 274.73 258.698 277.739 257.002 278.013C255.088 277.521 256.346 275.222 257.823 274.128ZM242.834 282.993C240.919 282.555 242.177 280.257 243.654 279.162C244.037 278.67 248.14 277.685 247.976 279.874C247.867 280.366 247.32 280.695 246.827 280.585C243.436 279.764 244.475 282.72 242.834 282.993Z" fill="#273664"/>
<path d="M195.788 311.233C188.074 311.233 178.446 310.138 167.287 306.69C126.368 293.994 93.5448 225.037 86.4332 182.241C86.2691 181.365 86.8708 180.49 87.8008 180.38C88.6761 180.216 89.5513 180.818 89.6608 181.748C93.4354 204.515 103.665 231.659 117.068 254.371C132.604 280.695 150.766 298.153 168.217 303.625C199.726 313.422 219.529 304.173 221.389 302.421C221.936 301.765 222.866 301.601 223.578 302.038C224.343 302.531 224.562 303.571 224.015 304.337C222.976 305.924 216.63 308.934 207.494 310.412C204.431 310.795 200.438 311.233 195.788 311.233Z" fill="#273664"/>
<path d="M132.221 124.176L158.917 102.066L180.525 102.996L154.759 124.887C154.54 125.106 154.212 125.215 153.939 125.215L132.549 125.106C132.112 125.051 131.893 124.504 132.221 124.176Z" fill="white"/>
<path d="M153.939 126.529L132.549 126.419C131.783 126.419 131.072 125.927 130.799 125.215C130.525 124.449 130.744 123.683 131.346 123.191L158.042 101.081C158.315 100.862 158.643 100.752 158.972 100.752L180.58 101.683C181.127 101.683 181.619 102.066 181.838 102.613C182.002 103.16 181.838 103.762 181.455 104.091L155.689 125.982C155.142 126.31 154.541 126.529 153.939 126.529ZM135.011 123.683L153.884 123.793L176.969 104.146L159.409 103.434L135.011 123.683Z" fill="#273664"/>
<path d="M112.199 150.39C112.692 150.937 112.637 151.813 112.09 152.305L111.488 152.853C111.214 153.072 110.886 153.181 110.558 153.181C110.175 153.181 109.792 153.017 109.519 152.743C109.026 152.196 109.081 151.32 109.628 150.828L110.23 150.281C110.832 149.733 111.707 149.788 112.199 150.39ZM118.217 143.166L116.794 144.425C116.247 144.917 116.193 145.793 116.685 146.34C116.958 146.669 117.341 146.778 117.724 146.778C118.053 146.778 118.381 146.669 118.654 146.45L120.077 145.191C120.624 144.698 120.678 143.823 120.186 143.275C119.694 142.728 118.818 142.673 118.217 143.166ZM126.204 136.051L124.781 137.31C124.234 137.803 124.179 138.678 124.672 139.226C124.945 139.554 125.328 139.663 125.711 139.663C126.039 139.663 126.368 139.554 126.641 139.335L128.064 138.076C128.611 137.584 128.665 136.708 128.173 136.161C127.626 135.614 126.805 135.559 126.204 136.051ZM135.339 129.758C134.847 129.211 133.972 129.156 133.425 129.648L132.823 130.196C132.276 130.688 132.221 131.564 132.713 132.111C132.987 132.439 133.37 132.549 133.753 132.549C134.081 132.549 134.409 132.44 134.683 132.221L135.285 131.673C135.777 131.236 135.832 130.36 135.339 129.758Z" fill="#273664"/>
<path d="M298.249 29.1147C298.031 20.0301 286.98 14.229 281.455 11.4379C278.72 9.90556 274.508 9.02993 270.514 10.8906C246.28 -14.7216 215.646 16.5275 212.746 45.2592C195.624 48.8712 181.838 83.8965 197.538 96.6479C200.492 98.5633 210.175 104.31 214.661 102.066C216.028 101.792 217.396 101.245 218.873 100.369L282.713 63.4833C292.505 57.6823 300.438 41.6472 298.249 29.1147Z" fill="white"/>
<path d="M299.617 28.8959C298.195 19.1545 292.451 15.9256 283.315 10.8908C279.869 8.86585 275.711 7.5524 270.952 9.24894C245.241 -15.4877 215.536 14.448 211.543 44.1648C194.366 48.4882 179.923 84.827 196.827 97.9067C198.085 98.7276 201.477 100.862 205.197 102.394C210.777 104.857 214.716 104.474 219.639 101.683L283.479 64.7421C293.709 58.6127 301.915 41.9757 299.617 28.8959ZM280.744 12.642C282.932 13.846 284.956 14.8311 287.91 16.6918C284.573 16.8013 280.689 18.7714 277.845 21.1247C276.751 17.1844 275 13.9555 272.702 11.5475C275.711 10.7813 278.665 11.4927 280.744 12.642ZM198.359 95.4987C183.534 83.9513 197.757 48.324 214.004 46.518C216.849 21.5078 239.442 -8.26371 263.95 7.11459C242.451 6.56732 227.845 31.3039 223.578 52.9211C208.206 57.4087 196.39 83.1304 203.829 98.6729C201.969 97.6878 200.109 96.648 198.359 95.4987ZM282.002 62.2794C277.626 64.7969 220.897 97.6331 218.162 99.2202C210.394 104.036 203.939 98.3445 204.267 88.822C204.65 75.0308 212.746 57.7371 225.985 55.3291C229.431 34.8065 242.177 11.9853 261.597 9.74148C270.624 9.5773 275.055 18.4978 276.039 26.5974C302.188 1.42298 303.665 50.0206 282.002 62.2794Z" fill="#273664"/>
<path d="M268.529 37.4293L254.877 29.2386C254.664 29.1106 254.451 29.068 254.237 29.1533C254.024 29.1959 253.811 29.3666 253.726 29.5372L240.245 52.9149C240.074 53.2561 240.117 53.6827 240.373 53.9387C240.629 54.1947 241.056 54.28 241.397 54.0667L245.535 51.7631V68.5284C245.535 68.827 245.705 69.1257 245.961 69.2536C246.089 69.339 246.26 69.3816 246.388 69.3816C246.516 69.3816 246.687 69.339 246.815 69.2536L263.367 59.9538C263.623 59.7831 263.793 59.5272 263.793 59.2285V41.482L268.529 38.8371C268.785 38.7091 268.955 38.4105 268.955 38.1119C268.955 37.8132 268.785 37.5999 268.529 37.4293Z" fill="#273664"/>
</svg>
