<svg width="300" height="333" viewBox="0 0 300 333" fill="none" xmlns="http://www.w3.org/2000/svg">
<path d="M260.006 230.116C260.246 230.068 81.8095 126.966 81.7136 126.87C76.6784 130.082 8.91944 166.942 1.67839 171.112C1.72635 185.156 1.63044 213.628 1.67839 227.72C1.53453 229.349 179.779 332.404 179.779 332.404C180.643 331.493 259.958 284.376 259.958 284.04C260.054 270.715 259.958 243.537 260.006 230.116Z" fill="white"/>
<path d="M261.397 229.206C259.239 228.151 83.5838 124.426 80.8983 125.432L69.821 131.663C69.4373 131.951 0.911125 169.53 0.623402 169.817C0.23977 170.153 0 170.632 0 171.112V229.253C0 230.164 0.767264 230.931 1.67839 230.931C2.58951 230.931 3.35678 230.164 3.35678 229.253V174.515C37.2123 194.215 143.191 257.773 178.437 278.911V331.062C178.437 331.733 178.964 332.26 179.636 332.26C180.307 332.26 180.834 331.733 180.834 331.062V278.911L258.328 233.04L258.28 284.663C258.28 285.574 259.047 286.341 259.958 286.341C260.87 286.341 261.637 285.574 261.637 284.663L261.685 230.116C261.685 229.781 261.589 229.445 261.397 229.206ZM5.75448 171.543C13.7148 167.085 74.6643 132.67 81.234 129.171L256.506 230.068L255.307 230.787L180.211 274.933C144.533 253.891 39.4661 192.01 5.75448 171.543Z" fill="#273664"/>
<path d="M127.365 174.419L90.5366 195.558L119.405 212.621L156.09 190.956L127.365 174.419Z" fill="white"/>
<path d="M162.036 191.723C162.036 191.004 161.653 190.333 161.029 189.997L127.509 171.16C126.886 170.824 127.078 170.824 126.454 171.16L85.4538 194.695C84.8304 195.03 84.4468 195.701 84.4468 196.42C84.4468 196.756 84.4468 197.906 84.4468 198.242C84.4468 198.961 84.8304 199.632 85.4538 199.967L118.494 219.38C118.83 219.571 119.165 219.667 119.501 219.667C119.837 219.667 120.22 219.571 120.508 219.38L161.077 195.27C161.701 194.886 162.084 194.215 162.084 193.496C162.036 193.209 162.036 192.058 162.036 191.723ZM119.645 211.519L92.503 195.462L127.174 175.522L154.22 191.1L119.645 211.519ZM123.098 204.856C121.227 204.856 119.453 204.425 118.11 203.658L106.745 197.091C105.211 196.228 104.396 194.982 104.396 193.64C104.396 192.298 105.211 191.1 106.745 190.189L118.11 183.622C120.892 181.993 125.256 181.993 128.085 183.622L139.45 190.189C140.984 191.052 141.8 192.298 141.8 193.64C141.8 194.982 140.984 196.181 139.45 197.091L128.085 203.658C126.742 204.425 124.968 204.856 123.098 204.856ZM123.098 184.389C121.611 184.389 120.172 184.725 119.07 185.348L107.704 191.915C106.793 192.442 106.314 193.065 106.314 193.688C106.314 194.311 106.793 194.934 107.704 195.462L119.07 202.028C120.125 202.651 121.563 202.987 123.098 202.987C124.632 202.987 126.071 202.651 127.126 202.028L138.491 195.462C139.402 194.934 139.882 194.311 139.882 193.688C139.882 193.065 139.402 192.442 138.491 191.915L127.126 185.348C126.023 184.725 124.584 184.389 123.098 184.389ZM111.301 195.557L108.951 194.215C108.52 193.976 108.52 193.544 108.951 193.305L111.301 191.962C111.733 191.723 112.452 191.723 112.931 191.962L115.281 193.305C115.713 193.544 115.713 193.976 115.281 194.215L112.931 195.557C112.452 195.797 111.733 195.797 111.301 195.557ZM122.81 188.559L120.46 187.217C120.029 186.978 120.029 186.546 120.46 186.306L122.81 184.964C123.242 184.725 123.961 184.725 124.44 184.964L126.79 186.306C127.222 186.546 127.222 186.978 126.79 187.217L124.44 188.559C123.961 188.847 123.242 188.847 122.81 188.559ZM121.899 200.974L119.549 199.632C119.117 199.392 119.117 198.961 119.549 198.721L121.899 197.379C122.33 197.139 123.05 197.139 123.529 197.379L125.879 198.721C126.311 198.961 126.311 199.392 125.879 199.632L123.529 200.974C123.05 201.213 122.33 201.213 121.899 200.974ZM134.127 194.599L131.777 193.257C131.346 193.017 131.346 192.586 131.777 192.346L134.127 191.004C134.559 190.764 135.278 190.764 135.758 191.004L138.107 192.346C138.539 192.586 138.539 193.017 138.107 193.257L135.758 194.599C135.326 194.886 134.607 194.886 134.127 194.599ZM122.139 195.941C121.995 195.941 121.899 195.893 121.755 195.845L114.034 191.243C113.699 191.052 113.603 190.62 113.795 190.237C113.986 189.901 114.418 189.806 114.802 189.997L122.522 194.599C122.858 194.79 122.954 195.222 122.762 195.605C122.618 195.845 122.378 195.941 122.139 195.941ZM132.784 197.762C132.641 197.762 132.545 197.714 132.401 197.666L124.68 193.065C124.44 192.921 124.344 192.681 124.344 192.442C124.344 192.202 124.488 191.962 124.68 191.819L129.955 188.751C130.291 188.559 130.722 188.655 130.962 188.991C131.154 189.326 131.058 189.758 130.722 189.997L126.502 192.442L133.168 196.42C133.504 196.612 133.6 197.043 133.408 197.427C133.264 197.618 133.024 197.762 132.784 197.762ZM119.741 191.435C119.597 191.435 119.453 191.387 119.357 191.339L116.624 189.614C116.288 189.422 116.192 188.943 116.384 188.607C116.576 188.272 117.055 188.176 117.391 188.368L119.693 189.853L120.988 188.991C121.323 188.751 121.755 188.847 121.995 189.182C122.234 189.518 122.139 189.949 121.803 190.189L120.125 191.291C120.029 191.387 119.885 191.435 119.741 191.435ZM117.199 198.577C117.055 198.577 116.96 198.529 116.816 198.481L114.226 196.947C113.891 196.756 113.747 196.324 113.986 195.941C114.178 195.605 114.61 195.462 114.993 195.701L117.583 197.235C117.919 197.427 118.062 197.858 117.823 198.242C117.679 198.481 117.439 198.577 117.199 198.577ZM127.749 198.817C127.605 198.817 127.509 198.769 127.366 198.721L124.201 196.852C123.865 196.66 123.721 196.228 123.961 195.845C124.153 195.509 124.584 195.366 124.968 195.605L128.133 197.475C128.469 197.666 128.612 198.098 128.373 198.481C128.229 198.673 127.989 198.817 127.749 198.817Z" fill="#273664"/>
<path d="M275.4 90.8734L263.987 97.4401C250.607 87.7099 244.805 81.6225 224.281 73.474C227.733 71.317 228.597 68.8725 230.755 65.3255C235.982 65.9486 239.53 58.1356 237.18 53.3903C248.306 37.1892 235.502 13.2231 215.649 13.7982C182.513 15.9073 166.448 63.504 200.687 76.4458C178.437 75.7747 171.292 104.39 165.969 124.378C165.825 125.289 162.468 123.563 158.392 122.029C155.515 117.715 147.89 117.715 144.054 121.646C143.191 121.358 142.423 121.358 141.896 120.639C144.533 119.297 144.677 115.271 141.081 115.702C143.191 114.025 140.889 110.574 138.539 111.916C138.731 106.691 132.641 110.43 131.538 112.491C130.866 111.724 129.668 102.809 126.215 102.904C124.968 103.048 123.865 104.294 124.249 105.493C126.694 112.012 126.694 114.408 129.524 116.996C128.756 118.578 130.147 120.496 131.921 120.256C132.497 123.467 140.889 128.692 141.177 128.884C139.786 134.3 144.917 137.464 142.855 137.224C150.767 145.804 168.75 154.863 181.314 147.242C181.17 160.567 188.555 165.121 205.675 169.147L205.627 192.49L228.741 205.671L298.322 165.6V104.246L275.4 90.8734Z" fill="white"/>
<path d="M280.412 115.03C283.719 123.563 283.268 137.186 279.359 144.671C279.209 145.12 279.359 147.964 278.758 148.114C278.908 152.754 281.163 164.88 275.601 162.934C275.902 165.329 272.895 167.126 271.542 164.731C271.843 167.425 268.686 169.521 267.333 166.677C266.882 168.174 264.477 168.323 263.725 166.976C262.974 164.731 264.176 162.934 264.327 159.042C263.124 161.437 258.464 163.832 258.915 159.341C261.02 157.096 262.373 151.257 265.529 149.012L266.431 143.473L264.928 141.976V125.359L263.876 124.461L229 144.521V205L298 165.479V105L280.412 115.03Z" fill="#CFDCF6"/>
<path d="M204.667 58.471C203.996 58.471 203.469 57.9438 203.469 57.2727C203.564 56.2661 202.989 53.8216 204.667 53.8216C205.339 53.8216 205.866 54.3488 205.866 55.0199C205.77 56.0265 206.346 58.471 204.667 58.471ZM191.768 52.7192V50.3705C191.768 48.8366 189.37 48.8366 189.37 50.3705V52.7192C189.37 54.3009 191.816 54.3009 191.768 52.7192ZM207.545 65.8047C208.264 64.9898 206.921 63.8874 206.25 64.7502C203.469 68.0575 198.098 66.7154 196.515 64.4626C196.275 64.0791 195.796 63.8874 195.364 64.127C194.981 64.3667 194.789 64.846 195.029 65.2774C197.139 68.9203 204.907 69.6393 207.545 65.8047ZM198.529 62.2577C199.632 62.1618 199.44 60.4842 198.338 60.58C197.81 60.628 197.043 60.4362 196.611 60.0049C195.988 59.4776 196.803 58.1355 195.7 57.8958C194.022 57.8 194.597 60.3883 195.364 61.1073C196.228 62.0659 197.474 62.3535 198.529 62.2577ZM209.175 50.9936C209.463 50.4184 209.271 49.6994 208.648 49.3639L204.284 47.0631C203.708 46.7755 202.989 46.9673 202.653 47.5904C202.366 48.1656 202.557 48.8846 203.181 49.2201L207.545 51.5208C208.12 51.8084 208.887 51.6167 209.175 50.9936ZM187.74 45.6252L191.96 45.3376C193.494 45.2417 193.35 42.7972 191.816 42.941L187.596 43.2286C186.061 43.3244 186.205 45.769 187.74 45.6252ZM174.169 149.926C174.217 149.015 173.449 148.248 172.538 148.2C160.646 147.865 151.055 143.743 144.054 136.025C142.567 134.396 140.073 136.649 141.56 138.278C149.185 146.714 159.591 151.172 172.442 151.556C173.354 151.603 174.169 150.885 174.169 149.926ZM182.129 161.19C183.04 161.142 183.807 160.375 183.76 159.464C183.376 144.989 182.752 134.588 182.321 127.014C181.362 111.149 181.122 106.403 184.431 97.5838C185.198 95.5706 182.081 94.3244 181.314 96.3855C177.717 105.876 178.053 111.244 179.012 127.206C179.444 134.779 180.067 145.133 180.451 159.56C180.403 160.471 181.218 161.19 182.129 161.19ZM279.715 147.194C279.476 146.139 277.797 146.571 278.085 147.625C278.996 151.124 278.564 160.135 278.181 161.717C278.037 162.34 277.414 162.772 276.79 162.628C277.03 160.759 277.27 158.41 277.414 157.212C277.462 156.732 277.126 156.349 276.646 156.301C276.167 156.253 275.783 156.588 275.735 157.068C275.543 158.937 275.256 161.573 274.968 163.491C275.016 164.833 273.721 166.031 272.666 164.833C273.05 162.388 273.481 158.889 273.577 158.218C273.721 157.164 271.995 156.972 271.899 158.074C271.851 158.745 271.323 162.724 270.94 165.12C270.844 165.696 270.748 166.175 270.7 166.51C270.508 167.469 269.166 167.805 268.542 166.99C269.022 165.216 269.645 159.225 269.741 158.314C269.885 157.212 268.158 157.068 268.063 158.17C267.823 160.327 267.295 164.881 266.912 166.51C266.72 167.517 265.233 167.805 264.706 166.894C264.514 166.606 264.466 166.271 264.562 165.983C264.85 164.833 265.185 162.053 265.425 159.608C266.001 158.985 266.528 158.41 266.72 158.074C267.343 157.164 265.905 156.253 265.329 157.164C265.233 157.307 265.089 157.499 264.898 157.739C263.987 158.793 262.836 159.992 261.733 161.094C261.301 161.525 260.63 161.525 260.246 161.094C259.814 160.711 259.814 159.992 260.246 159.608C261.109 158.745 261.877 157.307 263.075 154.719C263.267 154.288 263.171 153.041 264.898 151.364C265.473 150.837 265.953 150.549 266.624 149.542C267.295 148.584 267.343 146.475 267.343 145.852C267.343 144.749 265.665 144.749 265.665 145.852C265.665 146.906 265.473 148.248 265.233 148.584C264.658 149.399 264.226 149.638 263.699 150.166C262.02 151.747 261.589 153.617 261.493 154.144C260.438 156.349 259.719 157.787 259.047 158.458C258.52 158.985 258.232 159.656 258.28 160.423C258.376 163.347 262.02 164.066 263.555 161.717C263.459 164.833 262.308 165.696 263.315 167.9C264.178 169.386 266.336 169.722 267.631 168.572C269.261 170.057 272.091 169.051 272.378 166.846C274.153 167.805 276.407 166.462 276.55 164.449C278.037 164.737 279.524 163.778 279.859 162.244C280.243 160.375 280.722 150.98 279.715 147.194ZM300 104.246V165.552C300 166.175 299.664 166.702 299.137 166.99L229.556 207.061C228.788 207.54 227.733 207.253 227.302 206.486L204.763 193.88C204.236 193.592 203.9 193.017 203.9 192.394L204.044 130.945C204.044 130.465 204.284 129.986 204.619 129.65L205.003 108.225C203.373 107.889 202.27 106.068 202.845 104.486C203.133 103.719 204.14 99.8366 204.715 99.3093C202.51 97.9193 200.783 95.331 199.105 93.174C195.556 88.4766 192.343 83.4917 195.652 78.7464C179.108 81.0951 172.011 105.636 168.079 125.145C171.819 127.637 172.346 128.596 172.538 129.315C172.826 130.369 171.963 131.424 170.908 131.376C170.236 131.376 169.613 130.945 169.325 130.322C168.606 129.411 164.626 126.775 160.742 124.522C162.995 137.272 141.896 142.448 139.882 128.788C137.772 127.733 135.566 126.056 133.456 123.563C132.305 123.18 131.49 122.077 131.49 120.879C131.49 120.879 131.49 120.831 131.442 120.831C129.572 120.831 128.133 118.866 128.612 117.092L127.701 116.373C127.318 115.942 127.222 115.367 126.934 114.887C126.071 112.97 125.112 110.861 123.817 106.739L114.226 94.7078C113.459 93.9889 114.226 91.736 114.226 90.8253C114.322 89.6749 115.761 88.956 116.768 89.5791L117.391 89.9625L135.997 98.4945C136.189 98.5904 136.381 98.7342 136.573 98.9259L153.021 117.524C154.699 117.811 156.282 118.434 157.577 119.441C157.96 119.345 158.44 119.345 158.823 119.585C160.406 120.4 162.804 121.79 165.153 123.228C169.182 103.096 175.655 79.5612 194.597 75.487C179.588 67.003 175.368 46.1045 184.671 31.4372C183.328 29.8075 182.417 27.9861 182.177 25.925C181.458 16.1947 188.795 12.7915 200.687 16.3865C202.749 15.0444 205.003 13.9899 207.401 13.2229C220.444 -8.77799 255.067 0.425013 255.067 26.4043C255.067 36.4222 249.313 45.0979 240.921 49.316C240.345 50.7539 239.674 52.096 238.907 53.4381C241.017 58.9983 237.132 66.6674 231.57 66.8592C230.227 68.9682 228.596 70.8855 226.774 72.5152C226.774 72.5631 227.014 73.8573 227.014 73.9052C227.302 74.049 227.637 74.1928 227.925 74.3366C228.357 73.8573 229.076 73.7135 229.699 73.9532C239.866 77.6439 246.339 82.4372 250.224 85.3131C254.971 88.6684 259.047 91.1609 264.082 95.283L274.488 89.2915C275.016 89.0039 275.639 89.0039 276.167 89.2915L299.089 102.665C299.712 103.096 300 103.671 300 104.246ZM129.811 114.168C130.051 113.545 130.387 112.922 130.818 112.299C130.339 110.669 129.572 108.608 128.181 105.109C127.797 103.719 126.167 102.856 125.112 104.342C124.968 104.534 124.872 104.869 124.968 105.205C126.215 109.231 127.414 112.155 128.9 115.415L129.236 115.702C129.38 115.223 129.572 114.696 129.811 114.168ZM132.784 117.092C133.648 114.887 135.662 112.73 137.916 111.436C137.388 107.793 133.168 111.532 132.353 112.587C131.154 113.977 130.77 115.654 130.147 117.332C129.667 118.434 130.674 119.633 131.825 119.489C132.161 118.674 132.449 117.859 132.784 117.092ZM136.285 119.537C136.765 118.099 138.683 115.75 140.697 115.031C142.279 113.066 139.642 111.388 138.059 113.018C135.086 114.839 133.935 117.619 133.024 120.591C132.88 121.31 133.36 122.125 134.127 122.317C134.511 122.461 134.99 122.413 135.374 122.221C135.662 121.31 135.949 120.447 136.285 119.537ZM158.056 123.803C157.673 122.94 157.097 122.221 156.378 121.598C156.474 122.029 156.426 122.509 156.186 122.892C156.042 123.132 156.138 124.761 155.754 125.385C155.131 126.535 153.74 126.151 152.733 125.912C152.398 126.056 152.11 125.912 151.822 125.72C149.808 124.522 145.013 122.7 142.231 121.885C142.423 122.461 142.231 124.618 140.985 123.803C140.649 123.563 140.697 123.132 140.841 122.748C140.649 121.166 140.889 120.304 142.375 119.345C144.725 117.284 141.656 115.175 139.786 117.332C138.107 118.722 137.724 119.776 137.196 121.358C136.717 122.461 136.093 124.186 137.676 124.713L139.69 125.528C140.457 125.816 140.121 127.014 139.354 126.918C144.197 129.986 148.513 129.027 151.87 126.056C152.637 125.576 153.405 126.822 152.637 127.302C150.336 129.315 146.739 131.136 142.615 129.938C145.876 139.381 161.845 132.91 158.056 123.803ZM266.96 97.6796C271.755 101.61 276.167 105.541 278.9 108.225C279.907 109.183 280.722 110.525 281.442 112.059L295.013 104.246L275.448 92.7906L266.96 97.6796ZM208.983 16.4344C227.014 16.2906 236.221 31.8686 238.091 47.9259C245.284 29.9513 227.494 10.6825 208.983 16.4344ZM200.879 74.7201C210.71 78.1712 222.314 74.8639 228.261 66.1881C225.575 65.1336 227.014 61.4428 229.508 62.9767C230.131 63.5039 230.946 63.7436 231.809 63.5998C236.125 62.737 237.9 55.4992 234.543 52.5754C231.666 53.8695 229.268 59.4297 226.007 59.5255C223.801 59.5255 222.746 57.2248 222.219 55.3075C218.382 45.0021 196.467 41.8385 187.404 34.0735C187.308 34.1214 187.212 34.1694 187.164 34.2173C178.389 48.597 184.719 69.4955 200.879 74.7201ZM207.401 97.3441C209.175 97.6796 212.34 96.002 214.546 95.283C217.999 94.0847 221.787 92.9823 224.664 91.1609C230.994 87.0866 234.351 81.6223 227.685 77.596L228.069 80.0406C228.357 81.5744 225.911 81.9578 225.719 80.424C225.527 79.1298 224.952 75.6308 224.76 74.3846C219.054 78.6026 211.429 80.2323 204.284 78.986L204.763 82.6289C204.859 83.3479 204.284 83.971 203.564 83.971C202.989 83.971 202.462 83.5396 202.366 82.9165C202.366 82.3413 201.646 78.9381 202.078 78.5067C201.598 78.4109 201.119 78.2671 200.639 78.1233C195.077 82.0537 196.803 84.9776 201.455 91.4005C203.133 93.6054 205.339 96.9607 207.401 97.3441ZM207.401 106.02C207.784 106.068 207.497 101.37 207.593 101.179C207.593 100.795 207.161 100.508 206.825 100.699C206.538 100.508 205.291 105.109 205.195 105.253C205.147 105.636 205.243 105.828 205.627 105.924C205.914 105.924 207.209 106.307 207.401 106.02ZM226.822 145.133L208.887 134.683L207.401 133.821L207.257 191.435L226.774 202.364V145.133H226.822ZM237.132 137.559L231.474 134.156L238.235 130.178L244.038 133.629C247.922 131.376 257.081 126.104 261.061 123.803C256.362 120.064 247.874 115.415 242.311 111.916L209.175 130.993L210.566 131.807L228.932 142.305L237.132 137.559ZM242.599 134.396L238.235 131.807L234.255 134.156L238.523 136.744L242.599 134.396ZM240.729 145.852L244.325 143.647L244.373 137.272L240.729 139.381V145.852ZM296.643 107.17L282.593 115.271C284.319 121.166 285.566 135.978 282.832 140.435C282.545 148.488 264.994 148.728 264.274 140.771C264.226 139.237 266.672 139.189 266.672 140.723C267.535 145.564 280.77 145.372 280.483 139.86C280.291 139.525 280.195 139.141 280.291 138.71C281.442 131.616 281.49 120.975 278.565 113.737C277.989 112.443 277.366 111.388 276.598 110.621C273.29 107.362 266.384 101.323 261.061 97.2003C256.362 93.4137 252.765 91.3046 248.306 88.0932C245.236 85.7924 240.393 82.2454 233.296 79.0819C235.981 84.7379 232.385 89.4353 226.199 93.6054C221.26 96.4334 215.169 98.0631 209.751 100.028C210.182 100.747 209.942 104.774 209.99 105.588C210.038 107.026 208.887 108.321 207.497 108.464L207.113 128.26L239.722 109.471C239.482 108.033 241.256 106.979 242.407 107.937C244.469 109.327 247.107 110.909 249.504 112.347C254.971 115.942 264.13 120.352 266.24 124.666C266.288 124.713 266.72 136.649 266.72 136.744C266.816 138.949 263.459 139.093 263.363 136.888L262.932 126.583L245.764 136.457L245.716 144.509L239.242 148.44V140.244L230.467 145.276V202.699L296.691 164.545V107.17H296.643ZM167.935 22.9053C168.27 22.3301 168.031 21.6111 167.455 21.2756L158.536 16.3385C157.96 16.003 157.241 16.2427 156.905 16.8179C156.57 17.393 156.809 18.112 157.385 18.4476L166.304 23.3846C166.88 23.6722 167.599 23.4804 167.935 22.9053ZM174.408 16.5782C175.032 16.3385 175.32 15.6675 175.08 15.0444L171.723 6.17689C171.483 5.55377 170.812 5.26618 170.189 5.50584C169.565 5.7455 169.277 6.41655 169.517 7.03967L172.874 15.9071C173.114 16.4823 173.785 16.8179 174.408 16.5782Z" fill="#273664"/>
<path d="M210.95 221.92C210.902 220.961 210.71 220.338 210.71 220.338L203.229 223.358L200.448 221.728L206.538 219.332L206.586 216.743L206.442 216.456C201.982 215.353 197.187 214.826 193.063 217.175C191.001 218.373 190.953 221.057 190.185 222.879L182.369 226.282C182.369 226.282 175.991 228.583 174.457 229.781L167.311 232.321L163.523 230.979C157.769 229.11 153.261 233.28 152.781 238.936H152.733V242.195L160.454 239.224L162.084 240.134C161.365 240.374 157.145 242.052 156.474 241.908L156.618 244.927C160.694 247.468 163.763 248.858 168.51 246.797C171.196 245.503 172.347 241.908 173.162 239.224L180.786 236.204C180.786 236.204 181.026 236.012 181.314 235.772L181.554 235.868L195.892 231.123L200.304 232.465C204.955 233.711 210.086 229.493 210.662 224.892C210.614 223.885 210.997 222.831 210.95 221.92Z" fill="white"/>
<path d="M211.621 222.495C211.573 221.105 211.669 219.38 210.374 219.667L210.038 219.811L203.325 222.543L202.174 221.872L206.729 220.003C207.017 219.907 207.161 219.619 207.161 219.332L207.209 216.743C207.209 216.743 207.401 215.833 206.49 215.737L203.373 215.114C198.961 214.347 192.967 214.826 190.473 218.661L189.658 221.681C184.239 224.077 172.251 229.206 166.784 231.171L163.619 230.308C157.625 228.343 152.446 232.657 151.966 238.649C151.822 238.696 151.918 242.052 151.918 242.243C151.918 242.723 152.446 243.106 152.877 242.915L155.658 241.812C155.658 242.148 155.706 245.024 155.898 245.263C156.474 246.605 159.639 248.906 163.235 248.666C169.134 248.618 172.346 245.551 173.641 240.134L195.844 231.794C198.769 232.465 201.982 233.568 205.674 232.082C209.415 230.5 212.004 226.378 211.621 222.495ZM205.77 218.853L200.543 220.962L199.44 220.29L205.818 217.462L205.77 218.853ZM153.836 236.971C154.556 232.801 159.255 230.165 163.235 231.65C163.571 231.698 166.88 232.801 167.167 232.609C172.778 230.644 185.102 225.371 190.665 222.879C191.24 222.783 191.672 219.715 191.912 219.284C194.309 215.977 200.208 215.833 204.092 216.696L197.618 219.571C197.091 219.763 197.043 220.578 197.57 220.866L202.893 223.981C203.133 224.125 203.421 224.125 203.708 224.029L210.182 221.345C211.237 225.132 204.667 228.918 200.735 227.624C200.687 227.624 196.371 226.809 196.323 226.809C195.844 226.665 173.066 235.868 172.634 235.916C172.059 236.06 171.963 237.594 171.771 237.977C170.236 243.538 162.852 244.976 158.344 242.243L163.859 240.23C164.53 239.895 167.024 239.511 165.777 238.313L160.885 235.102C160.694 234.958 160.454 234.958 160.214 235.054C158.584 235.725 155.323 237.115 153.74 237.786C153.692 237.69 153.836 237.019 153.836 236.971ZM153.405 241.141V239.415L160.358 236.492L163.715 238.696L162.084 239.272C161.653 239.128 160.598 238.217 160.118 238.505C160.118 238.553 153.405 241.141 153.405 241.141ZM171.675 241.764C170.189 247.756 160.358 249.05 157.289 244.688L157.241 243.346C161.701 246.174 168.846 245.551 172.011 240.853L171.675 241.764ZM205.195 230.74C203.277 232.034 197.522 230.884 196.084 230.308C195.94 230.26 195.796 230.26 195.652 230.308L172.97 238.84C173.114 238.505 173.353 237.45 173.449 237.115L196.228 228.247C201.598 229.35 205.051 230.356 209.559 226.426C208.696 228.295 207.065 229.925 205.195 230.74Z" fill="#273664"/>
<path d="M84.5432 163.97C84.2076 175.809 35.822 175.761 35.4863 163.97C35.822 152.179 84.2076 152.179 84.5432 163.97Z" fill="#CFDCF6"/>
<path d="M79.9396 143.646C76.5828 131.903 47.9064 132.239 43.3028 142.736C41.9601 145.66 42.4396 150.405 45.4128 152.754C44.9332 156.013 44.9332 159.081 45.173 160.662C46.9952 172.741 75.5278 172.789 77.1103 160.662C77.2542 159.177 77.8296 156.828 76.6787 153.329C80.2273 150.74 80.9946 146.666 79.9396 143.646ZM20.5247 73.138C22.5867 67.7217 29.5879 66.2358 37.0688 68.6803C48.5777 72.4191 57.1135 82.1493 60.5662 93.5093C62.6282 100.316 59.0317 104.246 56.6819 105.588C47.1871 109.758 40.3296 97.7752 31.9377 90.5854C25.7516 84.8815 18.8942 79.561 20.5247 73.138ZM64.3546 108.416C61.0457 102.952 66.1768 94.372 70.4447 89.6267C74.7126 84.8815 84.0636 79.3692 90.1538 78.0751C106.506 73.6653 115.665 84.3542 99.0253 95.6183C89.0509 102.76 85.0707 108.368 80.3232 110.909C73.8974 114.408 67.6634 113.881 64.3546 108.416ZM109.192 136.505C106.027 139.908 101.375 136.6 95.3328 133.533C84.6391 128.116 78.7887 129.794 74.5208 128.74C66.7523 126.774 67.04 122.508 70.7804 118.818C74.4729 115.127 79.3642 113.641 86.5573 114.12C93.4626 114.599 100.032 118.051 104.108 121.646C109.239 126.151 112.548 132.862 109.192 136.505ZM46.3239 119.872C43.7823 117.523 40.953 115.702 37.5963 115.606C34.4313 117.188 31.1704 119.441 28.1014 122.029C21.4837 127.637 11.6052 127.541 9.06365 122.988C4.98757 113.976 19.7094 106.355 29.0605 106.02C36.1576 105.396 46.3239 107.17 54.2842 116.373C56.2983 118.482 56.3942 119.153 56.634 120.16C57.8808 124.617 51.2152 124.33 46.3239 119.872Z" fill="white"/>
<path d="M61.1416 171.352C53.6128 171.352 45.3167 168.14 43.7343 160.902C43.4465 159.177 43.4945 156.253 43.8302 153.377V153.281L43.7343 153.185C41.2407 150.789 40.6652 146.666 41.3845 143.886C43.1109 136.744 52.1742 134.348 57.4011 133.533L57.6889 133.485L57.593 133.245C56.6339 129.938 55.3391 127.206 53.7087 124.857L53.6607 124.761H53.5169C50.1601 124.665 47.6665 122.7 45.2208 120.783C42.9191 118.962 40.7132 117.236 37.9318 117.044H37.8839L37.8359 117.092C35.2464 118.386 32.9926 120.112 30.8347 121.694C26.7106 124.809 22.7784 127.733 16.928 127.733C15.9689 127.733 14.9139 127.637 13.859 127.493C10.1185 126.774 7.67289 124.713 7.04949 121.742C6.23427 117.955 8.48811 113.449 12.8519 110.286C18.2228 106.451 24.8884 104.342 31.554 104.342C37.8359 104.342 47.0431 106.259 55.3391 115.367C57.3052 117.332 58.3602 119.441 58.2643 121.214C58.2164 122.269 57.7368 123.18 56.8737 123.899L56.7298 124.042L56.8257 124.234C57.8327 125.816 58.6959 127.541 59.4152 129.459L59.8948 129.363C59.4632 122.269 58.2643 114.696 56.3941 107.554L56.3462 107.314L56.1064 107.41C55.0514 107.697 53.9964 107.889 52.9414 107.889C46.7074 107.889 41.6243 102.521 36.685 97.2961C34.7189 95.1871 32.8487 93.2219 30.9306 91.6401C30.3551 91.1129 29.7797 90.5856 29.1563 90.0104C23.6416 85.0255 17.3596 79.3695 19.1339 72.8027C20.6205 68.6326 24.8404 66.1401 30.451 66.1401C32.7049 66.1401 35.1026 66.5236 37.5482 67.3384C49.6806 71.3168 62.3884 84.1627 62.5322 98.8779L63.0118 98.9738C64.3065 95.5706 66.5124 92.0236 69.4376 88.7642C75.288 81.814 88.6671 75.6787 98.1141 75.6787C101.711 75.6787 106.362 76.5894 108.424 80.8074C111.829 87.3262 105.211 93.0781 99.8884 96.8647C95.8602 99.5969 92.935 102.329 90.1057 104.917C87.1805 107.602 84.4472 110.142 80.8506 112.347L80.9945 112.778C82.0015 112.682 83.0086 112.587 84.0635 112.587C96.052 112.587 110.486 120.735 112.021 132.431C112.117 134.396 111.541 136.169 110.294 137.463C109 138.758 107.609 139.381 105.931 139.381C103.341 139.381 100.56 137.895 97.8743 136.409C96.8193 135.834 95.7643 135.259 94.7093 134.779C87.4203 131.088 82.6249 130.849 78.7407 130.609C74.9523 130.561 71.2119 129.459 69.1019 127.829L68.9101 127.685L68.7662 127.877C67.6153 129.507 66.6563 131.28 65.889 133.245L65.7931 133.533L66.0808 133.581C72.0271 134.492 79.5559 136.936 81.3781 143.359C82.3852 146.235 81.9056 150.693 78.4529 153.712L78.357 153.808L78.405 153.952C79.6038 158.266 79.0284 162.005 76.7266 165.024C73.6575 169.003 67.8551 171.352 61.1416 171.352ZM46.5636 155.869C45.9402 158.889 46.4676 161.477 48.146 163.587C50.5917 166.654 55.483 168.476 61.1416 168.476C68.1428 168.476 75.3839 165.552 75.7675 159.944C75.9114 158.985 76.0552 157.787 75.8634 156.205L75.8155 155.821L75.4798 156.013C72.0271 158.218 66.896 159.464 61.4772 159.464C55.7707 159.464 50.4958 158.122 46.8992 155.774L46.6115 155.582L46.5636 155.869ZM58.2164 136.361C51.1671 137.32 46.4676 139.764 44.5974 143.407C42.8231 148.632 45.3647 152.514 52.1742 155.007C54.9075 156.013 58.2164 156.588 61.5252 156.588C64.1627 156.588 66.7522 156.253 69.006 155.534C73.6096 154.288 77.0143 151.939 78.357 149.063C79.2202 147.194 79.2202 145.181 78.2611 143.119C76.7745 139.812 71.4996 137.08 65.0738 136.361L64.882 136.313L64.834 136.505C64.6901 136.984 64.5942 137.511 64.4504 138.039L64.4024 138.278L64.6422 138.326C69.3417 138.853 73.178 140.627 75.8634 143.455L75.9593 143.551L76.1032 143.503C76.247 143.455 76.343 143.455 76.4868 143.455C76.9664 143.455 77.3979 143.743 77.6857 144.174C77.9254 144.605 77.9734 145.085 77.7816 145.468C77.2061 146.714 76.4868 147.817 75.6716 148.728C73.0821 151.747 67.7113 153.617 61.6691 153.617C55.8187 153.617 48.146 151.603 45.6524 145.995C47.7144 141.825 52.7496 138.806 58.552 138.23L58.7918 138.182L58.7439 137.943C58.6479 137.415 58.552 136.936 58.4561 136.409L58.4082 136.169L58.2164 136.361ZM82.1454 121.358C77.9734 121.358 73.9453 122.413 70.1569 124.426L69.8692 124.57L70.061 124.809C72.3628 127.254 75.5757 127.541 79.6997 127.877C84.1115 128.26 89.6262 128.74 95.9082 132.239C96.4836 132.526 97.0111 132.814 97.6345 133.149C100.56 134.731 103.869 136.505 106.074 136.505C107.033 136.505 107.705 136.169 108.136 135.498C108.952 134.396 111.11 130.082 103.149 122.7C98.9772 118.482 90.7291 115.462 83.584 115.462C77.1102 115.462 72.2669 117.955 69.9171 122.461L69.5815 123.132L70.2528 122.796C73.9932 120.927 78.0213 119.968 82.2413 119.968C89.0508 119.968 96.052 122.556 100.943 126.918C101.087 127.062 101.183 127.206 101.183 127.398C101.183 127.589 101.135 127.781 100.991 127.925C100.847 128.069 100.656 128.165 100.464 128.165C100.272 128.165 100.128 128.117 99.9843 127.973C96.5795 124.905 89.818 121.358 82.1454 121.358ZM67.5674 113.689C66.0329 118.386 64.7861 123.755 63.8749 129.602L64.3065 129.746C65.0738 128.165 66.0329 126.727 67.0399 125.384L67.1358 125.289L67.0878 125.097C67.0399 125.001 67.0399 124.953 67.0399 124.857C66.0808 122.317 68.7183 117.428 73.5137 114.935L73.3698 114.504C73.13 114.504 72.8423 114.552 72.6025 114.552C70.9242 114.552 69.3417 114.216 67.951 113.545L67.7112 113.449L67.5674 113.689ZM31.2662 107.362C24.3129 107.602 19.038 109.279 14.6262 112.587C11.1256 115.223 9.25537 118.53 9.87878 121.071C10.1665 122.365 11.1735 123.994 14.4344 124.618C15.0578 124.761 15.7292 124.809 16.4964 124.809C19.5175 124.809 24.3609 123.611 27.9095 120.256C30.1153 118.434 33.568 115.894 37.4043 114.072C40.5693 112.587 43.3986 111.772 46.0361 111.724L46.8513 111.676L46.132 111.244C43.8781 109.902 41.4325 108.848 38.843 108.177H38.795H38.7471C38.5552 108.177 38.4114 108.177 38.2196 108.177C30.0674 108.177 21.7714 113.21 18.7503 117.859C18.6064 118.051 18.4146 118.195 18.1269 118.195C17.983 118.195 17.8391 118.147 17.7432 118.099C17.5994 118.003 17.4555 117.811 17.4555 117.667C17.4555 117.524 17.4555 117.284 17.5514 117.14C20.1409 113.162 25.5597 109.519 31.3621 107.841L31.2662 107.362ZM46.3238 114.6C45.2208 114.6 44.0699 114.743 42.9191 115.079L42.2957 115.271L42.8711 115.558C44.3577 116.277 45.5565 117.332 46.7554 118.338C47.9063 119.345 49.0092 120.256 50.304 120.927C51.6467 121.598 52.9894 121.981 53.9964 121.981C54.5239 121.981 54.9075 121.885 55.1473 121.694C55.483 121.502 55.3391 120.831 55.1473 120.304V120.256C53.0373 116.469 50.0642 114.6 46.3238 114.6ZM61.6211 102.089C60.9977 103.431 60.0866 104.678 58.9836 105.636L58.8877 105.732L58.9357 105.876C60.2784 110.861 61.2854 116.038 62.0047 121.166H62.4843C63.2515 117.859 64.1627 114.743 65.1697 111.82L65.2176 111.676L65.1217 111.58C62.4843 109.04 61.4772 105.876 62.1486 102.185L61.6211 102.089ZM99.5047 82.3892C99.6486 82.3892 100.08 82.3892 100.128 82.5809V82.6289V82.6768C100.224 83.0602 100.032 83.4437 99.6486 83.5875C99.4568 83.6354 80.0834 89.5311 68.2387 110.238L68.1428 110.43L68.3346 110.573C69.5815 111.388 71.0201 111.82 72.6505 111.82C76.7745 111.82 82.0015 108.992 86.5572 104.246C89.4344 101.61 93.0309 98.3027 98.21 94.564C107.417 87.9493 106.986 84.3544 105.835 82.1975C104.588 79.8008 102.046 78.6505 98.1141 78.6505C97.9222 78.6505 97.6825 78.6505 97.4907 78.6505C89.2905 78.6505 77.8775 83.971 71.5476 90.7773C61.8129 102.089 64.9779 107.554 66.8001 109.375L67.0399 109.615L67.1838 109.327C78.0214 90.7294 95.6684 82.3892 99.5047 82.3892ZM30.451 68.9681C26.2311 68.9681 23.1141 70.6458 21.9632 73.5696C20.6205 78.4108 26.2311 83.4916 31.2183 87.9493C31.7937 88.4766 32.3692 89.0038 32.9446 89.4832C34.5271 90.7773 36.3494 92.6946 38.2675 94.7078C42.8231 99.549 47.9542 105.013 52.9894 105.013C54.0444 105.013 55.0994 104.774 56.0584 104.246L56.2982 104.15L56.2023 103.959C47.139 87.0386 32.513 77.0687 32.3692 76.9728C32.0335 76.7332 31.9376 76.3018 32.1774 75.9663V75.9183V75.8704C32.1774 75.8225 32.2253 75.7745 32.3692 75.7745C34.671 75.7745 48.3378 87.0386 57.2573 102.904L57.4491 103.192L57.6889 102.952C59.5591 100.795 60.5182 98.4465 59.2714 93.8929C55.8187 82.3892 47.3788 73.4738 36.733 70.0227C34.4792 69.3516 32.3692 68.9681 30.451 68.9681Z" fill="#273664"/>
</svg>
