<svg width="300" height="363" viewBox="0 0 300 363" fill="none" xmlns="http://www.w3.org/2000/svg">
<path d="M139.525 360.379L298.531 267.943C300.518 266.777 300.475 263.883 298.488 262.76L166.609 187.559L1.33929 284.789C-0.474963 285.869 -0.431778 288.504 1.38248 289.497L121.598 360.552C127.171 363.705 133.996 363.619 139.525 360.379Z" fill="#CFDCF6"/>
<path d="M279.698 255.978C279.568 254.294 278.661 252.652 276.977 251.702L164.709 187.688C160.778 185.399 155.897 185.399 151.966 187.688L7.60299 270.88C5.96153 271.831 5.09759 273.429 4.968 275.113H4.9248C4.9248 280.167 4.968 279.217 4.968 284.098C4.968 286.042 5.65915 288.072 7.60299 289.152L120.562 353.554C124.32 355.714 128.899 355.714 132.657 353.554L276.933 270.362C279.05 269.153 279.655 266.907 279.655 264.747C279.655 258.484 279.784 259.218 279.784 255.978H279.698Z" fill="white"/>
<path d="M73.3482 304.529L75.8535 305.997L72.9594 307.293H72.9162C72.873 307.293 72.8298 307.293 72.8298 307.293L70.2812 305.824L73.2185 304.485C73.2185 304.485 73.305 304.485 73.3482 304.529ZM79.8708 306.127C79.8708 308.287 76.8039 310.057 73.0458 310.057C69.2877 310.057 66.2207 308.287 66.2207 306.127C66.2207 303.967 69.2877 302.196 73.0458 302.196C76.8039 302.196 79.8708 303.967 79.8708 306.127ZM76.8471 305.997C76.8471 305.781 76.7175 305.565 76.5447 305.436L73.7369 303.794C73.4345 303.622 73.089 303.622 72.8298 303.794L69.5468 305.263C69.3741 305.393 69.2445 305.565 69.2445 305.824C69.2445 306.04 69.3741 306.256 69.5468 306.386L72.3978 308.027C72.5274 308.114 72.7002 308.157 72.873 308.157C73.0026 308.157 73.1754 308.114 73.3049 308.027L76.5447 306.559C76.7607 306.429 76.8471 306.213 76.8471 305.997ZM136.156 330.445L261.21 258.44C262.16 257.879 262.722 256.885 262.722 255.805C262.722 254.726 262.16 253.689 261.21 253.171L160.994 195.333C159.914 194.729 158.575 194.729 157.495 195.333L30.9292 268.202C30.0221 268.721 29.5037 269.671 29.5037 270.707C29.5037 271.744 30.0653 272.694 30.9292 273.213L130.195 330.488C131.102 331.007 132.139 331.266 133.175 331.266C134.212 331.223 135.249 330.964 136.156 330.445ZM159.914 197.234L260.173 255.071C260.562 255.287 260.605 255.633 260.605 255.805C260.605 255.935 260.562 256.324 260.173 256.54L135.119 328.545C133.953 329.193 132.527 329.236 131.404 328.545L32.0523 271.226C31.7499 271.053 31.7067 270.751 31.7067 270.664C31.7067 270.535 31.7499 270.276 32.0523 270.103L158.618 197.234C158.834 197.104 159.05 197.061 159.266 197.061C159.482 197.061 159.698 197.104 159.914 197.234ZM280.907 256.021C280.907 257.404 280.907 258.052 280.864 258.829C280.821 259.866 280.778 261.162 280.778 264.79C280.778 267.857 279.655 270.146 277.538 271.355L133.262 354.548C131.231 355.714 128.942 356.319 126.653 356.319C124.363 356.319 122.074 355.714 120.044 354.548L7.08472 290.145C5.05449 288.979 3.88818 286.819 3.88818 284.098C3.88818 281.679 3.88818 280.729 3.88818 279.735C3.88818 278.698 3.88818 277.705 3.88818 275.156C3.88818 275.07 3.88819 275.027 3.93138 274.984C4.10417 272.867 5.27047 271.053 7.08472 269.973L151.447 186.738C155.724 184.276 161.037 184.276 165.27 186.738L277.538 250.752C279.352 251.788 280.519 253.559 280.821 255.589C280.864 255.719 280.907 255.849 280.907 256.021ZM121.123 352.604C122.333 353.295 123.629 353.727 124.968 353.943V347.032C123.24 346.816 121.555 346.254 120 345.39L7.08472 280.988C6.73915 280.772 6.39357 280.556 6.13439 280.297C6.13439 281.16 6.13439 282.154 6.13439 284.098C6.13439 285.178 6.39358 287.165 8.20783 288.201L121.123 352.604ZM278.575 261.464C278.272 261.723 277.884 261.982 277.538 262.198L133.262 345.39C131.447 346.427 129.417 347.032 127.344 347.118V354.029C129.028 353.943 130.67 353.425 132.139 352.604L276.415 269.412C277.84 268.591 278.575 267.036 278.575 264.747C278.575 263.364 278.575 262.285 278.575 261.464ZM278.618 256.453C278.618 255.417 278.272 254.466 277.668 253.689C277.322 253.257 276.89 252.911 276.415 252.609L164.147 188.638C162.333 187.602 160.346 187.083 158.316 187.083C156.285 187.083 154.298 187.602 152.484 188.638L8.16463 271.874C7.73267 272.133 7.3439 272.435 7.04152 272.824C6.43677 273.558 6.09121 274.465 6.09121 275.459C6.09121 275.588 6.0912 275.675 6.13439 275.804C6.22079 277.187 6.99833 278.396 8.20783 279.087L121.167 343.49C122.635 344.354 124.277 344.829 125.918 344.915C126.005 344.915 126.091 344.872 126.177 344.872C126.307 344.872 126.393 344.915 126.523 344.915C128.467 344.959 130.411 344.44 132.139 343.447L276.415 260.254C277.754 259.477 278.531 258.138 278.618 256.626C278.618 256.626 278.618 256.54 278.618 256.453Z" fill="#273664"/>
<path d="M193.175 169.071C193.434 148.381 178.056 143.155 178.056 135.38C178.056 131.06 176.847 127.173 171.188 123.847C171.836 114.042 174.428 103.718 179.439 94.8635C191.274 74.0006 213.002 52.4466 206.48 27.8259C185.356 16.4658 155.724 1.52051 155.724 1.52051C155.81 3.03231 155.81 4.54412 155.767 6.01272C151.663 3.93939 149.158 2.64356 149.158 2.64356C149.244 4.24175 149.244 5.83994 149.201 7.39493C145.443 5.49438 143.197 4.32813 143.197 4.32813C144.752 32.75 125.659 54.2608 117.02 73.6982C110.713 87.866 113.132 106.785 115.292 116.763C117.408 117.8 119.698 118.966 122.117 120.132C120.432 121.039 118.834 122.033 117.365 122.94C105.789 130.024 104.449 144.278 112.138 149.548C100.043 169.374 111.922 191.748 111.922 205.009C111.922 221.768 109.806 263.408 109.806 263.408L179.914 261.421C179.914 261.421 177.236 226.952 177.538 212.266C179.05 200.56 192.959 187.645 193.175 169.071Z" fill="white"/>
<path d="M125.529 295.069C125.443 295.069 125.356 295.069 125.27 295.026C113.52 292.694 103.456 288.461 96.1122 282.759C88.4665 276.798 84.406 269.714 84.406 262.285C84.406 255.201 88.1209 248.419 95.1187 242.631C95.6371 242.199 96.4146 242.286 96.8898 242.804C97.3218 243.323 97.2354 244.1 96.717 244.575C90.3239 249.845 86.9114 255.978 86.9114 262.328C86.9114 275.848 102.549 288.029 125.788 292.607C126.479 292.737 126.911 293.385 126.782 294.076C126.652 294.681 126.134 295.069 125.529 295.069ZM181.901 290.318C197.754 283.752 206.825 273.515 206.825 262.328C206.825 255.158 203.024 248.29 195.896 242.459C195.378 242.027 194.557 242.113 194.125 242.631C193.693 243.15 193.78 243.97 194.298 244.402C200.864 249.715 204.319 255.935 204.319 262.328C204.319 272.306 195.551 281.938 180.907 288.029C180.259 288.288 179.957 289.022 180.216 289.67C180.432 290.145 180.864 290.448 181.382 290.448C181.598 290.404 181.728 290.361 181.901 290.318ZM160.259 283.839C180.173 279.908 191.577 271.356 191.577 260.384C191.577 254.899 188.726 249.672 183.326 245.223C182.808 244.791 182.03 244.878 181.555 245.396C181.123 245.914 181.209 246.692 181.728 247.167C186.523 251.141 189.071 255.719 189.071 260.427C189.071 270.103 178.402 277.748 159.784 281.42C159.093 281.55 158.661 282.197 158.79 282.889C158.92 283.493 159.438 283.882 160 283.882C160.129 283.839 160.216 283.839 160.259 283.839ZM118.704 279.519C118.963 278.871 118.661 278.137 118.013 277.878C106.004 272.867 100.389 267.339 100.389 260.341C100.389 255.547 102.981 250.925 107.905 246.951C108.423 246.519 108.51 245.741 108.078 245.18C107.646 244.662 106.868 244.575 106.307 245.007C100.777 249.499 97.8833 254.812 97.8833 260.341C97.8833 268.418 103.974 274.725 117.019 280.167C117.192 280.254 117.322 280.254 117.495 280.254C118.056 280.297 118.488 279.995 118.704 279.519ZM183.974 143.241C188.466 148.511 194.643 155.724 194.471 169.071C194.341 180.388 189.33 189.546 184.924 197.623C181.944 203.065 179.352 207.817 178.704 212.309C178.445 226.736 181.037 260.859 181.08 261.248C181.123 261.982 180.605 262.587 179.87 262.63C179.136 262.674 178.531 262.155 178.488 261.421C178.358 259.952 176.112 230.537 176.069 214.944C176.069 213.907 176.069 212.957 176.112 212.05C176.631 208.162 178.402 204.275 180.648 200.042C181.296 198.832 181.944 197.623 182.635 196.327C186.911 188.509 191.749 179.654 191.879 168.985C192.052 156.588 186.479 150.109 181.987 144.883C179.179 141.6 176.76 138.749 176.76 135.337C176.76 131.795 175.896 128.814 172.354 126.136C172.095 133.22 172.916 139.829 174.428 145.185C174.557 145.703 174.384 146.222 173.996 146.567C173.952 146.61 173.909 146.654 173.823 146.654C173.78 146.956 173.607 147.258 173.348 147.431C173.132 147.604 172.829 147.733 172.527 147.733C172.311 147.733 172.095 147.69 171.922 147.561C169.417 146.178 166.695 144.71 163.801 143.155C164.06 144.494 164.19 145.833 164.147 147.085C164.104 147.777 164.104 148.424 164.06 149.029C164.104 149.072 164.104 149.072 164.147 149.116C165.529 151.016 167.3 152.485 169.028 153.91C172.786 157.063 176.631 160.303 175.983 167.473C175.939 168.164 175.335 168.639 174.687 168.639C174.643 168.639 174.6 168.639 174.557 168.639C173.823 168.596 173.304 167.948 173.391 167.214C173.909 161.383 171.015 158.964 167.343 155.854C166.22 154.904 165.054 153.91 163.931 152.787C163.931 152.83 163.931 152.83 163.931 152.874C163.585 161.642 163.456 167.084 164.967 171.577C166.393 175.853 168.078 177.797 169.114 177.84C169.849 177.84 171.101 176.63 172.354 173.304C172.613 172.613 173.348 172.311 174.039 172.527C174.73 172.786 175.032 173.52 174.816 174.212C173.261 178.401 171.317 180.475 169.071 180.432C165.831 180.388 163.715 176.026 162.505 172.397C161.08 168.164 160.993 163.37 161.209 156.372C161.253 155.076 161.296 153.694 161.339 152.226C161.339 152.096 161.339 151.966 161.339 151.794C161.382 150.282 161.469 148.64 161.512 146.913C161.555 145.315 161.253 143.371 160.648 141.427C160.259 140.174 159.741 138.879 159.093 137.669C157.97 135.509 156.458 133.522 154.6 132.14C154.255 131.881 153.866 131.622 153.52 131.406C152.872 131.017 152.181 130.715 151.49 130.499C151.447 130.499 151.404 130.456 151.361 130.456C151.274 130.456 151.188 130.412 151.101 130.412C150.626 130.283 150.108 130.196 149.546 130.11C148.164 129.937 146.652 129.98 145.227 130.369C144.19 130.672 143.24 131.104 142.376 131.795C142.333 131.838 142.289 131.881 142.246 131.881C141.512 132.486 140.907 133.263 140.432 134.17C139.482 136.028 139.136 138.403 139.352 141.254C139.395 141.557 139.395 141.902 139.438 142.205C139.482 142.723 139.525 143.284 139.525 143.803C140.086 143.975 140.648 144.105 141.296 144.235C143.412 144.71 145.788 145.228 148.207 147.215C151.274 145.746 152.311 142.42 151.577 136.589C151.577 136.546 151.577 136.46 151.533 136.416C151.49 136.071 151.749 135.725 152.095 135.682C152.44 135.639 152.786 135.898 152.829 136.244C152.872 136.632 152.916 136.978 152.959 137.324C153.564 143.457 152.095 147.042 148.337 148.597C148.25 148.64 148.164 148.64 148.078 148.64C147.905 148.64 147.775 148.597 147.646 148.468C145.356 146.481 143.024 145.962 140.993 145.53C140.475 145.401 140 145.315 139.525 145.185C139.438 147.69 139.05 150.455 138.574 153.521C138.186 155.984 137.797 158.575 137.581 161.296C137.494 162.16 137.451 163.024 137.408 163.888C137.322 166.264 137.365 168.726 137.667 171.188C138.142 174.643 135.378 175.723 132.743 176.846C130.238 177.883 127.171 179.136 124.924 182.505C124.665 182.894 124.276 183.066 123.844 183.066C123.585 183.066 123.326 182.98 123.11 182.85C122.505 182.462 122.333 181.641 122.764 181.036C125.443 177.019 129.114 175.507 131.749 174.427C134.557 173.261 135.248 172.829 135.075 171.533C134.687 168.726 134.644 165.918 134.816 163.24C132.138 162.29 129.935 160.562 128.51 158.143C124.017 157.927 120.432 155.94 118.272 152.614C116.112 152.528 114.168 152.01 112.484 151.146C105.054 164.363 108.25 178.747 110.842 190.625C112.009 195.809 113.088 200.733 113.088 204.793C113.088 221.38 110.972 262.803 110.972 263.235C110.929 263.926 110.367 264.488 109.676 264.488C109.633 264.488 109.633 264.488 109.59 264.488C108.855 264.445 108.337 263.84 108.337 263.106C108.337 262.674 110.453 221.337 110.453 204.793C110.453 200.992 109.417 196.241 108.294 191.187C105.572 178.747 102.246 163.715 110.281 149.677C108.51 148.165 107.214 146.135 106.479 143.673C105.443 140.045 105.788 135.941 107.43 132.011C109.244 127.778 112.397 124.192 116.544 121.644L116.803 121.514C117.581 121.039 118.358 120.564 119.222 120.046C117.624 119.268 116.112 118.491 114.6 117.757C114.255 117.584 113.996 117.238 113.909 116.849C112.138 108.815 108.812 88.4276 115.723 72.964C118.099 67.6079 121.253 62.1654 124.579 56.3773C133.175 41.4321 142.937 24.4999 141.814 4.19855C141.771 3.72341 142.03 3.29146 142.419 3.0323C142.808 2.77313 143.283 2.72994 143.715 2.94592C143.801 2.98911 145.27 3.72341 147.732 4.97604C147.818 4.5009 147.948 3.93939 148.034 3.42106C148.034 3.1187 148.034 2.81633 147.991 2.47078C147.991 2.08203 148.164 1.73647 148.466 1.5205C148.769 1.30453 149.201 1.30453 149.546 1.4773C149.633 1.5205 151.231 2.34119 153.909 3.68021C154.125 2.55716 154.341 1.30453 154.341 1.30453C154.341 1.30453 154.341 1.30453 154.384 1.30453C154.384 0.872585 154.6 0.440642 154.946 0.22467C155.335 -0.0344962 155.81 -0.0776893 156.242 0.138283C156.544 0.267866 186.177 15.2131 207.041 26.4868C207.343 26.6596 207.602 26.962 207.689 27.3075C212.829 46.6586 201.253 63.85 190.065 80.4366C186.609 85.5767 183.326 90.4145 180.561 95.3386C175.637 104.021 173.175 113.783 172.484 122.983C178.445 126.741 179.352 131.233 179.352 135.207C179.352 137.842 181.382 140.261 183.974 143.241ZM201.641 48.2568C199.395 60.0489 192.743 70.6747 185.788 81.7324C183.369 85.5767 180.907 89.5506 178.618 93.5245C178.013 94.6043 177.451 95.7274 176.89 96.8936C177.322 95.9866 177.797 95.0795 178.315 94.2156C181.166 89.2482 184.579 84.1081 187.948 79.1408C194.471 69.4652 201.123 59.6169 204.363 49.2935C204.147 49.2071 203.888 49.1639 203.628 49.0343C202.894 48.8615 202.246 48.5592 201.641 48.2568ZM195.939 49.639C193.996 60.9127 188.25 71.2794 182.635 81.3869C180.561 85.1448 178.402 89.0323 176.501 92.8766C176.587 92.747 176.631 92.6174 176.717 92.4878C179.006 88.4707 181.512 84.4537 183.931 80.6094C190.151 70.7179 196.112 61.1719 198.79 50.8917C198.358 50.7189 197.883 50.5461 197.235 50.2869C196.803 50.071 196.371 49.855 195.939 49.639ZM175.119 14.738C179.957 17.2432 185.054 19.8781 190.021 22.513C190.194 21.9514 190.41 21.4331 190.626 20.9148C185.615 18.2799 180.561 15.6883 175.939 13.3126C175.723 13.7877 175.421 14.306 175.119 14.738ZM168.553 15.861C173.434 18.3663 178.618 21.0875 183.628 23.7224C183.801 23.0745 184.06 22.513 184.32 21.9514C179.309 19.3166 174.255 16.7249 169.633 14.3492C169.374 14.9539 168.985 15.5155 168.553 15.861ZM126.825 127.346L127.084 127.216C127.905 126.698 128.769 126.179 129.719 125.618C130.669 125.056 131.62 124.538 132.657 124.02C134.644 123.026 136.76 122.162 138.963 121.73C136.199 118.966 133.175 118.232 130.194 118.62C127.473 118.966 124.708 120.175 122.117 121.601C120.777 122.335 119.482 123.113 118.272 123.89L118.013 124.02C109.935 128.987 107.43 137.367 109.071 143.068C109.59 144.883 110.54 146.394 111.749 147.561C112.397 148.165 113.088 148.64 113.909 149.029C114.86 149.504 115.896 149.807 117.019 149.98C116.933 149.764 116.847 149.504 116.803 149.288C116.501 148.209 116.285 147.042 116.242 145.876C116.155 144.58 116.242 143.241 116.501 141.902C116.76 140.477 117.192 139.008 117.797 137.626C119.482 133.479 122.635 129.894 126.825 127.346ZM136.976 136.589C135.378 137.799 134.039 139.138 132.959 140.563C132.354 141.384 131.793 142.205 131.361 143.025C129.244 146.956 128.769 151.189 129.719 154.515C129.849 155.033 130.065 155.508 130.237 155.94C130.41 156.329 130.626 156.718 130.842 157.063C131.836 158.705 133.261 159.914 135.032 160.692C135.291 158.1 135.637 155.638 136.026 153.262C136.587 149.591 137.063 146.394 136.933 143.716C136.847 142.55 136.76 142.032 136.717 140.995C136.631 139.354 136.717 137.885 136.976 136.589ZM149.46 127.605C147.602 125.618 145.615 124.581 143.585 124.236C142.635 124.063 141.641 124.02 140.691 124.149C138.963 124.322 137.235 124.84 135.551 125.575C134.557 126.007 133.607 126.482 132.613 127C131.188 127.778 129.762 128.641 128.423 129.462L128.164 129.592C123.369 132.529 120.518 136.676 119.352 140.779C119.093 141.729 118.877 142.68 118.79 143.63C118.618 145.401 118.747 147.129 119.179 148.64C119.352 149.245 119.568 149.85 119.87 150.368C120.086 150.8 120.302 151.189 120.561 151.534C122.073 153.737 124.363 155.12 127.257 155.552C127.214 155.422 127.171 155.336 127.127 155.206C126.091 151.578 126.436 147.474 128.078 143.544C128.207 143.284 128.294 143.025 128.423 142.766C128.769 141.945 129.244 141.081 129.849 140.218C131.663 137.453 134.168 135.034 137.192 133.177L137.451 133.047C137.754 132.875 138.099 132.659 138.402 132.443C138.834 131.708 139.309 131.147 139.784 130.628C140 130.412 140.216 130.196 140.432 130.024C140.95 129.592 141.512 129.203 142.073 128.901C144.492 127.691 147.084 127.389 149.46 127.605ZM172.7 94.8203C174.946 89.8961 177.71 84.9288 180.345 80.1342C185.486 70.8906 190.669 61.4311 192.916 51.3668C192.613 51.2372 192.311 51.1076 191.922 50.978C180.475 46.2267 175.896 31.4974 178.488 23.9384C173.823 21.5195 169.201 19.1006 164.838 16.8545C160.95 25.1478 152.44 33.0524 140.432 30.3743C136.933 40.3522 131.706 49.423 126.868 57.846C126.35 58.753 125.831 59.6601 125.313 60.5672C123.628 63.5476 121.987 66.3984 120.561 69.2493C119.698 70.9338 118.877 72.5752 118.142 74.2166C116.933 76.981 114.946 82.5099 114.341 90.976C114.255 92.0127 114.212 93.1357 114.168 94.302C123.153 97.2392 127.646 107.865 129.546 116.115C133.434 115.554 137.495 116.461 141.166 120.391C141.469 120.737 141.771 121.082 142.03 121.471C145.227 121.514 148.423 122.724 151.361 125.92C151.447 126.007 151.533 126.136 151.62 126.223C158.315 120.003 165.572 123.156 167.602 124.236C167.602 124.02 167.602 123.804 167.559 123.588C167.559 123.069 167.516 122.551 167.516 121.99C167.516 121.601 167.516 121.255 167.516 120.866C167.559 111.061 169.287 102.293 172.7 94.8203Z" fill="#273664"/>
<path d="M163.844 58.9736L159.831 58.3848C159.473 58.3466 159.193 58.4763 158.965 58.718L158.015 60.0425C152.992 59.0372 147.258 60.606 144.712 64.5059C142.425 68.0822 144.042 71.2777 147.764 73.2934C148.471 73.6458 149.528 74.3122 150.585 74.9787C152.022 75.8773 153.756 76.978 152.599 78.7382C151.555 80.4464 149.172 80.7344 147.063 80.1472C144.653 79.4957 143.151 78.0153 143.315 75.287C141.962 75.3019 138.04 75.3509 136.743 75.3399C136.218 79.0515 137.813 82.053 140.668 83.5184L140.496 83.7342L138.913 85.8958C138.483 86.4352 138.872 87.275 139.532 87.3774L143.545 87.9662C143.903 88.0044 144.239 87.8488 144.411 87.633L146.08 85.3635C150.779 86.1107 156.763 84.4942 159.2 80.5082C160.765 78.0148 160.593 75.4421 158.72 73.4537C157.52 72.0376 155.044 70.8044 153.332 69.8976C152.163 69.283 150.92 68.3626 150.919 67.479C151.098 63.3155 160.094 64.3837 159.829 68.6552L166.242 68.4042C166.462 65.6499 165.252 63.6261 163.306 62.2154L164.571 60.5413C164.893 59.9159 164.504 59.076 163.844 58.9736Z" fill="#273664"/>
</svg>
